{
.appVersion = "1342";
copyright = "Copyright 2020 FKxGF Schoolbook Project Authors (https://github.com/floriankarsten/fk-gf-schoolbook)";
customParameters = (
{
name = vendorID;
value = FK;
},
{
name = licenseURL;
value = "https://scripts.sil.org/OFL";
},
{
name = license;
value = "This Font Software is licensed under the SIL Open Font License, Version 1.1. This license is available with a FAQ at: https://scripts.sil.org/OFL";
},
{
name = Axes;
value = (
{
Name = Weight;
Tag = wght;
},
{
Name = "Optical size";
Tag = opsz;
}
);
},
{
name = "Use Typo Metrics";
value = 1;
}
);
date = "2020-08-19 14:36:15 +0000";
designer = "Florian Karsten";
designerURL = "https://fonts.floriankarsten.com";
familyName = "FKxGF Schoolbook (Ball Terminal)";
featurePrefixes = (
{
automatic = 1;
code = "languagesystem DFLT dflt;\012";
name = Languagesystems;
}
);
features = (
{
automatic = 1;
code = "lookup ccmp_Other_1 {\012	@CombiningTopAccents = [dotaccentcomb];\012	sub [i j]' @CombiningTopAccents by [idotless jdotless];\012} ccmp_Other_1;\012";
name = ccmp;
}
);
fontMaster = (
{
alignmentZones = (
"{1560, 16}",
"{1460, 16}",
"{1100, 16}",
"{0, -16}",
"{-420, -20}"
);
ascender = 1560;
capHeight = 1460;
custom = "Thin Text";
customParameters = (
{
name = typoAscender;
value = 1800;
},
{
name = hheaAscender;
value = 1800;
},
{
name = typoDescender;
value = -600;
},
{
name = hheaDescender;
value = -600;
},
{
name = typoLineGap;
value = 0;
},
{
name = hheaLineGap;
value = 0;
},
{
name = winAscent;
value = 1800;
},
{
name = winDescent;
value = 600;
}
);
descender = -440;
horizontalStems = (
40
);
iconName = Light_Condensed;
id = "CA54B7DC-FBBB-40FE-ACF3-AABDD76D6A7B";
verticalStems = (
50,
48
);
widthValue = 0;
xHeight = 1100;
},
{
alignmentZones = (
"{1540, 16}",
"{1460, 16}",
"{1080, 16}",
"{0, -16}",
"{-420, -20}"
);
ascender = 1540;
capHeight = 1460;
custom = "Thin Display";
customParameters = (
{
name = typoAscender;
value = 1800;
},
{
name = hheaAscender;
value = 1800;
},
{

glyphs = (
{
glyphname = A;
lastChange = "2020-09-15 06:43:15 +0000";
layers = (
{
hints = (
{
origin = "{0, 0}";
scale = "{-1.1, 1}";
type = Corner;
name = _corner.Serif;
options = 1;
},
{
origin = "{0, 3}";
scale = "{1.1, 1}";
type = Corner;
name = _corner.Serif;
},
{
origin = "{0, 4}";
scale = "{-0.64, 1}";
type = Corner;
name = _corner.Serif;
options = 1;
},
{
origin = "{0, 7}";
scale = "{0.64, 1}";
type = Corner;
name = _corner.Serif;
}
);
layerId = "CA54B7DC-FBBB-40FE-ACF3-AABDD76D6A7B";
paths = (
{
closed = 1;
nodes = (
"237 0 LINE",
"796 1393 LINE",
"783 1393 LINE",
"1342 0 LINE",
"1394 0 LINE",
"814 1440 LINE",
"770 1440 LINE",
"190 0 LINE"
);
},
{
closed = 1;
nodes = (
"1160 530 LINE",
"424 530 LINE",
"424 488 LINE",
"1160 488 LINE"
);
}
);
width = 1584;
},
{
hints = (
{
origin = "{0, 7}";
scale = "{0.64, 1}";
type = Corner;
name = _corner.Serif;
},
{
origin = "{0, 0}";
scale = "{-1.2, 1}";
type = Corner;
name = _corner.Serif;
options = 1;
},
{
origin = "{0, 3}";
scale = "{1.2, 1}";
type = Corner;
name = _corner.Serif;
},
{
origin = "{0, 4}";
scale = "{-0.64, 1}";
type = Corner;
name = _corner.Serif;
options = 1;
}
);
layerId = "1E61A082-F045-49A7-AB52-DD1B03FD9B54";
paths = (
{
closed = 1;
nodes = (
"241 0 LINE",
"800 1393 LINE",
"787 1393 LINE",
"1346 0 LINE",
"1398 0 LINE",
"818 1440 LINE",
"776 1440 LINE",
"196 0 LINE"
);
},
{
closed = 1;
nodes = (
"1164 530 LINE",
"428 530 LINE",
"428 490 LINE",
"1164 490 LINE"
);
}
);
width = 1592;
},
{
hints = (
{
origin = "{0, 7}";
scale = "{0.5, 1}";
type = Corner;
name = _corner.Serif;
},
{
origin = "{0, 0}";
scale = "{-1.5, 1}";
type = Corner;
name = _corner.Serif;
options = 1;
},
{
origin = "{0, 3}";
scale = "{1.5, 1}";
type = Corner;
name = _corner.Serif;
},
{
origin = "{0, 4}";
scale = "{-0.5, 1}";
type = Corner;
name = _corner.Serif;
options = 1;
}
);
layerId = "642E5713-E15A-4A7E-A28E-9A6B75A6585C";
paths = (
{
closed = 1;
nodes = (
"323 0 LINE",
"834 1293 LINE",
"729 1294 LINE",
"1227 0 LINE",
"1542 0 LINE",
"962 1460 LINE",
"720 1460 LINE",
"140 0 LINE"
);
},
{
closed = 1;
nodes = (
"1114 594 LINE",
"448 594 LINE",
"448 440 LINE",
"1114 440 LINE"
);
}
);
width = 1680;
},
{
hints = (
{
origin = "{0, 0}";
scale = "{-1.4, 1}";
type = Corner;
name = _corner.Serif;
options = 1;
},
{
origin = "{0, 3}";
scale = "{1.4, 1}";
type = Corner;
name = _corner.Serif;
},
{
origin = "{0, 4}";
scale = "{-0.5, 1}";
type = Corner;
name = _corner.Serif;
options = 1;
},
{
origin = "{0, 7}";
scale = "{0.5, 1}";
type = Corner;
name = _corner.Serif;
}
);
layerId = "AF891779-7DE6-4679-9CA2-17B922C1DF84";
paths = (
{
closed = 1;
nodes = (
"345 0 LINE",
"855 1293 LINE",
"736 1294 LINE",
"1234 0 LINE",
"1549 0 LINE",
"969 1460 LINE",
"714 1460 LINE",
"134 0 LINE"
);
},
{
closed = 1;
nodes = (
"1089 616 LINE",
"473 616 LINE",
"473 438 LINE",
"1089 438 LINE"
);
}
);
width = 1683;
},
{
hints = (
{
origin = "{0, 0}";
scale = "{-1.56, 1}";
type = Corner;
name = _corner.Serif;
options = 1;
},
{
origin = "{0, 3}";
scale = "{1.56, 1}";
type = Corner;
name = _corner.Serif;
},
{
origin = "{0, 4}";
scale = "{-0.42533, 1}";
type = Corner;
name = _corner.Serif;
options = 1;
},
{
origin = "{0, 7}";
scale = "{0.42533, 1}";
type = Corner;
name = _corner.Serif;
}
);
layerId = "219068EA-2B9B-40DC-949E-B60449C01B8A";
paths = (
{
closed = 1;
nodes = (
"403 0 LINE",
"886 1240 LINE",
"711 1241 LINE",
"1176 0 LINE",
"1632 0 LINE",
"1052 1471 LINE",
"684 1471 LINE",
"104 0 LINE"
);
},
{
closed = 1;
nodes = (
"1051 662 LINE",
"499 662 LINE",
"499 411 LINE",
"1051 411 LINE"
);
}
);
width = 1736;
},
{
hints = (
{
origin = "{0, 7}";
scale = "{0.42533, 1}";
type = Corner;
name = _corner.Serif;
},
{
origin = "{0, 0}";
scale = "{-1.66, 1}";
type = Corner;
name = _corner.Serif;
options = 1;
},
{
origin = "{0, 3}";
scale = "{1.66, 1}";
type = Corner;
name = _corner.Serif;
},
{
origin = "{0, 4}";
scale = "{-0.42533, 1}";
type = Corner;
name = _corner.Serif;
options = 1;
}
);
layerId = "0C29AA02-E021-4BD1-A2C4-87F681D64C35";
paths = (
{
closed = 1;
nodes = (
"367 0 LINE",
"852 1240 LINE",
"698 1241 LINE",
"1164 0 LINE",
"1619 0 LINE",
"1039 1471 LINE",
"690 1471 LINE",
"110 0 LINE"
);
},
{
closed = 1;
nodes = (
"1087 628 LINE",
"459 628 LINE",
"459 413 LINE",
"1087 413 LINE"
);
}
);
width = 1727;
}
);
leftKerningGroup = A;
rightKerningGroup = A;
unicode = 0041;
},
{
glyphname = B;
lastChange = "2020-09-15 06:43:15 +0000";
layers = (
{
hints = (
{
origin = "{2, 1}";
scale = "{-0.96, 1}";
type = Corner;
name = _corner.Serif;
},
{
origin = "{2, 2}";
type = Corner;
name = _corner.Serif;
options = 1;
}
);
layerId = "CA54B7DC-FBBB-40FE-ACF3-AABDD76D6A7B";
paths = (
{
closed = 1;
nodes = (
"402 1398 LINE",
"888 1398 LINE SMOOTH",
"1136 1398 OFFCURVE",
"1292 1290 OFFCURVE",
"1292 1076 CURVE SMOOTH",
"1292 862 OFFCURVE",
"1136 754 OFFCURVE",
"888 754 CURVE SMOOTH",
"402 754 LINE",
"402 720 LINE",
"900 720 LINE SMOOTH",
"1164 720 OFFCURVE",
"1340 842 OFFCURVE",
"1340 1076 CURVE SMOOTH",
"1340 1316 OFFCURVE",
"1164 1440 OFFCURVE",
"900 1440 CURVE SMOOTH",
"402 1440 LINE"
);
},
{
closed = 1;
nodes = (
"402 712 LINE",
"932 712 LINE SMOOTH",
"1188 712 OFFCURVE",
"1348 599 OFFCURVE",
"1348 377 CURVE SMOOTH",
"1348 155 OFFCURVE",
"1188 42 OFFCURVE",
"932 42 CURVE SMOOTH",
"402 42 LINE",
"402 0 LINE",
"944 0 LINE SMOOTH",
"1216 0 OFFCURVE",
"1396 128 OFFCURVE",
"1396 376 CURVE SMOOTH",
"1396 618 OFFCURVE",
"1216 746 OFFCURVE",
"944 746 CURVE SMOOTH",
"402 746 LINE"
);
},
{
closed = 1;
nodes = (
"402 1440 LINE",
"354 1440 LINE",
"354 0 LINE",
"402 0 LINE"
);
}
);
width = 1548;
},
{
hints = (
{
origin = "{2, 1}";
scale = "{-0.96, 1}";
type = Corner;
name = _corner.Serif;
},
{
origin = "{2, 2}";
type = Corner;
name = _corner.Serif;
options = 1;
}
);
layerId = "1E61A082-F045-49A7-AB52-DD1B03FD9B54";
paths = (
{
closed = 1;
nodes = (
"340 1400 LINE",
"826 1400 LINE SMOOTH",
"1074 1400 OFFCURVE",
"1230 1290 OFFCURVE",
"1230 1076 CURVE SMOOTH",
"1230 862 OFFCURVE",
"1074 752 OFFCURVE",
"826 752 CURVE SMOOTH",
"340 752 LINE",
"340 720 LINE",
"838 720 LINE SMOOTH",
"1102 720 OFFCURVE",
"1278 842 OFFCURVE",
"1278 1076 CURVE SMOOTH",
"1278 1316 OFFCURVE",
"1102 1440 OFFCURVE",
"838 1440 CURVE SMOOTH",
"340 1440 LINE"
);
},
{
closed = 1;
nodes = (
"340 712 LINE",
"870 712 LINE SMOOTH",
"1126 712 OFFCURVE",
"1286 598 OFFCURVE",
"1286 376 CURVE SMOOTH",
"1286 154 OFFCURVE",
"1126 40 OFFCURVE",
"870 40 CURVE SMOOTH",
"340 40 LINE",
"340 0 LINE",
"882 0 LINE SMOOTH",
"1154 0 OFFCURVE",
"1334 128 OFFCURVE",
"1334 376 CURVE SMOOTH",
"1334 618 OFFCURVE",
"1154 746 OFFCURVE",
"882 746 CURVE SMOOTH",
"340 746 LINE"
);
},
{
closed = 1;
nodes = (
"340 1440 LINE",
"292 1440 LINE",
"292 0 LINE",
"340 0 LINE"
);
}
);
width = 1432;
},
{
hints = (
{
origin = "{2, 1}";
scale = "{-0.96, 0.99}";
type = Corner;
name = _corner.Serif;
},
{
origin = "{2, 2}";
type = Corner;
name = _corner.Serif;
options = 1;
}
);
layerId = "642E5713-E15A-4A7E-A28E-9A6B75A6585C";
paths = (
{
closed = 1;
nodes = (
"560 1302 LINE",
"836 1302 LINE SMOOTH",
"1004 1302 OFFCURVE",
"1108 1219 OFFCURVE",
"1108 1058 CURVE SMOOTH",
"1108 897 OFFCURVE",
"1004 814 OFFCURVE",
"836 814 CURVE SMOOTH",
"560 814 LINE",
"560 726 LINE",
"902 726 LINE SMOOTH",
"1205 726 OFFCURVE",
"1406 846 OFFCURVE",
"1406 1092 CURVE SMOOTH",
"1406 1338 OFFCURVE",
"1205 1460 OFFCURVE",
"902 1460 CURVE SMOOTH",
"560 1460 LINE"
);
},
{
closed = 1;
nodes = (
"560 656 LINE",
"900 656 LINE SMOOTH",
"1073 656 OFFCURVE",
"1182 576 OFFCURVE",
"1182 408 CURVE SMOOTH",
"1182 240 OFFCURVE",
"1073 160 OFFCURVE",
"900 160 CURVE SMOOTH",
"560 160 LINE",
"560 0 LINE",
"976 0 LINE SMOOTH",
"1279 0 OFFCURVE",
"1480 121 OFFCURVE",
"1480 378 CURVE SMOOTH",
"1480 635 OFFCURVE",
"1279 756 OFFCURVE",
"976 756 CURVE SMOOTH",
"560 756 LINE"
);
},
{
closed = 1;
nodes = (
"560 1460 LINE",
"270 1460 LINE",
"270 0 LINE",
"560 0 LINE"
);
}
);
width = 1544;
},
{
hints = (
{
origin = "{2, 1}";
scale = "{-0.96, 0.98}";
type = Corner;
name = _corner.Serif;
},
{
origin = "{2, 2}";
type = Corner;
name = _corner.Serif;
options = 1;
}
);
layerId = "AF891779-7DE6-4679-9CA2-17B922C1DF84";
paths = (
{
closed = 1;
nodes = (
"578 1280 LINE",
"866 1280 LINE SMOOTH",
"1026 1280 OFFCURVE",
"1126 1202 OFFCURVE",
"1126 1052 CURVE SMOOTH",
"1126 902 OFFCURVE",
"1026 824 OFFCURVE",
"866 824 CURVE SMOOTH",
"578 824 LINE",
"578 712 LINE",
"920 712 LINE SMOOTH",
"1223 712 OFFCURVE",
"1424 838 OFFCURVE",
"1424 1086 CURVE SMOOTH",
"1424 1334 OFFCURVE",
"1223 1460 OFFCURVE",
"920 1460 CURVE SMOOTH",
"578 1460 LINE"
);
},
{
closed = 1;
nodes = (
"578 644 LINE",
"934 644 LINE SMOOTH",
"1099 644 OFFCURVE",
"1200 568 OFFCURVE",
"1200 414 CURVE SMOOTH",
"1200 260 OFFCURVE",
"1099 184 OFFCURVE",
"934 184 CURVE SMOOTH",
"578 184 LINE",
"578 0 LINE",
"994 0 LINE SMOOTH",
"1297 0 OFFCURVE",
"1498 129 OFFCURVE",
"1498 388 CURVE SMOOTH",
"1498 647 OFFCURVE",
"1297 776 OFFCURVE",
"994 776 CURVE SMOOTH",
"578 776 LINE"
);
},
{
closed = 1;
nodes = (
"578 1460 LINE",
"288 1460 LINE",
"288 0 LINE",
"578 0 LINE"
);
}
);
width = 1606;
},
{
hints = (
{
origin = "{2, 1}";
scale = "{-0.96, 0.96933}";
type = Corner;
name = _corner.Serif;
},
{
origin = "{2, 2}";
type = Corner;
name = _corner.Serif;
options = 1;
}
);
layerId = "219068EA-2B9B-40DC-949E-B60449C01B8A";
paths = (
{
closed = 1;
nodes = (
"672 1217 LINE",
"854 1217 LINE SMOOTH",
"967 1217 OFFCURVE",
"1037 1155 OFFCURVE",
"1037 1039 CURVE SMOOTH",
"1037 923 OFFCURVE",
"967 861 OFFCURVE",
"854 861 CURVE SMOOTH",
"672 861 LINE",
"672 708 LINE",
"931 708 LINE SMOOTH",
"1254 708 OFFCURVE",
"1469 836 OFFCURVE",
"1469 1091 CURVE SMOOTH",
"1469 1344 OFFCURVE",
"1254 1471 OFFCURVE",
"931 1471 CURVE SMOOTH",
"672 1471 LINE"
);
},
{
closed = 1;
nodes = (
"672 608 LINE",
"935 608 LINE SMOOTH",
"1052 608 OFFCURVE",
"1121 551 OFFCURVE",
"1121 434 CURVE SMOOTH",
"1121 316 OFFCURVE",
"1052 260 OFFCURVE",
"935 260 CURVE SMOOTH",
"672 260 LINE",
"672 0 LINE",
"1021 0 LINE SMOOTH",
"1340 0 OFFCURVE",
"1552 130 OFFCURVE",
"1552 394 CURVE SMOOTH",
"1552 662 OFFCURVE",
"1340 792 OFFCURVE",
"1021 792 CURVE SMOOTH",
"672 792 LINE"
);
},
{
closed = 1;
nodes = (
"672 1471 LINE",
"253 1471 LINE",
"253 0 LINE",
"672 0 LINE"
);
}
);
width = 1637;
},
{
hints = (
{
origin = "{2, 1}";
scale = "{-0.96, 0.98467}";
type = Corner;
name = _corner.Serif;
},
{
origin = "{2, 2}";
type = Corner;
name = _corner.Serif;
options = 1;
}
);
layerId = "0C29AA02-E021-4BD1-A2C4-87F681D64C35";
paths = (
{
closed = 1;
nodes = (
"677 1250 LINE",
"841 1250 LINE SMOOTH",
"967 1250 OFFCURVE",
"1043 1181 OFFCURVE",
"1043 1048 CURVE SMOOTH",
"1043 916 OFFCURVE",
"967 847 OFFCURVE",
"841 847 CURVE SMOOTH",
"677 847 LINE",
"677 729 LINE",
"936 729 LINE SMOOTH",
"1260 729 OFFCURVE",
"1474 848 OFFCURVE",
"1474 1101 CURVE SMOOTH",
"1474 1350 OFFCURVE",
"1260 1471 OFFCURVE",
"936 1471 CURVE SMOOTH",
"677 1471 LINE"
);
},
{
closed = 1;
nodes = (
"677 626 LINE",
"916 626 LINE SMOOTH",
"1045 626 OFFCURVE",
"1127 564 OFFCURVE",
"1127 425 CURVE SMOOTH",
"1127 286 OFFCURVE",
"1045 224 OFFCURVE",
"916 224 CURVE SMOOTH",
"677 224 LINE",
"677 0 LINE",
"1026 0 LINE SMOOTH",
"1346 0 OFFCURVE",
"1558 117 OFFCURVE",
"1558 379 CURVE SMOOTH",
"1558 644 OFFCURVE",
"1346 761 OFFCURVE",
"1026 761 CURVE SMOOTH",
"677 761 LINE"
);
},
{
closed = 1;
nodes = (
"677 1471 LINE",
"258 1471 LINE",
"258 0 LINE",
"677 0 LINE"
);
}
);
width = 1604;
}
);
leftKerningGroup = I;
leftMetricsKey = I;
rightKerningGroup = B;
unicode = 0042;
},
{
glyphname = C;
lastChange = "2020-09-15 06:43:15 +0000";
layers = (
{
layerId = "CA54B7DC-FBBB-40FE-ACF3-AABDD76D6A7B";
paths = (
{
closed = 1;
nodes = (
"1444 960 LINE",
"1432 1256 OFFCURVE",
"1223 1460 OFFCURVE",
"864 1460 CURVE SMOOTH",
"461 1460 OFFCURVE",
"168 1188 OFFCURVE",
"168 720 CURVE SMOOTH",
"168 252 OFFCURVE",
"461 -20 OFFCURVE",
"864 -20 CURVE SMOOTH",
"1256 -20 OFFCURVE",
"1460 231 OFFCURVE",
"1472 516 CURVE",
"1428 516 LINE",
"1412 252 OFFCURVE",
"1226 24 OFFCURVE",
"864 24 CURVE SMOOTH",
"487 24 OFFCURVE",
"216 296 OFFCURVE",
"216 720 CURVE SMOOTH",
"216 1144 OFFCURVE",
"487 1416 OFFCURVE",
"864 1416 CURVE SMOOTH",
"1224 1416 OFFCURVE",
"1387 1196 OFFCURVE",
"1406 960 CURVE"
);
},
{
closed = 1;
nodes = (
"1418 1440 LINE",
"1418 1014 LINE",
"1444 960 LINE",
"1462 960 LINE",
"1462 1440 LINE"
);
}
);
width = 1610;
},
{
layerId = "1E61A082-F045-49A7-AB52-DD1B03FD9B54";
paths = (
{
closed = 1;
nodes = (
"1410 910 LINE",
"1398 1236 OFFCURVE",
"1186 1460 OFFCURVE",
"822 1460 CURVE SMOOTH",
"433 1460 OFFCURVE",
"134 1188 OFFCURVE",
"134 720 CURVE SMOOTH",
"134 252 OFFCURVE",
"433 -20 OFFCURVE",
"822 -20 CURVE SMOOTH",
"1219 -20 OFFCURVE",
"1430 255 OFFCURVE",
"1438 568 CURVE",
"1394 568 LINE",
"1382 275 OFFCURVE",
"1189 24 OFFCURVE",
"822 24 CURVE SMOOTH",
"459 24 OFFCURVE",
"182 296 OFFCURVE",
"182 720 CURVE SMOOTH",
"182 1144 OFFCURVE",
"459 1416 OFFCURVE",
"822 1416 CURVE SMOOTH",
"1187 1416 OFFCURVE",
"1352 1172 OFFCURVE",
"1372 910 CURVE"
);
},
{
closed = 1;
nodes = (
"1384 1440 LINE",
"1384 964 LINE",
"1410 910 LINE",
"1428 910 LINE",
"1428 1440 LINE"
);
}
);
width = 1552;
},
{
layerId = "642E5713-E15A-4A7E-A28E-9A6B75A6585C";
paths = (
{
closed = 1;
nodes = (
"1454 890 LINE",
"1434 1261 OFFCURVE",
"1224 1480 OFFCURVE",
"834 1480 CURVE SMOOTH",
"402 1480 OFFCURVE",
"68 1204 OFFCURVE",
"68 730 CURVE SMOOTH",
"68 256 OFFCURVE",
"402 -20 OFFCURVE",
"834 -20 CURVE SMOOTH",
"1265 -20 OFFCURVE",
"1482 250 OFFCURVE",
"1498 600 CURVE",
"1328 600 LINE",
"1311 366 OFFCURVE",
"1181 168 OFFCURVE",
"886 168 CURVE SMOOTH",
"592 168 OFFCURVE",
"386 388 OFFCURVE",
"386 730 CURVE SMOOTH",
"386 1087 OFFCURVE",
"592 1316 OFFCURVE",
"886 1316 CURVE SMOOTH",
"1184 1316 OFFCURVE",
"1309 1110 OFFCURVE",
"1326 890 CURVE"
);
},
{
closed = 1;
nodes = (
"1330 1460 LINE",
"1330 1084 LINE",
"1454 890 LINE",
"1492 890 LINE",
"1492 1460 LINE"
);
}
);
width = 1580;
},
{
layerId = "AF891779-7DE6-4679-9CA2-17B922C1DF84";
paths = (
{
closed = 1;
nodes = (
"1424 950 LINE",
"1397 1264 OFFCURVE",
"1193 1480 OFFCURVE",
"824 1480 CURVE SMOOTH",
"415 1480 OFFCURVE",
"98 1204 OFFCURVE",
"98 730 CURVE SMOOTH",
"98 256 OFFCURVE",
"417 -20 OFFCURVE",
"828 -20 CURVE SMOOTH",
"1237 -20 OFFCURVE",
"1439 206 OFFCURVE",
"1474 491 CURVE",
"1268 491 LINE",
"1239 340 OFFCURVE",
"1133 194 OFFCURVE",
"882 194 CURVE SMOOTH",
"611 194 OFFCURVE",
"416 403 OFFCURVE",
"416 730 CURVE SMOOTH",
"416 1073 OFFCURVE",
"606 1292 OFFCURVE",
"872 1292 CURVE SMOOTH",
"1138 1292 OFFCURVE",
"1253 1126 OFFCURVE",
"1266 950 CURVE"
);
},
{
closed = 1;
nodes = (
"1268 1460 LINE",
"1268 1160 LINE",
"1424 950 LINE",
"1454 950 LINE",
"1454 1460 LINE"
);
}
);
width = 1560;
},
{
layerId = "219068EA-2B9B-40DC-949E-B60449C01B8A";
paths = (
{
closed = 1;
nodes = (
"1413 945 LINE",
"1378 1268 OFFCURVE",
"1177 1491 OFFCURVE",
"803 1491 CURVE SMOOTH",
"390 1491 OFFCURVE",
"61 1213 OFFCURVE",
"61 735 CURVE SMOOTH",
"61 258 OFFCURVE",
"394 -20 OFFCURVE",
"809 -20 CURVE SMOOTH",
"1227 -20 OFFCURVE",
"1428 193 OFFCURVE",
"1475 478 CURVE",
"1183 478 LINE",
"1147 387 OFFCURVE",
"1083 285 OFFCURVE",
"892 285 CURVE SMOOTH",
"677 285 OFFCURVE",
"523 460 OFFCURVE",
"523 735 CURVE SMOOTH",
"523 1035 OFFCURVE",
"669 1226 OFFCURVE",
"876 1226 CURVE SMOOTH",
"1092 1226 OFFCURVE",
"1182 1089 OFFCURVE",
"1191 945 CURVE"
);
},
{
closed = 1;
nodes = (
"1188 1471 LINE",
"1188 1238 LINE",
"1413 945 LINE",
"1450 945 LINE",
"1450 1471 LINE"
);
}
);
width = 1533;
},
{
layerId = "0C29AA02-E021-4BD1-A2C4-87F681D64C35";
paths = (
{
closed = 1;
nodes = (
"1477 879 LINE",
"1453 1274 OFFCURVE",
"1244 1491 OFFCURVE",
"840 1491 CURVE SMOOTH",
"385 1491 OFFCURVE",
"33 1213 OFFCURVE",
"33 735 CURVE SMOOTH",
"33 258 OFFCURVE",
"385 -20 OFFCURVE",
"840 -20 CURVE SMOOTH",
"1290 -20 OFFCURVE",
"1510 247 OFFCURVE",
"1530 617 CURVE",
"1293 617 LINE",
"1273 415 OFFCURVE",
"1177 245 OFFCURVE",
"920 245 CURVE SMOOTH",
"663 245 OFFCURVE",
"495 437 OFFCURVE",
"495 735 CURVE SMOOTH",
"495 1057 OFFCURVE",
"663 1263 OFFCURVE",
"920 1263 CURVE SMOOTH",
"1182 1263 OFFCURVE",
"1286 1077 OFFCURVE",
"1301 879 CURVE"
);
},
{
closed = 1;
nodes = (
"1301 1471 LINE",
"1301 1148 LINE",
"1477 879 LINE",
"1526 879 LINE",
"1526 1471 LINE"
);
}
);
width = 1595;
}
);
leftKerningGroup = O;
leftMetricsKey = O;
rightKerningGroup = C;
unicode = 0043;
},
{
glyphname = D;
lastChange = "2020-09-15 06:45:59 +0000";
layers = (
{
hints = (
{
origin = "{1, 1}";
scale = "{-0.96, 1}";
type = Corner;
name = _corner.Serif;
},
{
origin = "{1, 2}";
type = Corner;
name = _corner.Serif;
options = 1;
}
);
layerId = "CA54B7DC-FBBB-40FE-ACF3-AABDD76D6A7B";
paths = (
{
closed = 1;
nodes = (
"402 1398 LINE",
"730 1398 LINE SMOOTH",
"1158 1398 OFFCURVE",
"1438 1136 OFFCURVE",
"1438 720 CURVE SMOOTH",
"1438 304 OFFCURVE",
"1158 42 OFFCURVE",
"730 42 CURVE SMOOTH",
"402 42 LINE",
"402 0 LINE",
"730 0 LINE SMOOTH",
"1186 0 OFFCURVE",
"1486 264 OFFCURVE",
"1486 720 CURVE SMOOTH",
"1486 1176 OFFCURVE",
"1186 1440 OFFCURVE",
"730 1440 CURVE SMOOTH",
"402 1440 LINE"
);
},
{
closed = 1;
nodes = (
"402 1440 LINE",
"354 1440 LINE",
"354 0 LINE",
"402 0 LINE"
);
}
);
width = 1654;
},
{
hints = (
{
origin = "{1, 1}";
scale = "{-0.96, 1}";
type = Corner;
name = _corner.Serif;
},
{
origin = "{1, 2}";
type = Corner;
name = _corner.Serif;
options = 1;
}
);
layerId = "1E61A082-F045-49A7-AB52-DD1B03FD9B54";
paths = (
{
closed = 1;
nodes = (
"340 1400 LINE",
"668 1400 LINE SMOOTH",
"1102 1400 OFFCURVE",
"1386 1136 OFFCURVE",
"1386 720 CURVE SMOOTH",
"1386 304 OFFCURVE",
"1102 40 OFFCURVE",
"668 40 CURVE SMOOTH",
"340 40 LINE",
"340 0 LINE",
"668 0 LINE SMOOTH",
"1130 0 OFFCURVE",
"1434 264 OFFCURVE",
"1434 720 CURVE SMOOTH",
"1434 1176 OFFCURVE",
"1130 1440 OFFCURVE",
"668 1440 CURVE SMOOTH",
"340 1440 LINE"
);
},
{
closed = 1;
nodes = (
"340 1440 LINE",
"292 1440 LINE",
"292 0 LINE",
"340 0 LINE"
);
}
);
width = 1568;
},
{
hints = (
{
origin = "{1, 1}";
scale = "{-0.96, 0.99}";
type = Corner;
name = _corner.Serif;
},
{
origin = "{1, 2}";
type = Corner;
name = _corner.Serif;
options = 1;
}
);
layerId = "642E5713-E15A-4A7E-A28E-9A6B75A6585C";
paths = (
{
closed = 1;
nodes = (
"560 1302 LINE",
"734 1302 LINE SMOOTH",
"1041 1302 OFFCURVE",
"1242 1081 OFFCURVE",
"1242 731 CURVE SMOOTH",
"1242 381 OFFCURVE",
"1041 160 OFFCURVE",
"734 160 CURVE SMOOTH",
"560 160 LINE",
"560 0 LINE",
"774 0 LINE SMOOTH",
"1247 0 OFFCURVE",
"1560 268 OFFCURVE",
"1560 730 CURVE SMOOTH",
"1560 1192 OFFCURVE",
"1247 1460 OFFCURVE",
"774 1460 CURVE SMOOTH",
"560 1460 LINE"
);
},
{
closed = 1;
nodes = (
"560 1460 LINE",
"270 1460 LINE",
"270 0 LINE",
"560 0 LINE"
);
}
);
width = 1628;
},
{
hints = (
{
origin = "{1, 1}";
scale = "{-0.96, 0.98}";
type = Corner;
name = _corner.Serif;
},
{
origin = "{1, 2}";
type = Corner;
name = _corner.Serif;
options = 1;
}
);
layerId = "AF891779-7DE6-4679-9CA2-17B922C1DF84";
paths = (
{
closed = 1;
nodes = (
"578 1280 LINE",
"750 1280 LINE SMOOTH",
"1047 1280 OFFCURVE",
"1234 1066 OFFCURVE",
"1234 731 CURVE SMOOTH",
"1234 396 OFFCURVE",
"1047 184 OFFCURVE",
"750 184 CURVE SMOOTH",
"578 184 LINE",
"578 0 LINE",
"792 0 LINE SMOOTH",
"1254 0 OFFCURVE",
"1552 268 OFFCURVE",
"1552 730 CURVE SMOOTH",
"1552 1192 OFFCURVE",
"1254 1460 OFFCURVE",
"792 1460 CURVE SMOOTH",
"578 1460 LINE"
);
},
{
closed = 1;
nodes = (
"578 1460 LINE",
"288 1460 LINE",
"288 0 LINE",
"578 0 LINE"
);
}
);
width = 1650;
},
{
hints = (
{
origin = "{1, 1}";
scale = "{-0.96, 0.96933}";
type = Corner;
name = _corner.Serif;
},
{
origin = "{1, 2}";
type = Corner;
name = _corner.Serif;
options = 1;
}
);
layerId = "219068EA-2B9B-40DC-949E-B60449C01B8A";
paths = (
{
closed = 1;
nodes = (
"672 1217 LINE",
"761 1217 LINE SMOOTH",
"988 1217 OFFCURVE",
"1125 1029 OFFCURVE",
"1125 737 CURVE SMOOTH",
"1125 445 OFFCURVE",
"988 260 OFFCURVE",
"761 260 CURVE SMOOTH",
"672 260 LINE",
"672 0 LINE",
"825 0 LINE SMOOTH",
"1290 0 OFFCURVE",
"1587 270 OFFCURVE",
"1587 735 CURVE SMOOTH",
"1587 1201 OFFCURVE",
"1290 1471 OFFCURVE",
"825 1471 CURVE SMOOTH",
"672 1471 LINE"
);
},
{
closed = 1;
nodes = (
"672 1471 LINE",
"253 1471 LINE",
"253 0 LINE",
"672 0 LINE"
);
}
);
width = 1647;
},
{
hints = (
{
origin = "{1, 1}";
scale = "{-0.96, 0.98467}";
type = Corner;
name = _corner.Serif;
},
{
origin = "{1, 2}";
type = Corner;
name = _corner.Serif;
options = 1;
}
);
layerId = "0C29AA02-E021-4BD1-A2C4-87F681D64C35";
paths = (
{
closed = 1;
nodes = (
"677 1250 LINE",
"769 1250 LINE SMOOTH",
"1008 1250 OFFCURVE",
"1165 1052 OFFCURVE",
"1165 737 CURVE SMOOTH",
"1165 422 OFFCURVE",
"1008 224 OFFCURVE",
"769 224 CURVE SMOOTH",
"677 224 LINE",
"677 0 LINE",
"831 0 LINE SMOOTH",
"1309 0 OFFCURVE",
"1627 270 OFFCURVE",
"1627 735 CURVE SMOOTH",
"1627 1201 OFFCURVE",
"1309 1471 OFFCURVE",
"831 1471 CURVE SMOOTH",
"677 1471 LINE"
);
},
{
closed = 1;
nodes = (
"677 1471 LINE",
"258 1471 LINE",
"258 0 LINE",
"677 0 LINE"
);
}
);
width = 1659;
}
);
leftKerningGroup = I;
leftMetricsKey = I;
rightKerningGroup = O;
rightMetricsKey = O;
unicode = 0044;
},
{
glyphname = E;
lastChange = "2020-09-15 06:43:15 +0000";
layers = (
{
hints = (
{
origin = "{2, 1}";
scale = "{-0.96, 1}";
type = Corner;
name = _corner.Serif;
},
{
origin = "{2, 2}";
type = Corner;
name = _corner.Serif;
options = 1;
}
);
layerId = "CA54B7DC-FBBB-40FE-ACF3-AABDD76D6A7B";
paths = (
{
closed = 1;
nodes = (
"1310 42 LINE",
"402 42 LINE",
"402 0 LINE",
"1310 0 LINE"
);
},
{
closed = 1;
nodes = (
"1294 1440 LINE",
"402 1440 LINE",
"402 1398 LINE",
"1294 1398 LINE"
);
},
{
closed = 1;
nodes = (
"402 1440 LINE",
"354 1440 LINE",
"354 0 LINE",
"402 0 LINE"
);
},
{
closed = 1;
nodes = (
"936 768 LINE",
"402 768 LINE",
"402 726 LINE",
"936 726 LINE"
);
},
{
closed = 1;
nodes = (
"1225 1398 OFFCURVE",
"1251 1372 OFFCURVE",
"1251 1268 CURVE SMOOTH",
"1251 1050 LINE",
"1294 1050 LINE",
"1294 1398 LINE",
"1125 1398 LINE"
);
},
{
closed = 1;
nodes = (
"1310 42 LINE",
"1310 410 LINE",
"1267 410 LINE",
"1267 172 LINE SMOOTH",
"1267 68 OFFCURVE",
"1241 42 OFFCURVE",
"1141 42 CURVE"
);
},
{
closed = 1;
nodes = (
"936 768 LINE",
"936 1048 LINE",
"894 1048 LINE",
"894 890 LINE SMOOTH",
"894 792 OFFCURVE",
"870 768 OFFCURVE",
"776 768 CURVE"
);
},
{
closed = 1;
nodes = (
"870 726 OFFCURVE",
"894 702 OFFCURVE",
"894 604 CURVE SMOOTH",
"894 406 LINE",
"936 406 LINE",
"936 726 LINE",
"776 726 LINE"
);
}
);
width = 1474;
},
{
hints = (
{
origin = "{2, 1}";
scale = "{-0.96, 1}";
type = Corner;
name = _corner.Serif;
},
{
origin = "{2, 2}";
type = Corner;
name = _corner.Serif;
options = 1;
}
);
layerId = "1E61A082-F045-49A7-AB52-DD1B03FD9B54";
paths = (
{
closed = 1;
nodes = (
"1248 40 LINE",
"340 40 LINE",
"340 0 LINE",
"1248 0 LINE"
);
},
{
closed = 1;
nodes = (
"1230 1440 LINE",
"340 1440 LINE",
"340 1400 LINE",
"1230 1400 LINE"
);
},
{
closed = 1;
nodes = (
"340 1440 LINE",
"292 1440 LINE",
"292 0 LINE",
"340 0 LINE"
);
},
{
closed = 1;
nodes = (
"894 780 LINE",
"340 780 LINE",
"340 740 LINE",
"894 740 LINE"
);
},
{
closed = 1;
nodes = (
"1162 1400 OFFCURVE",
"1188 1374 OFFCURVE",
"1188 1270 CURVE SMOOTH",
"1188 900 LINE",
"1230 900 LINE",
"1230 1400 LINE",
"1062 1400 LINE"
);
},
{
closed = 1;
nodes = (
"1248 40 LINE",
"1248 560 LINE",
"1206 560 LINE",
"1206 170 LINE SMOOTH",
"1206 66 OFFCURVE",
"1180 40 OFFCURVE",
"1080 40 CURVE"
);
},
{
closed = 1;
nodes = (
"894 780 LINE",
"894 1160 LINE",
"854 1160 LINE",
"854 902 LINE SMOOTH",
"854 804 OFFCURVE",
"830 780 OFFCURVE",
"736 780 CURVE"
);
},
{
closed = 1;
nodes = (
"830 740 OFFCURVE",
"854 716 OFFCURVE",
"854 618 CURVE SMOOTH",
"854 290 LINE",
"894 290 LINE",
"894 740 LINE",
"736 740 LINE"
);
}
);
width = 1398;
},
{
hints = (
{
origin = "{2, 1}";
scale = "{-0.96, 0.99}";
type = Corner;
name = _corner.Serif;
},
{
origin = "{2, 2}";
type = Corner;
name = _corner.Serif;
options = 1;
}
);
layerId = "642E5713-E15A-4A7E-A28E-9A6B75A6585C";
paths = (
{
closed = 1;
nodes = (
"1336 160 LINE",
"560 160 LINE",
"560 0 LINE",
"1336 0 LINE"
);
},
{
closed = 1;
nodes = (
"1318 1460 LINE",
"560 1460 LINE",
"560 1302 LINE",
"1318 1302 LINE"
);
},
{
closed = 1;
nodes = (
"560 1460 LINE",
"270 1460 LINE",
"270 0 LINE",
"560 0 LINE"
);
},
{
closed = 1;
nodes = (
"996 846 LINE",
"560 846 LINE",
"560 690 LINE",
"996 690 LINE"
);
},
{
closed = 1;
nodes = (
"1086 1302 OFFCURVE",
"1148 1240 OFFCURVE",
"1148 1092 CURVE SMOOTH",
"1148 910 LINE",
"1318 910 LINE",
"1318 1302 LINE",
"942 1302 LINE"
);
},
{
closed = 1;
nodes = (
"1336 160 LINE",
"1336 570 LINE",
"1166 570 LINE",
"1166 370 LINE SMOOTH",
"1166 222 OFFCURVE",
"1104 160 OFFCURVE",
"960 160 CURVE"
);
},
{
closed = 1;
nodes = (
"996 846 LINE",
"996 1148 LINE",
"836 1148 LINE",
"836 1040 LINE SMOOTH",
"836 902 OFFCURVE",
"780 846 OFFCURVE",
"646 846 CURVE"
);
},
{
closed = 1;
nodes = (
"780 690 OFFCURVE",
"836 634 OFFCURVE",
"836 496 CURVE SMOOTH",
"836 316 LINE",
"996 316 LINE",
"996 690 LINE",
"646 690 LINE"
);
}
);
width = 1454;
},
{
hints = (
{
origin = "{2, 1}";
scale = "{-0.96, 0.98}";
type = Corner;
name = _corner.Serif;
},
{
origin = "{2, 2}";
type = Corner;
name = _corner.Serif;
options = 1;
}
);
layerId = "AF891779-7DE6-4679-9CA2-17B922C1DF84";
paths = (
{
closed = 1;
nodes = (
"1354 184 LINE",
"578 184 LINE",
"578 0 LINE",
"1354 0 LINE"
);
},
{
closed = 1;
nodes = (
"1336 1460 LINE",
"578 1460 LINE",
"578 1280 LINE",
"1336 1280 LINE"
);
},
{
closed = 1;
nodes = (
"578 1460 LINE",
"288 1460 LINE",
"288 0 LINE",
"578 0 LINE"
);
},
{
closed = 1;
nodes = (
"1004 858 LINE",
"578 858 LINE",
"578 680 LINE",
"1004 680 LINE"
);
},
{
closed = 1;
nodes = (
"1084 1280 OFFCURVE",
"1146 1218 OFFCURVE",
"1146 1070 CURVE SMOOTH",
"1146 1010 LINE",
"1336 1010 LINE",
"1336 1280 LINE",
"940 1280 LINE"
);
},
{
closed = 1;
nodes = (
"1354 184 LINE",
"1354 470 LINE",
"1164 470 LINE",
"1164 394 LINE SMOOTH",
"1164 246 OFFCURVE",
"1102 184 OFFCURVE",
"958 184 CURVE"
);
},
{
closed = 1;
nodes = (
"1004 858 LINE",
"1004 1092 LINE",
"820 1092 LINE",
"820 1058 LINE SMOOTH",
"820 917 OFFCURVE",
"761 858 OFFCURVE",
"624 858 CURVE"
);
},
{
closed = 1;
nodes = (
"761 680 OFFCURVE",
"820 621 OFFCURVE",
"820 480 CURVE SMOOTH",
"820 378 LINE",
"1004 378 LINE",
"1004 680 LINE",
"624 680 LINE"
);
}
);
width = 1502;
},
{
hints = (
{
origin = "{2, 1}";
scale = "{-0.96, 0.96933}";
type = Corner;
name = _corner.Serif;
},
{
origin = "{2, 2}";
type = Corner;
name = _corner.Serif;
options = 1;
}
);
layerId = "219068EA-2B9B-40DC-949E-B60449C01B8A";
paths = (
{
closed = 1;
nodes = (
"1377 260 LINE",
"672 260 LINE",
"672 0 LINE",
"1377 0 LINE"
);
},
{
closed = 1;
nodes = (
"1358 1471 LINE",
"672 1471 LINE",
"672 1217 LINE",
"1358 1217 LINE"
);
},
{
closed = 1;
nodes = (
"672 1471 LINE",
"253 1471 LINE",
"253 0 LINE",
"672 0 LINE"
);
},
{
closed = 1;
nodes = (
"1040 906 LINE",
"672 906 LINE",
"672 655 LINE",
"1040 655 LINE"
);
},
{
closed = 1;
nodes = (
"1009 1217 OFFCURVE",
"1090 1136 OFFCURVE",
"1090 964 CURVE SMOOTH",
"1090 989 LINE",
"1358 989 LINE",
"1358 1217 LINE",
"841 1217 LINE"
);
},
{
closed = 1;
nodes = (
"1377 260 LINE",
"1377 502 LINE",
"1109 502 LINE",
"1109 512 LINE SMOOTH",
"1109 341 OFFCURVE",
"1028 260 OFFCURVE",
"860 260 CURVE"
);
},
{
closed = 1;
nodes = (
"1040 906 LINE",
"1040 1115 LINE",
"781 1115 LINE",
"781 1148 LINE SMOOTH",
"781 984 OFFCURVE",
"703 906 OFFCURVE",
"543 906 CURVE"
);
},
{
closed = 1;
nodes = (
"703 655 OFFCURVE",
"781 578 OFFCURVE",
"781 414 CURVE SMOOTH",
"781 363 LINE",
"1040 363 LINE",
"1040 655 LINE",
"543 655 LINE"
);
}
);
width = 1517;
},
{
hints = (
{
origin = "{2, 1}";
scale = "{-0.96, 0.98467}";
type = Corner;
name = _corner.Serif;
},
{
origin = "{2, 2}";
type = Corner;
name = _corner.Serif;
options = 1;
}
);
layerId = "0C29AA02-E021-4BD1-A2C4-87F681D64C35";
paths = (
{
closed = 1;
nodes = (
"1383 224 LINE",
"677 224 LINE",
"677 0 LINE",
"1383 0 LINE"
);
},
{
closed = 1;
nodes = (
"1365 1471 LINE",
"677 1471 LINE",
"677 1250 LINE",
"1365 1250 LINE"
);
},
{
closed = 1;
nodes = (
"677 1471 LINE",
"258 1471 LINE",
"258 0 LINE",
"677 0 LINE"
);
},
{
closed = 1;
nodes = (
"1050 881 LINE",
"677 881 LINE",
"677 663 LINE",
"1050 663 LINE"
);
},
{
closed = 1;
nodes = (
"1045 1250 OFFCURVE",
"1127 1169 OFFCURVE",
"1127 997 CURVE SMOOTH",
"1127 915 LINE",
"1365 915 LINE",
"1365 1250 LINE",
"878 1250 LINE"
);
},
{
closed = 1;
nodes = (
"1383 224 LINE",
"1383 575 LINE",
"1145 575 LINE",
"1145 477 LINE SMOOTH",
"1145 305 OFFCURVE",
"1063 224 OFFCURVE",
"896 224 CURVE"
);
},
{
closed = 1;
nodes = (
"1050 881 LINE",
"1050 1142 LINE",
"826 1142 LINE",
"826 1114 LINE SMOOTH",
"826 954 OFFCURVE",
"753 881 OFFCURVE",
"598 881 CURVE"
);
},
{
closed = 1;
nodes = (
"753 663 OFFCURVE",
"826 590 OFFCURVE",
"826 431 CURVE SMOOTH",
"826 330 LINE",
"1050 330 LINE",
"1050 663 LINE",
"598 663 LINE"
);
}
);
width = 1484;
}
);
leftKerningGroup = I;
leftMetricsKey = I;
rightKerningGroup = E;
unicode = 0045;
},
{
glyphname = F;
lastChange = "2020-09-15 06:43:15 +0000";
layers = (
{
hints = (
{
origin = "{2, 3}";
scale = "{-0.96, 1}";
type = Corner;
name = _corner.Serif;
},
{
origin = "{2, 0}";
type = Corner;
name = _corner.Serif;
options = 1;
},
{
origin = "{2, 1}";
scale = "{-1.2, 1}";
type = Corner;
name = _corner.Serif;
}
);
layerId = "CA54B7DC-FBBB-40FE-ACF3-AABDD76D6A7B";
paths = (
{
closed = 1;
nodes = (
"1272 1440 LINE",
"402 1440 LINE",
"402 1398 LINE",
"1272 1398 LINE"
);
},
{
closed = 1;
nodes = (
"928 754 LINE",
"402 754 LINE",
"402 712 LINE",
"928 712 LINE"
);
},
{
closed = 1;
nodes = (
"354 0 LINE",
"402 0 LINE",
"402 1440 LINE",
"354 1440 LINE"
);
},
{
closed = 1;
nodes = (
"1203 1398 OFFCURVE",
"1229 1372 OFFCURVE",
"1229 1268 CURVE SMOOTH",
"1229 1030 LINE",
"1272 1030 LINE",
"1272 1398 LINE",
"1103 1398 LINE"
);
},
{
closed = 1;
nodes = (
"928 754 LINE",
"928 1024 LINE",
"886 1024 LINE",
"886 876 LINE SMOOTH",
"886 778 OFFCURVE",
"862 754 OFFCURVE",
"768 754 CURVE"
);
},
{
closed = 1;
nodes = (
"862 712 OFFCURVE",
"886 688 OFFCURVE",
"886 590 CURVE SMOOTH",
"886 402 LINE",
"928 402 LINE",
"928 712 LINE",
"768 712 LINE"
);
}
);
width = 1398;
},
{
hints = (
{
origin = "{2, 3}";
scale = "{-0.96, 1}";
type = Corner;
name = _corner.Serif;
},
{
origin = "{2, 0}";
type = Corner;
name = _corner.Serif;
options = 1;
},
{
origin = "{2, 1}";
scale = "{-1.4, 1}";
type = Corner;
name = _corner.Serif;
}
);
layerId = "1E61A082-F045-49A7-AB52-DD1B03FD9B54";
paths = (
{
closed = 1;
nodes = (
"1210 1440 LINE",
"340 1440 LINE",
"340 1400 LINE",
"1210 1400 LINE"
);
},
{
closed = 1;
nodes = (
"900 760 LINE",
"340 760 LINE",
"340 720 LINE",
"900 720 LINE"
);
},
{
closed = 1;
nodes = (
"292 0 LINE",
"340 0 LINE",
"340 1440 LINE",
"292 1440 LINE"
);
},
{
closed = 1;
nodes = (
"1142 1400 OFFCURVE",
"1168 1374 OFFCURVE",
"1168 1270 CURVE SMOOTH",
"1168 900 LINE",
"1210 900 LINE",
"1210 1400 LINE",
"1042 1400 LINE"
);
},
{
closed = 1;
nodes = (
"900 760 LINE",
"900 1160 LINE",
"860 1160 LINE",
"860 882 LINE SMOOTH",
"860 784 OFFCURVE",
"836 760 OFFCURVE",
"742 760 CURVE"
);
},
{
closed = 1;
nodes = (
"836 720 OFFCURVE",
"860 696 OFFCURVE",
"860 598 CURVE SMOOTH",
"860 300 LINE",
"900 300 LINE",
"900 720 LINE",
"742 720 LINE"
);
}
);
width = 1316;
},
{
hints = (
{
origin = "{2, 3}";
scale = "{-0.96, 0.99}";
type = Corner;
name = _corner.Serif;
},
{
origin = "{2, 0}";
type = Corner;
name = _corner.Serif;
options = 1;
},
{
origin = "{2, 1}";
scale = "{-1.4, 1}";
type = Corner;
name = _corner.Serif;
}
);
layerId = "642E5713-E15A-4A7E-A28E-9A6B75A6585C";
paths = (
{
closed = 1;
nodes = (
"1308 1460 LINE",
"560 1460 LINE",
"560 1302 LINE",
"1308 1302 LINE"
);
},
{
closed = 1;
nodes = (
"986 836 LINE",
"560 836 LINE",
"560 680 LINE",
"986 680 LINE"
);
},
{
closed = 1;
nodes = (
"270 0 LINE",
"560 0 LINE",
"560 1460 LINE",
"270 1460 LINE"
);
},
{
closed = 1;
nodes = (
"1076 1302 OFFCURVE",
"1138 1240 OFFCURVE",
"1138 1092 CURVE SMOOTH",
"1138 910 LINE",
"1308 910 LINE",
"1308 1302 LINE",
"932 1302 LINE"
);
},
{
closed = 1;
nodes = (
"986 836 LINE",
"986 1150 LINE",
"826 1150 LINE",
"826 1030 LINE SMOOTH",
"826 892 OFFCURVE",
"770 836 OFFCURVE",
"636 836 CURVE"
);
},
{
closed = 1;
nodes = (
"770 680 OFFCURVE",
"826 624 OFFCURVE",
"826 486 CURVE SMOOTH",
"826 290 LINE",
"986 290 LINE",
"986 680 LINE",
"636 680 LINE"
);
}
);
width = 1376;
},
{
hints = (
{
origin = "{2, 3}";
scale = "{-0.96, 0.98}";
type = Corner;
name = _corner.Serif;
},
{
origin = "{2, 0}";
type = Corner;
name = _corner.Serif;
options = 1;
},
{
origin = "{2, 1}";
scale = "{-1.2, 1}";
type = Corner;
name = _corner.Serif;
}
);
layerId = "AF891779-7DE6-4679-9CA2-17B922C1DF84";
paths = (
{
closed = 1;
nodes = (
"1326 1460 LINE",
"578 1460 LINE",
"578 1280 LINE",
"1326 1280 LINE"
);
},
{
closed = 1;
nodes = (
"990 848 LINE",
"578 848 LINE",
"578 670 LINE",
"990 670 LINE"
);
},
{
closed = 1;
nodes = (
"288 0 LINE",
"578 0 LINE",
"578 1460 LINE",
"288 1460 LINE"
);
},
{
closed = 1;
nodes = (
"1074 1280 OFFCURVE",
"1136 1218 OFFCURVE",
"1136 1070 CURVE SMOOTH",
"1136 1000 LINE",
"1326 1000 LINE",
"1326 1280 LINE",
"930 1280 LINE"
);
},
{
closed = 1;
nodes = (
"990 848 LINE",
"990 1112 LINE",
"806 1112 LINE",
"806 1048 LINE SMOOTH",
"806 907 OFFCURVE",
"747 848 OFFCURVE",
"610 848 CURVE"
);
},
{
closed = 1;
nodes = (
"747 670 OFFCURVE",
"806 611 OFFCURVE",
"806 470 CURVE SMOOTH",
"806 360 LINE",
"990 360 LINE",
"990 670 LINE",
"610 670 LINE"
);
}
);
width = 1410;
},
{
hints = (
{
origin = "{2, 3}";
scale = "{-0.96, 0.96933}";
type = Corner;
name = _corner.Serif;
},
{
origin = "{2, 0}";
type = Corner;
name = _corner.Serif;
options = 1;
},
{
origin = "{2, 1}";
scale = "{-1.2, 1}";
type = Corner;
name = _corner.Serif;
}
);
layerId = "219068EA-2B9B-40DC-949E-B60449C01B8A";
paths = (
{
closed = 1;
nodes = (
"1355 1471 LINE",
"672 1471 LINE",
"672 1217 LINE",
"1355 1217 LINE"
);
},
{
closed = 1;
nodes = (
"1023 898 LINE",
"672 898 LINE",
"672 648 LINE",
"1023 648 LINE"
);
},
{
closed = 1;
nodes = (
"253 0 LINE",
"672 0 LINE",
"672 1471 LINE",
"253 1471 LINE"
);
},
{
closed = 1;
nodes = (
"1005 1217 OFFCURVE",
"1086 1136 OFFCURVE",
"1086 964 CURVE SMOOTH",
"1086 984 LINE",
"1355 984 LINE",
"1355 1217 LINE",
"838 1217 LINE"
);
},
{
closed = 1;
nodes = (
"1023 898 LINE",
"1023 1159 LINE",
"763 1159 LINE",
"763 1140 LINE SMOOTH",
"763 976 OFFCURVE",
"686 898 OFFCURVE",
"526 898 CURVE"
);
},
{
closed = 1;
nodes = (
"686 648 OFFCURVE",
"763 570 OFFCURVE",
"763 406 CURVE SMOOTH",
"763 338 LINE",
"1023 338 LINE",
"1023 648 LINE",
"526 648 LINE"
);
}
);
width = 1416;
},
{
hints = (
{
origin = "{2, 3}";
scale = "{-0.96, 0.98467}";
type = Corner;
name = _corner.Serif;
},
{
origin = "{2, 0}";
type = Corner;
name = _corner.Serif;
options = 1;
},
{
origin = "{2, 1}";
scale = "{-1.4, 1}";
type = Corner;
name = _corner.Serif;
}
);
layerId = "0C29AA02-E021-4BD1-A2C4-87F681D64C35";
paths = (
{
closed = 1;
nodes = (
"1360 1471 LINE",
"677 1471 LINE",
"677 1250 LINE",
"1360 1250 LINE"
);
},
{
closed = 1;
nodes = (
"1032 877 LINE",
"677 877 LINE",
"677 659 LINE",
"1032 659 LINE"
);
},
{
closed = 1;
nodes = (
"258 0 LINE",
"677 0 LINE",
"677 1471 LINE",
"258 1471 LINE"
);
},
{
closed = 1;
nodes = (
"1041 1250 OFFCURVE",
"1122 1169 OFFCURVE",
"1122 997 CURVE SMOOTH",
"1122 915 LINE",
"1360 915 LINE",
"1360 1250 LINE",
"873 1250 LINE"
);
},
{
closed = 1;
nodes = (
"1032 877 LINE",
"1032 1145 LINE",
"808 1145 LINE",
"808 1109 LINE SMOOTH",
"808 950 OFFCURVE",
"735 877 OFFCURVE",
"579 877 CURVE"
);
},
{
closed = 1;
nodes = (
"735 659 OFFCURVE",
"808 586 OFFCURVE",
"808 426 CURVE SMOOTH",
"808 285 LINE",
"1032 285 LINE",
"1032 659 LINE",
"579 659 LINE"
);
}
);
width = 1408;
}
);
leftKerningGroup = I;
leftMetricsKey = I;
rightKerningGroup = F;
unicode = 0046;
},
{
glyphname = G;
lastChange = "2020-09-15 06:43:15 +0000";
layers = (
{
layerId = "CA54B7DC-FBBB-40FE-ACF3-AABDD76D6A7B";
paths = (
{
closed = 1;
nodes = (
"1378 990 LINE",
"1361 1277 OFFCURVE",
"1172 1460 OFFCURVE",
"838 1460 CURVE SMOOTH",
"456 1460 OFFCURVE",
"168 1188 OFFCURVE",
"168 720 CURVE SMOOTH",
"168 252 OFFCURVE",
"462 -20 OFFCURVE",
"852 -20 CURVE SMOOTH",
"1242 -20 OFFCURVE",
"1432 258 OFFCURVE",
"1432 632 CURVE",
"1392 632 LINE",
"1392 302 OFFCURVE",
"1216 24 OFFCURVE",
"852 24 CURVE SMOOTH",
"488 24 OFFCURVE",
"216 296 OFFCURVE",
"216 720 CURVE SMOOTH",
"216 1144 OFFCURVE",
"484 1416 OFFCURVE",
"838 1416 CURVE SMOOTH",
"1169 1416 OFFCURVE",
"1320 1223 OFFCURVE",
"1340 990 CURVE"
);
},
{
closed = 1;
nodes = (
"1352 1440 LINE",
"1352 1044 LINE",
"1378 990 LINE",
"1396 990 LINE",
"1396 1440 LINE"
);
},
{
closed = 1;
nodes = (
"832 632 LINE",
"1636 632 LINE",
"1636 674 LINE",
"832 674 LINE"
);
},
{
closed = 1;
nodes = (
"1392 632 LINE",
"1392 0 LINE",
"1438 0 LINE",
"1438 632 LINE"
);
}
);
width = 1686;
},
{
layerId = "1E61A082-F045-49A7-AB52-DD1B03FD9B54";
paths = (
{
closed = 1;
nodes = (
"1384 940 LINE",
"1366 1262 OFFCURVE",
"1170 1460 OFFCURVE",
"826 1460 CURVE SMOOTH",
"433 1460 OFFCURVE",
"134 1188 OFFCURVE",
"134 720 CURVE SMOOTH",
"134 252 OFFCURVE",
"437 -20 OFFCURVE",
"838 -20 CURVE SMOOTH",
"1235 -20 OFFCURVE",
"1430 258 OFFCURVE",
"1430 632 CURVE",
"1390 632 LINE",
"1390 302 OFFCURVE",
"1209 24 OFFCURVE",
"838 24 CURVE SMOOTH",
"463 24 OFFCURVE",
"182 296 OFFCURVE",
"182 720 CURVE SMOOTH",
"182 1144 OFFCURVE",
"461 1416 OFFCURVE",
"826 1416 CURVE SMOOTH",
"1170 1416 OFFCURVE",
"1326 1205 OFFCURVE",
"1346 940 CURVE"
);
},
{
closed = 1;
nodes = (
"1358 1440 LINE",
"1358 994 LINE",
"1384 940 LINE",
"1402 940 LINE",
"1402 1440 LINE"
);
},
{
closed = 1;
nodes = (
"774 632 LINE",
"1634 632 LINE",
"1634 672 LINE",
"774 672 LINE"
);
},
{
closed = 1;
nodes = (
"1390 632 LINE",
"1390 0 LINE",
"1434 0 LINE",
"1434 632 LINE"
);
}
);
width = 1656;
},
{
layerId = "642E5713-E15A-4A7E-A28E-9A6B75A6585C";
paths = (
{
closed = 1;
nodes = (
"1404 910 LINE",
"1387 1272 OFFCURVE",
"1192 1480 OFFCURVE",
"810 1480 CURVE SMOOTH",
"391 1480 OFFCURVE",
"68 1204 OFFCURVE",
"68 730 CURVE SMOOTH",
"68 256 OFFCURVE",
"391 -20 OFFCURVE",
"810 -20 CURVE SMOOTH",
"1218 -20 OFFCURVE",
"1396 243 OFFCURVE",
"1407 552 CURVE",
"1298 552 LINE",
"1281 358 OFFCURVE",
"1170 170 OFFCURVE",
"872 170 CURVE SMOOTH",
"585 170 OFFCURVE",
"386 388 OFFCURVE",
"386 730 CURVE SMOOTH",
"386 1088 OFFCURVE",
"581 1316 OFFCURVE",
"858 1316 CURVE SMOOTH",
"1140 1316 OFFCURVE",
"1267 1127 OFFCURVE",
"1284 910 CURVE"
);
},
{
closed = 1;
nodes = (
"1288 1460 LINE",
"1288 1084 LINE",
"1404 910 LINE",
"1450 910 LINE",
"1450 1460 LINE"
);
},
{
closed = 1;
nodes = (
"843 552 LINE",
"1640 552 LINE",
"1640 712 LINE",
"843 712 LINE"
);
},
{
closed = 1;
nodes = (
"1304 552 LINE",
"1304 0 LINE",
"1474 0 LINE",
"1474 552 LINE"
);
}
);
width = 1678;
},
{
layerId = "AF891779-7DE6-4679-9CA2-17B922C1DF84";
paths = (
{
closed = 1;
nodes = (
"1392 970 LINE",
"1363 1272 OFFCURVE",
"1192 1480 OFFCURVE",
"814 1480 CURVE SMOOTH",
"410 1480 OFFCURVE",
"98 1204 OFFCURVE",
"98 730 CURVE SMOOTH",
"98 256 OFFCURVE",
"411 -20 OFFCURVE",
"816 -20 CURVE SMOOTH",
"1195 -20 OFFCURVE",
"1368 239 OFFCURVE",
"1378 544 CURVE",
"1238 544 LINE",
"1222 366 OFFCURVE",
"1125 194 OFFCURVE",
"864 194 CURVE SMOOTH",
"601 194 OFFCURVE",
"416 403 OFFCURVE",
"416 730 CURVE SMOOTH",
"416 1073 OFFCURVE",
"601 1292 OFFCURVE",
"860 1292 CURVE SMOOTH",
"1115 1292 OFFCURVE",
"1229 1142 OFFCURVE",
"1244 970 CURVE"
);
},
{
closed = 1;
nodes = (
"1246 1460 LINE",
"1246 1160 LINE",
"1392 970 LINE",
"1432 970 LINE",
"1432 1460 LINE"
);
},
{
closed = 1;
nodes = (
"845 544 LINE",
"1622 544 LINE",
"1622 724 LINE",
"845 724 LINE"
);
},
{
closed = 1;
nodes = (
"1258 544 LINE",
"1258 0 LINE",
"1448 0 LINE",
"1448 544 LINE"
);
}
);
width = 1676;
},
{
layerId = "219068EA-2B9B-40DC-949E-B60449C01B8A";
paths = (
{
closed = 1;
nodes = (
"1399 959 LINE",
"1364 1269 OFFCURVE",
"1203 1491 OFFCURVE",
"801 1491 CURVE SMOOTH",
"385 1491 OFFCURVE",
"61 1213 OFFCURVE",
"61 735 CURVE SMOOTH",
"61 258 OFFCURVE",
"384 -20 OFFCURVE",
"797 -20 CURVE SMOOTH",
"1170 -20 OFFCURVE",
"1334 229 OFFCURVE",
"1349 497 CURVE",
"1156 497 LINE",
"1131 400 OFFCURVE",
"1076 285 OFFCURVE",
"870 285 CURVE SMOOTH",
"661 285 OFFCURVE",
"523 460 OFFCURVE",
"523 735 CURVE SMOOTH",
"523 1035 OFFCURVE",
"663 1226 OFFCURVE",
"872 1226 CURVE SMOOTH",
"1086 1226 OFFCURVE",
"1180 1099 OFFCURVE",
"1193 959 CURVE"
);
},
{
closed = 1;
nodes = (
"1189 1471 LINE",
"1189 1222 LINE",
"1399 959 LINE",
"1451 959 LINE",
"1451 1471 LINE"
);
},
{
closed = 1;
nodes = (
"852 497 LINE",
"1615 497 LINE",
"1615 751 LINE",
"852 751 LINE"
);
},
{
closed = 1;
nodes = (
"1187 497 LINE",
"1187 0 LINE",
"1453 0 LINE",
"1453 497 LINE"
);
}
);
width = 1671;
},
{
layerId = "0C29AA02-E021-4BD1-A2C4-87F681D64C35";
paths = (
{
closed = 1;
nodes = (
"1415 894 LINE",
"1398 1277 OFFCURVE",
"1204 1491 OFFCURVE",
"801 1491 CURVE SMOOTH",
"369 1491 OFFCURVE",
"33 1213 OFFCURVE",
"33 735 CURVE SMOOTH",
"33 258 OFFCURVE",
"366 -20 OFFCURVE",
"795 -20 CURVE SMOOTH",
"1209 -20 OFFCURVE",
"1378 235 OFFCURVE",
"1395 509 CURVE",
"1249 509 LINE",
"1223 388 OFFCURVE",
"1149 248 OFFCURVE",
"890 248 CURVE SMOOTH",
"650 248 OFFCURVE",
"495 437 OFFCURVE",
"495 735 CURVE SMOOTH",
"495 1058 OFFCURVE",
"645 1263 OFFCURVE",
"875 1263 CURVE SMOOTH",
"1124 1263 OFFCURVE",
"1236 1085 OFFCURVE",
"1251 894 CURVE"
);
},
{
closed = 1;
nodes = (
"1251 1471 LINE",
"1251 1132 LINE",
"1415 894 LINE",
"1476 894 LINE",
"1476 1471 LINE"
);
},
{
closed = 1;
nodes = (
"880 509 LINE",
"1643 509 LINE",
"1643 733 LINE",
"880 733 LINE"
);
},
{
closed = 1;
nodes = (
"1258 509 LINE",
"1258 0 LINE",
"1495 0 LINE",
"1495 509 LINE"
);
}
);
width = 1690;
}
);
leftKerningGroup = O;
leftMetricsKey = O;
rightKerningGroup = G;
unicode = 0047;
},
{
glyphname = H;
lastChange = "2020-09-15 06:43:15 +0000";
layers = (
{
hints = (
{
origin = "{1, 0}";
scale = "{0.96, 1}";
type = Corner;
name = _corner.Serif;
},
{
origin = "{1, 1}";
scale = "{-0.96, 1}";
type = Corner;
name = _corner.Serif;
},
{
origin = "{1, 2}";
type = Corner;
name = _corner.Serif;
options = 1;
},
{
origin = "{1, 3}";
scale = "{-1, 1}";
type = Corner;
name = _corner.Serif;
},
{
origin = "{2, 0}";
scale = "{0.96, 1}";
type = Corner;
name = _corner.Serif;
},
{
origin = "{2, 1}";
scale = "{-0.96, 1}";
type = Corner;
name = _corner.Serif;
},
{
origin = "{2, 2}";
type = Corner;
name = _corner.Serif;
options = 1;
},
{
origin = "{2, 3}";
scale = "{-1, 1}";
type = Corner;
name = _corner.Serif;
}
);
layerId = "CA54B7DC-FBBB-40FE-ACF3-AABDD76D6A7B";
paths = (
{
closed = 1;
nodes = (
"1306 752 LINE",
"402 752 LINE",
"402 710 LINE",
"1306 710 LINE"
);
},
{
closed = 1;
nodes = (
"402 1440 LINE",
"354 1440 LINE",
"354 0 LINE",
"402 0 LINE"
);
},
{
closed = 1;
nodes = (
"1354 1440 LINE",
"1306 1440 LINE",
"1306 0 LINE",
"1354 0 LINE"
);
}
);
width = 1708;
},
{
hints = (
{
origin = "{1, 0}";
scale = "{1.06, 1}";
type = Corner;
name = _corner.Serif;
},
{
origin = "{1, 1}";
scale = "{-0.96, 1}";
type = Corner;
name = _corner.Serif;
},
{
origin = "{1, 2}";
type = Corner;
name = _corner.Serif;
options = 1;
},
{
origin = "{1, 3}";
scale = "{-1.1, 1}";
type = Corner;
name = _corner.Serif;
},
{
origin = "{2, 0}";
scale = "{0.96, 1}";
type = Corner;
name = _corner.Serif;
},
{
origin = "{2, 1}";
scale = "{-1.06, 1}";
type = Corner;
name = _corner.Serif;
},
{
origin = "{2, 2}";
scale = "{1.1, 1}";
type = Corner;
name = _corner.Serif;
options = 1;
},
{
origin = "{2, 3}";
scale = "{-1, 1}";
type = Corner;
name = _corner.Serif;
}
);
layerId = "1E61A082-F045-49A7-AB52-DD1B03FD9B54";
paths = (
{
closed = 1;
nodes = (
"1244 750 LINE",
"340 750 LINE",
"340 710 LINE",
"1244 710 LINE"
);
},
{
closed = 1;
nodes = (
"340 1440 LINE",
"292 1440 LINE",
"292 0 LINE",
"340 0 LINE"
);
},
{
closed = 1;
nodes = (
"1292 1440 LINE",
"1244 1440 LINE",
"1244 0 LINE",
"1292 0 LINE"
);
}
);
width = 1584;
},
{
hints = (
{
origin = "{1, 0}";
scale = "{1.06, 0.99}";
type = Corner;
name = _corner.Serif;
options = 1;
},
{
origin = "{1, 1}";
scale = "{-0.96, 0.99}";
type = Corner;
name = _corner.Serif;
},
{
origin = "{1, 2}";
type = Corner;
name = _corner.Serif;
options = 1;
},
{
origin = "{1, 3}";
scale = "{-1.1, 1}";
type = Corner;
name = _corner.Serif;
},
{
origin = "{2, 0}";
scale = "{0.96, 0.99}";
type = Corner;
name = _corner.Serif;
options = 1;
},
{
origin = "{2, 1}";
scale = "{-1.06, 0.99}";
type = Corner;
name = _corner.Serif;
},
{
origin = "{2, 2}";
scale = "{1.1, 1}";
type = Corner;
name = _corner.Serif;
options = 1;
},
{
origin = "{2, 3}";
scale = "{-1, 1}";
type = Corner;
name = _corner.Serif;
}
);
layerId = "642E5713-E15A-4A7E-A28E-9A6B75A6585C";
paths = (
{
closed = 1;
nodes = (
"1166 820 LINE",
"560 820 LINE",
"560 660 LINE",
"1166 660 LINE"
);
},
{
closed = 1;
nodes = (
"560 1460 LINE",
"270 1460 LINE",
"270 0 LINE",
"560 0 LINE"
);
},
{
closed = 1;
nodes = (
"1456 1460 LINE",
"1166 1460 LINE",
"1166 0 LINE",
"1456 0 LINE"
);
}
);
width = 1726;
},
{
hints = (
{
origin = "{1, 0}";
scale = "{0.96, 0.98}";
type = Corner;
name = _corner.Serif;
options = 1;
},
{
origin = "{1, 1}";
scale = "{-0.96, 0.98}";
type = Corner;
name = _corner.Serif;
},
{
origin = "{1, 2}";
type = Corner;
name = _corner.Serif;
options = 1;
},
{
origin = "{1, 3}";
scale = "{-1, 1}";
type = Corner;
name = _corner.Serif;
},
{
origin = "{2, 0}";
scale = "{0.96, 0.98}";
type = Corner;
name = _corner.Serif;
options = 1;
},
{
origin = "{2, 1}";
scale = "{-0.96, 0.98}";
type = Corner;
name = _corner.Serif;
},
{
origin = "{2, 2}";
type = Corner;
name = _corner.Serif;
options = 1;
},
{
origin = "{2, 3}";
scale = "{-1, 1}";
type = Corner;
name = _corner.Serif;
}
);
layerId = "AF891779-7DE6-4679-9CA2-17B922C1DF84";
paths = (
{
closed = 1;
nodes = (
"1184 832 LINE",
"578 832 LINE",
"578 648 LINE",
"1184 648 LINE"
);
},
{
closed = 1;
nodes = (
"578 1460 LINE",
"288 1460 LINE",
"288 0 LINE",
"578 0 LINE"
);
},
{
closed = 1;
nodes = (
"1474 1460 LINE",
"1184 1460 LINE",
"1184 0 LINE",
"1474 0 LINE"
);
}
);
width = 1762;
},
{
hints = (
{
origin = "{1, 0}";
scale = "{0.96, 0.96933}";
type = Corner;
name = _corner.Serif;
},
{
origin = "{1, 1}";
scale = "{-0.96, 0.96933}";
type = Corner;
name = _corner.Serif;
},
{
origin = "{1, 2}";
type = Corner;
name = _corner.Serif;
options = 1;
},
{
origin = "{1, 3}";
scale = "{-1, 1}";
type = Corner;
name = _corner.Serif;
},
{
origin = "{2, 0}";
scale = "{0.96, 0.96933}";
type = Corner;
name = _corner.Serif;
},
{
origin = "{2, 1}";
scale = "{-0.96, 0.96933}";
type = Corner;
name = _corner.Serif;
},
{
origin = "{2, 2}";
type = Corner;
name = _corner.Serif;
options = 1;
},
{
origin = "{2, 3}";
scale = "{-1, 1}";
type = Corner;
name = _corner.Serif;
}
);
layerId = "219068EA-2B9B-40DC-949E-B60449C01B8A";
paths = (
{
closed = 1;
nodes = (
"1119 875 LINE",
"672 875 LINE",
"672 615 LINE",
"1119 615 LINE"
);
},
{
closed = 1;
nodes = (
"672 1471 LINE",
"253 1471 LINE",
"253 0 LINE",
"672 0 LINE"
);
},
{
closed = 1;
nodes = (
"1538 1471 LINE",
"1119 1471 LINE",
"1119 0 LINE",
"1538 0 LINE"
);
}
);
width = 1791;
},
{
hints = (
{
origin = "{1, 0}";
scale = "{1.06, 0.98467}";
type = Corner;
name = _corner.Serif;
},
{
origin = "{1, 1}";
scale = "{-0.96, 0.98467}";
type = Corner;
name = _corner.Serif;
},
{
origin = "{1, 2}";
type = Corner;
name = _corner.Serif;
options = 1;
},
{
origin = "{1, 3}";
scale = "{-1.1, 1}";
type = Corner;
name = _corner.Serif;
},
{
origin = "{2, 0}";
scale = "{0.96, 0.98467}";
type = Corner;
name = _corner.Serif;
},
{
origin = "{2, 1}";
scale = "{-1.06, 0.98467}";
type = Corner;
name = _corner.Serif;
},
{
origin = "{2, 2}";
scale = "{1.1, 1}";
type = Corner;
name = _corner.Serif;
options = 1;
},
{
origin = "{2, 3}";
scale = "{-1, 1}";
type = Corner;
name = _corner.Serif;
}
);
layerId = "0C29AA02-E021-4BD1-A2C4-87F681D64C35";
paths = (
{
closed = 1;
nodes = (
"1124 857 LINE",
"677 857 LINE",
"677 633 LINE",
"1124 633 LINE"
);
},
{
closed = 1;
nodes = (
"677 1471 LINE",
"258 1471 LINE",
"258 0 LINE",
"677 0 LINE"
);
},
{
closed = 1;
nodes = (
"1543 1471 LINE",
"1124 1471 LINE",
"1124 0 LINE",
"1543 0 LINE"
);
}
);
width = 1802;
}
);
leftKerningGroup = I;
leftMetricsKey = I;
rightKerningGroup = I;
rightMetricsKey = I;
unicode = 0048;
},
{
glyphname = I;
lastChange = "2020-09-15 06:43:15 +0000";
layers = (
{
hints = (
{
origin = "{0, 3}";
scale = "{0.96, 1}";
type = Corner;
name = _corner.Serif;
},
{
origin = "{0, 0}";
scale = "{-0.96, 1}";
type = Corner;
name = _corner.Serif;
},
{
origin = "{0, 1}";
type = Corner;
name = _corner.Serif;
options = 1;
},
{
origin = "{0, 2}";
scale = "{-1, 1}";
type = Corner;
name = _corner.Serif;
}
);
layerId = "CA54B7DC-FBBB-40FE-ACF3-AABDD76D6A7B";
paths = (
{
closed = 1;
nodes = (
"354 1440 LINE",
"354 0 LINE",
"402 0 LINE",
"402 1440 LINE"
);
}
);
width = 756;
},
{
hints = (
{
origin = "{0, 0}";
scale = "{-0.96, 1}";
type = Corner;
name = _corner.Serif;
},
{
origin = "{0, 1}";
type = Corner;
name = _corner.Serif;
options = 1;
},
{
origin = "{0, 2}";
scale = "{-1, 1}";
type = Corner;
name = _corner.Serif;
},
{
origin = "{0, 3}";
scale = "{0.96, 1}";
type = Corner;
name = _corner.Serif;
}
);
layerId = "1E61A082-F045-49A7-AB52-DD1B03FD9B54";
paths = (
{
closed = 1;
nodes = (
"292 1440 LINE",
"292 0 LINE",
"340 0 LINE",
"340 1440 LINE"
);
}
);
width = 632;
},
{
hints = (
{
origin = "{0, 3}";
scale = "{0.96, 0.99}";
type = Corner;
name = _corner.Serif;
options = 1;
},
{
origin = "{0, 0}";
scale = "{-0.96, 0.99}";
type = Corner;
name = _corner.Serif;
},
{
origin = "{0, 1}";
type = Corner;
name = _corner.Serif;
options = 1;
},
{
origin = "{0, 2}";
scale = "{-1, 1}";
type = Corner;
name = _corner.Serif;
}
);
layerId = "642E5713-E15A-4A7E-A28E-9A6B75A6585C";
paths = (
{
closed = 1;
nodes = (
"270 1460 LINE",
"270 0 LINE",
"560 0 LINE",
"560 1460 LINE"
);
}
);
width = 830;
},
{
hints = (
{
origin = "{0, 0}";
scale = "{-0.96, 0.98}";
type = Corner;
name = _corner.Serif;
},
{
origin = "{0, 1}";
type = Corner;
name = _corner.Serif;
options = 1;
},
{
origin = "{0, 2}";
scale = "{-1, 1}";
type = Corner;
name = _corner.Serif;
},
{
origin = "{0, 3}";
scale = "{0.96, 0.98}";
type = Corner;
name = _corner.Serif;
options = 1;
}
);
layerId = "AF891779-7DE6-4679-9CA2-17B922C1DF84";
paths = (
{
closed = 1;
nodes = (
"288 1460 LINE",
"288 0 LINE",
"578 0 LINE",
"578 1460 LINE"
);
}
);
width = 866;
},
{
hints = (
{
origin = "{0, 3}";
scale = "{0.96, 0.96933}";
type = Corner;
name = _corner.Serif;
},
{
origin = "{0, 0}";
scale = "{-0.96, 0.96933}";
type = Corner;
name = _corner.Serif;
},
{
origin = "{0, 1}";
type = Corner;
name = _corner.Serif;
options = 1;
},
{
origin = "{0, 2}";
scale = "{-1, 1}";
type = Corner;
name = _corner.Serif;
}
);
layerId = "219068EA-2B9B-40DC-949E-B60449C01B8A";
paths = (
{
closed = 1;
nodes = (
"253 1471 LINE",
"253 0 LINE",
"672 0 LINE",
"672 1471 LINE"
);
}
);
width = 925;
},
{
hints = (
{
origin = "{0, 0}";
scale = "{-0.96, 0.98467}";
type = Corner;
name = _corner.Serif;
},
{
origin = "{0, 1}";
type = Corner;
name = _corner.Serif;
options = 1;
},
{
origin = "{0, 2}";
scale = "{-1, 1}";
type = Corner;
name = _corner.Serif;
},
{
origin = "{0, 3}";
scale = "{0.96, 0.98467}";
type = Corner;
name = _corner.Serif;
}
);
layerId = "0C29AA02-E021-4BD1-A2C4-87F681D64C35";
paths = (
{
closed = 1;
nodes = (
"258 1471 LINE",
"258 0 LINE",
"677 0 LINE",
"677 1471 LINE"
);
}
);
width = 936;
}
);
leftKerningGroup = I;
rightKerningGroup = I;
unicode = 0049;
},
{
glyphname = J;
lastChange = "2020-09-15 07:05:25 +0000";
layers = (
{
hints = (
{
origin = "{0, 17}";
scale = "{0.96, 1}";
type = Corner;
name = _corner.Serif;
},
{
origin = "{0, 0}";
scale = "{-1.16, 1}";
type = Corner;
name = _corner.Serif;
options = 1;
}
);
layerId = "CA54B7DC-FBBB-40FE-ACF3-AABDD76D6A7B";
paths = (
{
closed = 1;
nodes = (
"820 1440 LINE",
"820 396 LINE SMOOTH",
"820 150 OFFCURVE",
"694 24 OFFCURVE",
"490 24 CURVE SMOOTH",
"286 24 OFFCURVE",
"158 150 OFFCURVE",
"158 396 CURVE SMOOTH",
"158 460 LINE",
"114 460 LINE",
"114 392 LINE SMOOTH",
"114 114 OFFCURVE",
"263 -16 OFFCURVE",
"491 -16 CURVE SMOOTH",
"719 -16 OFFCURVE",
"868 114 OFFCURVE",
"868 400 CURVE SMOOTH",
"868 1440 LINE"
);
}
);
width = 1182;
},
{
hints = (
{
origin = "{0, 17}";
scale = "{0.96, 1}";
type = Corner;
name = _corner.Serif;
},
{
origin = "{0, 0}";
scale = "{-1.36, 1}";
type = Corner;
name = _corner.Serif;
options = 1;
}
);
layerId = "1E61A082-F045-49A7-AB52-DD1B03FD9B54";
paths = (
{
closed = 1;
nodes = (
"788 1440 LINE",
"788 396 LINE SMOOTH",
"788 150 OFFCURVE",
"662 24 OFFCURVE",
"458 24 CURVE SMOOTH",
"254 24 OFFCURVE",
"128 150 OFFCURVE",
"128 396 CURVE SMOOTH",
"128 560 LINE",
"84 560 LINE",
"84 392 LINE SMOOTH",
"84 114 OFFCURVE",
"232 -16 OFFCURVE",
"460 -16 CURVE SMOOTH",
"688 -16 OFFCURVE",
"836 114 OFFCURVE",
"836 400 CURVE SMOOTH",
"836 1440 LINE"
);
}
);
width = 1099;
},
{
hints = (
{
origin = "{0, 17}";
scale = "{0.96, 0.99}";
type = Corner;
name = _corner.Serif;
},
{
origin = "{0, 0}";
scale = "{-1.36, 0.99}";
type = Corner;
name = _corner.Serif;
options = 1;
}
);
layerId = "642E5713-E15A-4A7E-A28E-9A6B75A6585C";
paths = (
{
closed = 1;
nodes = (
"638 1460 LINE",
"638 436 LINE SMOOTH",
"638 278 OFFCURVE",
"575 184 OFFCURVE",
"426 184 CURVE SMOOTH",
"277 184 OFFCURVE",
"206 278 OFFCURVE",
"206 430 CURVE SMOOTH",
"206 558 LINE",
"38 558 LINE",
"38 424 LINE SMOOTH",
"38 135 OFFCURVE",
"192 -20 OFFCURVE",
"479 -20 CURVE SMOOTH",
"770 -20 OFFCURVE",
"928 138 OFFCURVE",
"928 424 CURVE SMOOTH",
"928 1460 LINE"
);
}
);
width = 1154;
},
{
hints = (
{
origin = "{0, 0}";
scale = "{-1.16, 0.98}";
type = Corner;
name = _corner.Serif;
options = 1;
},
{
origin = "{0, 17}";
scale = "{0.96, 0.98}";
type = Corner;
name = _corner.Serif;
}
);
layerId = "AF891779-7DE6-4679-9CA2-17B922C1DF84";
paths = (
{
closed = 1;
nodes = (
"701 1460 LINE",
"701 437 LINE SMOOTH",
"701 287 OFFCURVE",
"641 198 OFFCURVE",
"498 198 CURVE SMOOTH",
"354 198 OFFCURVE",
"285 287 OFFCURVE",
"285 431 CURVE SMOOTH",
"285 480 LINE",
"91 480 LINE",
"91 424 LINE SMOOTH",
"91 135 OFFCURVE",
"247 -20 OFFCURVE",
"537 -20 CURVE SMOOTH",
"831 -20 OFFCURVE",
"991 138 OFFCURVE",
"991 424 CURVE SMOOTH",
"991 1460 LINE"
);
}
);
width = 1238;
},
{
hints = (
{
origin = "{0, 17}";
scale = "{0.96, 0.96933}";
type = Corner;
name = _corner.Serif;
},
{
origin = "{0, 0}";
scale = "{-1.16, 0.96933}";
type = Corner;
name = _corner.Serif;
options = 1;
}
);
layerId = "219068EA-2B9B-40DC-949E-B60449C01B8A";
paths = (
{
closed = 1;
nodes = (
"638 1471 LINE",
"638 459 LINE SMOOTH",
"638 360 OFFCURVE",
"613 291 OFFCURVE",
"502 291 CURVE SMOOTH",
"390 291 OFFCURVE",
"353 360 OFFCURVE",
"353 450 CURVE SMOOTH",
"353 491 LINE",
"79 491 LINE",
"79 441 LINE SMOOTH",
"79 146 OFFCURVE",
"238 -22 OFFCURVE",
"562 -22 CURVE SMOOTH",
"891 -22 OFFCURVE",
"1057 151 OFFCURVE",
"1057 437 CURVE SMOOTH",
"1057 1471 LINE"
);
}
);
width = 1290;
},
{
hints = (
{
origin = "{0, 17}";
scale = "{0.96, 0.98467}";
type = Corner;
name = _corner.Serif;
},
{
origin = "{0, 0}";
scale = "{-1.36, 0.98467}";
type = Corner;
name = _corner.Serif;
options = 1;
}
);
layerId = "0C29AA02-E021-4BD1-A2C4-87F681D64C35";
paths = (
{
closed = 1;
nodes = (
"558 1471 LINE",
"558 457 LINE SMOOTH",
"558 346 OFFCURVE",
"529 269 OFFCURVE",
"409 269 CURVE SMOOTH",
"289 269 OFFCURVE",
"248 346 OFFCURVE",
"248 448 CURVE SMOOTH",
"248 557 LINE",
"13 557 LINE",
"13 441 LINE SMOOTH",
"13 146 OFFCURVE",
"171 -22 OFFCURVE",
"489 -22 CURVE SMOOTH",
"814 -22 OFFCURVE",
"977 151 OFFCURVE",
"977 437 CURVE SMOOTH",
"977 1471 LINE"
);
}
);
width = 1230;
}
);
leftKerningGroup = J;
rightKerningGroup = U;
rightMetricsKey = U;
unicode = 004A;
},
{
glyphname = K;
lastChange = "2020-09-15 06:45:59 +0000";
layers = (
{
hints = (
{
origin = "{0, 0}";
scale = "{-0.96, 1}";
type = Corner;
name = _corner.Serif;
},
{
origin = "{0, 1}";
type = Corner;
name = _corner.Serif;
options = 1;
},
{
origin = "{0, 2}";
scale = "{-1, 1}";
type = Corner;
name = _corner.Serif;
},
{
origin = "{0, 3}";
scale = "{0.96, 1}";
type = Corner;
name = _corner.Serif;
},
{
origin = "{1, 0}";
scale = "{-1.16, 1}";
type = Corner;
name = _corner.Serif;
options = 1;
},
{
origin = "{1, 3}";
scale = "{0.46, 1}";
type = Corner;
name = _corner.Serif;
},
{
origin = "{2, 2}";
scale = "{1.2, 1}";
type = Corner;
name = _corner.Serif;
},
{
origin = "{2, 3}";
scale = "{-0.5, 1}";
type = Corner;
name = _corner.Serif;
options = 1;
}
);
layerId = "CA54B7DC-FBBB-40FE-ACF3-AABDD76D6A7B";
paths = (
{
closed = 1;
nodes = (
"354 1440 LINE",
"354 0 LINE",
"402 0 LINE",
"402 1440 LINE"
);
},
{
closed = 1;
nodes = (
"1305 1440 LINE",
"368 586 LINE",
"393 552 LINE",
"1370 1440 LINE"
);
},
{
closed = 1;
nodes = (
"661 816 LINE",
"628 784 LINE",
"1355 0 LINE",
"1420 0 LINE"
);
}
);
width = 1619;
},
{
hints = (
{
origin = "{0, 0}";
scale = "{-0.96, 1}";
type = Corner;
name = _corner.Serif;
},
{
origin = "{0, 1}";
type = Corner;
name = _corner.Serif;
options = 1;
},
{
origin = "{0, 2}";
scale = "{-1, 1}";
type = Corner;
name = _corner.Serif;
},
{
origin = "{0, 3}";
scale = "{0.96, 1}";
type = Corner;
name = _corner.Serif;
},
{
origin = "{1, 0}";
scale = "{-1.16, 1}";
type = Corner;
name = _corner.Serif;
options = 1;
},
{
origin = "{1, 3}";
scale = "{0.46, 1}";
type = Corner;
name = _corner.Serif;
},
{
origin = "{2, 2}";
scale = "{1.2, 1}";
type = Corner;
name = _corner.Serif;
},
{
origin = "{2, 3}";
scale = "{-0.5, 1}";
type = Corner;
name = _corner.Serif;
options = 1;
}
);
layerId = "1E61A082-F045-49A7-AB52-DD1B03FD9B54";
paths = (
{
closed = 1;
nodes = (
"292 1440 LINE",
"292 0 LINE",
"340 0 LINE",
"340 1440 LINE"
);
},
{
closed = 1;
nodes = (
"1245 1440 LINE",
"306 585 LINE",
"331 554 LINE",
"1308 1440 LINE"
);
},
{
closed = 1;
nodes = (
"599 816 LINE",
"566 784 LINE",
"1293 0 LINE",
"1358 0 LINE"
);
}
);
width = 1525;
},
{
hints = (
{
origin = "{0, 0}";
scale = "{-0.96, 0.99}";
type = Corner;
name = _corner.Serif;
},
{
origin = "{0, 1}";
type = Corner;
name = _corner.Serif;
options = 1;
},
{
origin = "{0, 2}";
scale = "{-0.9, 1}";
type = Corner;
name = _corner.Serif;
},
{
origin = "{0, 3}";
scale = "{0.88, 0.99}";
type = Corner;
name = _corner.Serif;
options = 1;
},
{
origin = "{1, 0}";
scale = "{-1.84, 0.99}";
type = Corner;
name = _corner.Serif;
options = 1;
},
{
origin = "{1, 3}";
scale = "{0.02, 0.99}";
type = Corner;
name = _corner.Serif;
},
{
origin = "{2, 2}";
scale = "{1.4, 1}";
type = Corner;
name = _corner.Serif;
},
{
origin = "{2, 3}";
scale = "{-0.02, 1}";
type = Corner;
name = _corner.Serif;
options = 1;
}
);
layerId = "642E5713-E15A-4A7E-A28E-9A6B75A6585C";
rightMetricsKey = "=X-10";
paths = (
{
closed = 1;
nodes = (
"270 1460 LINE",
"270 0 LINE",
"560 0 LINE",
"560 1460 LINE"
);
},
{
closed = 1;
nodes = (
"1279 1460 LINE",
"399 601 LINE",
"503 474 LINE",
"1518 1460 LINE"
);
},
{
closed = 1;
nodes = (
"829 910 LINE",
"628 722 LINE",
"1178 0 LINE",
"1544 0 LINE"
);
}
);
width = 1592;
},
{
hints = (
{
origin = "{0, 0}";
scale = "{-0.96, 0.98}";
type = Corner;
name = _corner.Serif;
},
{
origin = "{0, 1}";
type = Corner;
name = _corner.Serif;
options = 1;
},
{
origin = "{0, 2}";
scale = "{-0.82, 1}";
type = Corner;
name = _corner.Serif;
},
{
origin = "{0, 3}";
scale = "{0.8, 0.98}";
type = Corner;
name = _corner.Serif;
options = 1;
},
{
origin = "{1, 0}";
scale = "{-1.96, 0.98}";
type = Corner;
name = _corner.Serif;
options = 1;
},
{
origin = "{1, 3}";
scale = "{0.02, 0.98}";
type = Corner;
name = _corner.Serif;
},
{
origin = "{2, 2}";
scale = "{1.46, 1}";
type = Corner;
name = _corner.Serif;
},
{
origin = "{2, 3}";
scale = "{-0.02, 1}";
type = Corner;
name = _corner.Serif;
options = 1;
}
);
layerId = "AF891779-7DE6-4679-9CA2-17B922C1DF84";
rightMetricsKey = "=X-10";
paths = (
{
closed = 1;
nodes = (
"288 1460 LINE",
"288 0 LINE",
"578 0 LINE",
"578 1460 LINE"
);
},
{
closed = 1;
nodes = (
"1273 1460 LINE",
"407 600 LINE",
"531 468 LINE",
"1542 1460 LINE"
);
},
{
closed = 1;
nodes = (
"847 910 LINE",
"646 722 LINE",
"1196 0 LINE",
"1562 0 LINE"
);
}
);
width = 1636;
},
{
hints = (
{
origin = "{0, 0}";
scale = "{-0.96, 0.96933}";
type = Corner;
name = _corner.Serif;
},
{
origin = "{0, 1}";
type = Corner;
name = _corner.Serif;
options = 1;
},
{
origin = "{0, 2}";
scale = "{-0.724, 1}";
type = Corner;
name = _corner.Serif;
},
{
origin = "{0, 3}";
scale = "{0.71467, 0.96933}";
type = Corner;
name = _corner.Serif;
},
{
origin = "{1, 0}";
scale = "{-2.38667, 0.96933}";
type = Corner;
name = _corner.Serif;
options = 1;
},
{
origin = "{1, 3}";
scale = "{-0.21467, 0.96933}";
type = Corner;
name = _corner.Serif;
},
{
origin = "{2, 2}";
scale = "{1.59867, 1}";
type = Corner;
name = _corner.Serif;
},
{
origin = "{2, 3}";
scale = "{0.236, 1}";
type = Corner;
name = _corner.Serif;
options = 1;
}
);
layerId = "219068EA-2B9B-40DC-949E-B60449C01B8A";
paths = (
{
closed = 1;
nodes = (
"253 1471 LINE",
"253 0 LINE",
"672 0 LINE",
"672 1471 LINE"
);
},
{
closed = 1;
nodes = (
"1256 1471 LINE",
"428 607 LINE",
"605 423 LINE",
"1634 1471 LINE"
);
},
{
closed = 1;
nodes = (
"946 960 LINE",
"656 689 LINE",
"1111 0 LINE",
"1638 0 LINE"
);
}
);
width = 1660;
},
{
hints = (
{
origin = "{0, 0}";
scale = "{-0.96, 0.98467}";
type = Corner;
name = _corner.Serif;
},
{
origin = "{0, 1}";
type = Corner;
name = _corner.Serif;
options = 1;
},
{
origin = "{0, 2}";
scale = "{-0.84667, 1}";
type = Corner;
name = _corner.Serif;
},
{
origin = "{0, 3}";
scale = "{0.83733, 0.98467}";
type = Corner;
name = _corner.Serif;
},
{
origin = "{1, 0}";
scale = "{-2.20267, 0.98467}";
type = Corner;
name = _corner.Serif;
options = 1;
},
{
origin = "{1, 3}";
scale = "{-0.21467, 0.98467}";
type = Corner;
name = _corner.Serif;
},
{
origin = "{2, 2}";
scale = "{1.50667, 1}";
type = Corner;
name = _corner.Serif;
},
{
origin = "{2, 3}";
scale = "{0.236, 1}";
type = Corner;
name = _corner.Serif;
options = 1;
}
);
layerId = "0C29AA02-E021-4BD1-A2C4-87F681D64C35";
paths = (
{
closed = 1;
nodes = (
"258 1471 LINE",
"258 0 LINE",
"677 0 LINE",
"677 1471 LINE"
);
},
{
closed = 1;
nodes = (
"1297 1471 LINE",
"449 610 LINE",
"595 431 LINE",
"1630 1471 LINE"
);
},
{
closed = 1;
nodes = (
"952 960 LINE",
"661 689 LINE",
"1117 0 LINE",
"1643 0 LINE"
);
}
);
width = 1643;
}
);
leftKerningGroup = I;
leftMetricsKey = I;
rightKerningGroup = K;
rightMetricsKey = X;
unicode = 004B;
},
{
glyphname = L;
lastChange = "2020-09-15 06:43:15 +0000";
layers = (
{
hints = (
{
origin = "{1, 1}";
scale = "{-0.96, 1}";
type = Corner;
name = _corner.Serif;
},
{
origin = "{1, 2}";
type = Corner;
name = _corner.Serif;
options = 1;
},
{
origin = "{1, 0}";
scale = "{1.16, 1}";
type = Corner;
name = _corner.Serif;
}
);
layerId = "CA54B7DC-FBBB-40FE-ACF3-AABDD76D6A7B";
paths = (
{
closed = 1;
nodes = (
"1274 40 LINE",
"402 40 LINE",
"402 0 LINE",
"1274 0 LINE"
);
},
{
closed = 1;
nodes = (
"402 1440 LINE",
"354 1440 LINE",
"354 0 LINE",
"402 0 LINE"
);
},
{
closed = 1;
nodes = (
"1274 40 LINE",
"1274 460 LINE",
"1231 460 LINE",
"1231 170 LINE SMOOTH",
"1231 66 OFFCURVE",
"1205 40 OFFCURVE",
"1105 40 CURVE"
);
}
);
width = 1400;
},
{
hints = (
{
origin = "{1, 1}";
scale = "{-0.96, 1}";
type = Corner;
name = _corner.Serif;
},
{
origin = "{1, 2}";
type = Corner;
name = _corner.Serif;
options = 1;
},
{
origin = "{1, 0}";
scale = "{1.36, 1}";
type = Corner;
name = _corner.Serif;
}
);
layerId = "1E61A082-F045-49A7-AB52-DD1B03FD9B54";
paths = (
{
closed = 1;
nodes = (
"1212 40 LINE",
"340 40 LINE",
"340 0 LINE",
"1212 0 LINE"
);
},
{
closed = 1;
nodes = (
"340 1440 LINE",
"292 1440 LINE",
"292 0 LINE",
"340 0 LINE"
);
},
{
closed = 1;
nodes = (
"1212 40 LINE",
"1212 560 LINE",
"1170 560 LINE",
"1170 170 LINE SMOOTH",
"1170 66 OFFCURVE",
"1144 40 OFFCURVE",
"1044 40 CURVE"
);
}
);
width = 1318;
},
{
hints = (
{
origin = "{1, 1}";
scale = "{-0.96, 0.99}";
type = Corner;
name = _corner.Serif;
},
{
origin = "{1, 2}";
type = Corner;
name = _corner.Serif;
options = 1;
},
{
origin = "{1, 0}";
scale = "{1.36, 0.99}";
type = Corner;
name = _corner.Serif;
}
);
layerId = "642E5713-E15A-4A7E-A28E-9A6B75A6585C";
paths = (
{
closed = 1;
nodes = (
"1296 160 LINE",
"560 160 LINE",
"560 0 LINE",
"1296 0 LINE"
);
},
{
closed = 1;
nodes = (
"560 1460 LINE",
"270 1460 LINE",
"270 0 LINE",
"560 0 LINE"
);
},
{
closed = 1;
nodes = (
"1296 160 LINE",
"1296 560 LINE",
"1126 560 LINE",
"1126 370 LINE SMOOTH",
"1126 222 OFFCURVE",
"1064 160 OFFCURVE",
"920 160 CURVE"
);
}
);
width = 1364;
},
{
hints = (
{
origin = "{1, 1}";
scale = "{-0.96, 0.98}";
type = Corner;
name = _corner.Serif;
},
{
origin = "{1, 2}";
type = Corner;
name = _corner.Serif;
options = 1;
},
{
origin = "{1, 0}";
scale = "{1.16, 0.98}";
type = Corner;
name = _corner.Serif;
}
);
layerId = "AF891779-7DE6-4679-9CA2-17B922C1DF84";
paths = (
{
closed = 1;
nodes = (
"1314 184 LINE",
"578 184 LINE",
"578 0 LINE",
"1314 0 LINE"
);
},
{
closed = 1;
nodes = (
"578 1460 LINE",
"288 1460 LINE",
"288 0 LINE",
"578 0 LINE"
);
},
{
closed = 1;
nodes = (
"1314 184 LINE",
"1314 470 LINE",
"1124 470 LINE",
"1124 394 LINE SMOOTH",
"1124 246 OFFCURVE",
"1062 184 OFFCURVE",
"918 184 CURVE"
);
}
);
width = 1398;
},
{
hints = (
{
origin = "{1, 1}";
scale = "{-0.96, 0.96933}";
type = Corner;
name = _corner.Serif;
},
{
origin = "{1, 2}";
type = Corner;
name = _corner.Serif;
options = 1;
},
{
origin = "{1, 0}";
scale = "{1.16, 0.96933}";
type = Corner;
name = _corner.Serif;
}
);
layerId = "219068EA-2B9B-40DC-949E-B60449C01B8A";
paths = (
{
closed = 1;
nodes = (
"1335 261 LINE",
"672 261 LINE",
"672 0 LINE",
"1335 0 LINE"
);
},
{
closed = 1;
nodes = (
"672 1471 LINE",
"253 1471 LINE",
"253 0 LINE",
"672 0 LINE"
);
},
{
closed = 1;
nodes = (
"1335 261 LINE",
"1335 475 LINE",
"1067 475 LINE",
"1067 513 LINE SMOOTH",
"1067 342 OFFCURVE",
"986 261 OFFCURVE",
"818 261 CURVE"
);
}
);
width = 1397;
},
{
hints = (
{
origin = "{1, 1}";
scale = "{-0.96, 0.98467}";
type = Corner;
name = _corner.Serif;
},
{
origin = "{1, 2}";
type = Corner;
name = _corner.Serif;
options = 1;
},
{
origin = "{1, 0}";
scale = "{1.36, 0.98467}";
type = Corner;
name = _corner.Serif;
}
);
layerId = "0C29AA02-E021-4BD1-A2C4-87F681D64C35";
paths = (
{
closed = 1;
nodes = (
"1341 224 LINE",
"677 224 LINE",
"677 0 LINE",
"1341 0 LINE"
);
},
{
closed = 1;
nodes = (
"677 1471 LINE",
"258 1471 LINE",
"258 0 LINE",
"677 0 LINE"
);
},
{
closed = 1;
nodes = (
"1341 224 LINE",
"1341 560 LINE",
"1103 560 LINE",
"1103 477 LINE SMOOTH",
"1103 305 OFFCURVE",
"1021 224 OFFCURVE",
"854 224 CURVE"
);
}
);
width = 1389;
}
);
leftKerningGroup = I;
leftMetricsKey = I;
rightKerningGroup = L;
unicode = 004C;
},
{
glyphname = M;
lastChange = "2020-09-15 06:45:59 +0000";
layers = (
{
hints = (
{
origin = "{0, 2}";
scale = "{-0.96, 1}";
type = Corner;
name = _corner.Serif;
},
{
origin = "{0, 3}";
type = Corner;
name = _corner.Serif;
options = 1;
},
{
origin = "{0, 4}";
scale = "{-1, 1}";
type = Corner;
name = _corner.Serif;
},
{
origin = "{1, 2}";
type = Corner;
name = _corner.Serif;
},
{
origin = "{1, 3}";
scale = "{-1, 1}";
type = Corner;
name = _corner.Serif;
options = 1;
},
{
origin = "{1, 0}";
scale = "{0.96, 1}";
type = Corner;
name = _corner.Serif;
}
);
layerId = "CA54B7DC-FBBB-40FE-ACF3-AABDD76D6A7B";
paths = (
{
closed = 1;
nodes = (
"400 1356 LINE",
"400 1440 LINE",
"354 1440 LINE",
"354 0 LINE",
"400 0 LINE"
);
},
{
closed = 1;
nodes = (
"1648 1440 LINE",
"1600 1440 LINE",
"1600 0 LINE",
"1648 0 LINE"
);
},
{
closed = 1;
nodes = (
"980 0 LINE",
"1020 0 LINE",
"1600 1357 LINE",
"1600 1440 LINE",
"1586 1440 LINE",
"992 52 LINE",
"1010 52 LINE",
"416 1440 LINE",
"400 1440 LINE",
"400 1356 LINE"
);
}
);
width = 2002;
},
{
hints = (
{
origin = "{0, 2}";
scale = "{-0.96, 1}";
type = Corner;
name = _corner.Serif;
},
{
origin = "{0, 3}";
type = Corner;
name = _corner.Serif;
options = 1;
},
{
origin = "{0, 4}";
scale = "{-1, 1}";
type = Corner;
name = _corner.Serif;
},
{
origin = "{1, 0}";
scale = "{0.96, 1}";
type = Corner;
name = _corner.Serif;
},
{
origin = "{1, 2}";
type = Corner;
name = _corner.Serif;
},
{
origin = "{1, 3}";
scale = "{-1, 1}";
type = Corner;
name = _corner.Serif;
options = 1;
}
);
layerId = "1E61A082-F045-49A7-AB52-DD1B03FD9B54";
paths = (
{
closed = 1;
nodes = (
"336 1356 LINE",
"336 1440 LINE",
"292 1440 LINE",
"292 0 LINE",
"336 0 LINE"
);
},
{
closed = 1;
nodes = (
"1582 1440 LINE",
"1534 1440 LINE",
"1534 0 LINE",
"1582 0 LINE"
);
},
{
closed = 1;
nodes = (
"916 0 LINE",
"954 0 LINE",
"1534 1357 LINE",
"1536 1440 LINE",
"1522 1440 LINE",
"928 52 LINE",
"946 52 LINE",
"352 1440 LINE",
"336 1440 LINE",
"336 1356 LINE"
);
}
);
width = 1874;
},
{
hints = (
{
origin = "{0, 2}";
scale = "{-0.96, 0.99}";
type = Corner;
name = _corner.Serif;
},
{
origin = "{0, 3}";
type = Corner;
name = _corner.Serif;
options = 1;
},
{
origin = "{0, 4}";
scale = "{-1, 1}";
type = Corner;
name = _corner.Serif;
},
{
origin = "{1, 0}";
scale = "{0.96, 0.99}";
type = Corner;
name = _corner.Serif;
},
{
origin = "{1, 2}";
type = Corner;
name = _corner.Serif;
},
{
origin = "{1, 3}";
scale = "{-1, 1}";
type = Corner;
name = _corner.Serif;
options = 1;
}
);
layerId = "642E5713-E15A-4A7E-A28E-9A6B75A6585C";
paths = (
{
closed = 1;
nodes = (
"438 1079 LINE",
"438 1460 LINE",
"270 1460 LINE",
"270 0 LINE",
"438 0 LINE"
);
},
{
closed = 1;
nodes = (
"1838 1460 LINE",
"1550 1460 LINE",
"1550 0 LINE",
"1838 0 LINE"
);
},
{
closed = 1;
nodes = (
"906 0 LINE",
"1096 0 LINE",
"1550 1087 LINE",
"1550 1460 LINE",
"1535 1460 LINE",
"1039 276 LINE",
"1096 276 LINE",
"583 1460 LINE",
"438 1460 LINE",
"438 1079 LINE"
);
}
);
width = 2108;
},
{
hints = (
{
origin = "{0, 2}";
scale = "{-0.96, 0.98}";
type = Corner;
name = _corner.Serif;
},
{
origin = "{0, 3}";
type = Corner;
name = _corner.Serif;
options = 1;
},
{
origin = "{0, 4}";
scale = "{-1, 1}";
type = Corner;
name = _corner.Serif;
},
{
origin = "{1, 0}";
scale = "{0.96, 0.98}";
type = Corner;
name = _corner.Serif;
},
{
origin = "{1, 2}";
type = Corner;
name = _corner.Serif;
},
{
origin = "{1, 3}";
scale = "{-1, 1}";
type = Corner;
name = _corner.Serif;
options = 1;
}
);
layerId = "AF891779-7DE6-4679-9CA2-17B922C1DF84";
paths = (
{
closed = 1;
nodes = (
"482 1076 LINE",
"482 1460 LINE",
"288 1460 LINE",
"288 0 LINE",
"482 0 LINE"
);
},
{
closed = 1;
nodes = (
"1874 1460 LINE",
"1586 1460 LINE",
"1586 0 LINE",
"1874 0 LINE"
);
},
{
closed = 1;
nodes = (
"928 0 LINE",
"1151 0 LINE",
"1586 1078 LINE",
"1586 1460 LINE",
"1549 1460 LINE",
"1055 239 LINE",
"1140 239 LINE",
"633 1460 LINE",
"482 1460 LINE",
"482 1076 LINE"
);
}
);
width = 2162;
},
{
hints = (
{
origin = "{0, 2}";
scale = "{-0.96, 0.96933}";
type = Corner;
name = _corner.Serif;
},
{
origin = "{0, 3}";
type = Corner;
name = _corner.Serif;
options = 1;
},
{
origin = "{0, 4}";
scale = "{-1, 1}";
type = Corner;
name = _corner.Serif;
},
{
origin = "{1, 2}";
type = Corner;
name = _corner.Serif;
},
{
origin = "{1, 3}";
scale = "{-1, 1}";
type = Corner;
name = _corner.Serif;
options = 1;
},
{
origin = "{1, 0}";
scale = "{0.96, 0.96933}";
type = Corner;
name = _corner.Serif;
}
);
layerId = "219068EA-2B9B-40DC-949E-B60449C01B8A";
paths = (
{
closed = 1;
nodes = (
"526 927 LINE",
"526 1471 LINE",
"253 1471 LINE",
"253 0 LINE",
"526 0 LINE"
);
},
{
closed = 1;
nodes = (
"1995 1471 LINE",
"1579 1471 LINE",
"1579 0 LINE",
"1995 0 LINE"
);
},
{
closed = 1;
nodes = (
"900 0 LINE",
"1221 0 LINE",
"1579 929 LINE",
"1579 1471 LINE",
"1529 1471 LINE",
"1089 339 LINE",
"1209 339 LINE",
"749 1471 LINE",
"526 1471 LINE",
"526 927 LINE"
);
}
);
width = 2248;
},
{
hints = (
{
origin = "{0, 2}";
scale = "{-0.96, 0.98467}";
type = Corner;
name = _corner.Serif;
},
{
origin = "{0, 3}";
type = Corner;
name = _corner.Serif;
options = 1;
},
{
origin = "{0, 4}";
scale = "{-1, 1}";
type = Corner;
name = _corner.Serif;
},
{
origin = "{1, 0}";
scale = "{0.96, 0.98467}";
type = Corner;
name = _corner.Serif;
},
{
origin = "{1, 2}";
type = Corner;
name = _corner.Serif;
},
{
origin = "{1, 3}";
scale = "{-1, 1}";
type = Corner;
name = _corner.Serif;
options = 1;
}
);
layerId = "0C29AA02-E021-4BD1-A2C4-87F681D64C35";
paths = (
{
closed = 1;
nodes = (
"492 931 LINE",
"492 1471 LINE",
"258 1471 LINE",
"258 0 LINE",
"492 0 LINE"
);
},
{
closed = 1;
nodes = (
"1975 1471 LINE",
"1559 1471 LINE",
"1559 0 LINE",
"1975 0 LINE"
);
},
{
closed = 1;
nodes = (
"901 0 LINE",
"1172 0 LINE",
"1559 943 LINE",
"1557 1471 LINE",
"1542 1471 LINE",
"1098 395 LINE",
"1176 395 LINE",
"706 1471 LINE",
"492 1471 LINE",
"492 931 LINE"
);
}
);
width = 2234;
}
);
leftKerningGroup = I;
leftMetricsKey = I;
rightKerningGroup = I;
rightMetricsKey = I;
unicode = 004D;
},
{
glyphname = N;
lastChange = "2020-09-15 07:04:48 +0000";
layers = (
{
hints = (
{
origin = "{0, 2}";
scale = "{-0.96, 1}";
type = Corner;
name = _corner.Serif;
},
{
origin = "{0, 3}";
type = Corner;
name = _corner.Serif;
options = 1;
},
{
origin = "{0, 4}";
scale = "{-1, 1}";
type = Corner;
name = _corner.Serif;
},
{
origin = "{2, 0}";
scale = "{0.96, 1}";
type = Corner;
name = _corner.Serif;
},
{
origin = "{2, 1}";
scale = "{-0.96, 1}";
type = Corner;
name = _corner.Serif;
options = 1;
}
);
layerId = "CA54B7DC-FBBB-40FE-ACF3-AABDD76D6A7B";
rightMetricsKey = "=I-24";
paths = (
{
closed = 1;
nodes = (
"400 1361 LINE",
"404 1440 LINE",
"354 1440 LINE",
"354 0 LINE",
"400 0 LINE"
);
},
{
closed = 1;
nodes = (
"404 1440 LINE",
"400 1361 LINE",
"1324 0 LINE",
"1328 79 LINE"
);
},
{
closed = 1;
nodes = (
"1374 1440 LINE",
"1328 1440 LINE",
"1328 79 LINE",
"1324 0 LINE",
"1374 0 LINE"
);
}
);
width = 1696;
},
{
hints = (
{
origin = "{0, 2}";
scale = "{-0.96, 1}";
type = Corner;
name = _corner.Serif;
},
{
origin = "{0, 3}";
type = Corner;
name = _corner.Serif;
options = 1;
},
{
origin = "{0, 4}";
scale = "{-1, 1}";
type = Corner;
name = _corner.Serif;
},
{
origin = "{2, 0}";
scale = "{0.96, 1}";
type = Corner;
name = _corner.Serif;
},
{
origin = "{2, 1}";
scale = "{-0.96, 1}";
type = Corner;
name = _corner.Serif;
options = 1;
}
);
layerId = "1E61A082-F045-49A7-AB52-DD1B03FD9B54";
rightMetricsKey = "=I-16";
paths = (
{
closed = 1;
nodes = (
"336 1361 LINE",
"340 1440 LINE",
"292 1440 LINE",
"292 0 LINE",
"336 0 LINE"
);
},
{
closed = 1;
nodes = (
"340 1440 LINE",
"336 1361 LINE",
"1264 0 LINE",
"1268 79 LINE"
);
},
{
closed = 1;
nodes = (
"1312 1440 LINE",
"1268 1440 LINE",
"1268 79 LINE",
"1264 0 LINE",
"1312 0 LINE"
);
}
);
width = 1579;
},
{
hints = (
{
origin = "{0, 3}";
type = Corner;
name = _corner.Serif;
},
{
origin = "{0, 4}";
scale = "{-1.1, 1}";
type = Corner;
name = _corner.Serif;
options = 1;
},
{
origin = "{0, 2}";
scale = "{-0.96, 0.99}";
type = Corner;
name = _corner.Serif;
},
{
origin = "{2, 0}";
scale = "{0.96, 0.99}";
type = Corner;
name = _corner.Serif;
},
{
origin = "{2, 1}";
scale = "{-1.06, 0.99}";
type = Corner;
name = _corner.Serif;
options = 1;
}
);
layerId = "642E5713-E15A-4A7E-A28E-9A6B75A6585C";
rightMetricsKey = "=I-32";
paths = (
{
closed = 1;
nodes = (
"438 1054 LINE",
"485 1460 LINE",
"270 1460 LINE",
"270 0 LINE",
"438 0 LINE"
);
},
{
closed = 1;
nodes = (
"485 1460 LINE",
"438 1054 LINE",
"1248 0 LINE",
"1249 466 LINE"
);
},
{
closed = 1;
nodes = (
"1417 1460 LINE",
"1249 1460 LINE",
"1249 466 LINE",
"1248 0 LINE",
"1417 0 LINE"
);
}
);
width = 1647;
},
{
hints = (
{
origin = "{0, 2}";
scale = "{-0.96, 0.98}";
type = Corner;
name = _corner.Serif;
},
{
origin = "{0, 3}";
type = Corner;
name = _corner.Serif;
options = 1;
},
{
origin = "{0, 4}";
scale = "{-1, 1}";
type = Corner;
name = _corner.Serif;
},
{
origin = "{2, 0}";
scale = "{0.96, 0.98}";
type = Corner;
name = _corner.Serif;
},
{
origin = "{2, 1}";
scale = "{-0.96, 0.98}";
type = Corner;
name = _corner.Serif;
options = 1;
}
);
layerId = "AF891779-7DE6-4679-9CA2-17B922C1DF84";
rightMetricsKey = "=I-32";
paths = (
{
closed = 1;
nodes = (
"482 1053 LINE",
"539 1460 LINE",
"288 1460 LINE",
"288 0 LINE",
"482 0 LINE"
);
},
{
closed = 1;
nodes = (
"539 1460 LINE",
"482 1053 LINE",
"1250 0 LINE",
"1252 480 LINE"
);
},
{
closed = 1;
nodes = (
"1446 1460 LINE",
"1252 1460 LINE",
"1252 480 LINE",
"1250 0 LINE",
"1446 0 LINE"
);
}
);
width = 1695;
},
{
hints = (
{
origin = "{0, 2}";
scale = "{-0.96, 0.96933}";
type = Corner;
name = _corner.Serif;
},
{
origin = "{0, 3}";
type = Corner;
name = _corner.Serif;
options = 1;
},
{
origin = "{0, 4}";
scale = "{-1, 1}";
type = Corner;
name = _corner.Serif;
},
{
origin = "{2, 0}";
scale = "{0.96, 0.96933}";
type = Corner;
name = _corner.Serif;
},
{
origin = "{2, 1}";
scale = "{-0.96, 0.96933}";
type = Corner;
name = _corner.Serif;
options = 1;
}
);
layerId = "219068EA-2B9B-40DC-949E-B60449C01B8A";
paths = (
{
closed = 1;
nodes = (
"526 889 LINE",
"611 1471 LINE",
"253 1471 LINE",
"253 0 LINE",
"526 0 LINE"
);
},
{
closed = 1;
nodes = (
"611 1471 LINE",
"526 889 LINE",
"1211 0 LINE",
"1211 694 LINE"
);
},
{
closed = 1;
nodes = (
"1484 1471 LINE",
"1211 1471 LINE",
"1211 694 LINE",
"1211 0 LINE",
"1484 0 LINE"
);
}
);
width = 1730;
},
{
hints = (
{
origin = "{0, 2}";
scale = "{-0.96, 0.98467}";
type = Corner;
name = _corner.Serif;
},
{
origin = "{0, 3}";
type = Corner;
name = _corner.Serif;
options = 1;
},
{
origin = "{0, 4}";
scale = "{-1.15333, 1}";
type = Corner;
name = _corner.Serif;
},
{
origin = "{2, 0}";
scale = "{0.96, 0.98467}";
type = Corner;
name = _corner.Serif;
},
{
origin = "{2, 1}";
scale = "{-1.11333, 0.98467}";
type = Corner;
name = _corner.Serif;
options = 1;
}
);
layerId = "0C29AA02-E021-4BD1-A2C4-87F681D64C35";
paths = (
{
closed = 1;
nodes = (
"492 890 LINE",
"562 1471 LINE",
"258 1471 LINE",
"258 0 LINE",
"492 0 LINE"
);
},
{
closed = 1;
nodes = (
"562 1471 LINE",
"492 890 LINE",
"1239 0 LINE",
"1239 672 LINE"
);
},
{
closed = 1;
nodes = (
"1473 1471 LINE",
"1239 1471 LINE",
"1239 672 LINE",
"1239 0 LINE",
"1473 0 LINE"
);
}
);
width = 1726;
}
);
leftKerningGroup = I;
leftMetricsKey = I;
rightKerningGroup = N;
rightMetricsKey = I;
unicode = 004E;
},
{
glyphname = O;
lastChange = "2020-09-15 06:43:15 +0000";
layers = (
{
layerId = "CA54B7DC-FBBB-40FE-ACF3-AABDD76D6A7B";
paths = (
{
closed = 1;
nodes = (
"1284 -20 OFFCURVE",
"1588 252 OFFCURVE",
"1588 720 CURVE SMOOTH",
"1588 1188 OFFCURVE",
"1284 1460 OFFCURVE",
"878 1460 CURVE SMOOTH",
"472 1460 OFFCURVE",
"168 1188 OFFCURVE",
"168 720 CURVE SMOOTH",
"168 252 OFFCURVE",
"472 -20 OFFCURVE",
"878 -20 CURVE SMOOTH"
);
},
{
closed = 1;
nodes = (
"484 20 OFFCURVE",
"216 296 OFFCURVE",
"216 720 CURVE SMOOTH",
"216 1144 OFFCURVE",
"484 1420 OFFCURVE",
"878 1420 CURVE SMOOTH",
"1272 1420 OFFCURVE",
"1540 1144 OFFCURVE",
"1540 720 CURVE SMOOTH",
"1540 296 OFFCURVE",
"1272 20 OFFCURVE",
"878 20 CURVE SMOOTH"
);
}
);
width = 1756;
},
{
layerId = "1E61A082-F045-49A7-AB52-DD1B03FD9B54";
paths = (
{
closed = 1;
nodes = (
"1270 -20 OFFCURVE",
"1582 252 OFFCURVE",
"1582 720 CURVE SMOOTH",
"1582 1188 OFFCURVE",
"1270 1460 OFFCURVE",
"858 1460 CURVE SMOOTH",
"446 1460 OFFCURVE",
"134 1188 OFFCURVE",
"134 720 CURVE SMOOTH",
"134 252 OFFCURVE",
"446 -20 OFFCURVE",
"858 -20 CURVE SMOOTH"
);
},
{
closed = 1;
nodes = (
"458 20 OFFCURVE",
"182 296 OFFCURVE",
"182 720 CURVE SMOOTH",
"182 1144 OFFCURVE",
"458 1420 OFFCURVE",
"858 1420 CURVE SMOOTH",
"1258 1420 OFFCURVE",
"1534 1144 OFFCURVE",
"1534 720 CURVE SMOOTH",
"1534 296 OFFCURVE",
"1258 20 OFFCURVE",
"858 20 CURVE SMOOTH"
);
}
);
width = 1716;
},
{
layerId = "642E5713-E15A-4A7E-A28E-9A6B75A6585C";
paths = (
{
closed = 1;
nodes = (
"1324 -20 OFFCURVE",
"1660 256 OFFCURVE",
"1660 730 CURVE SMOOTH",
"1660 1204 OFFCURVE",
"1324 1480 OFFCURVE",
"864 1480 CURVE SMOOTH",
"404 1480 OFFCURVE",
"68 1204 OFFCURVE",
"68 730 CURVE SMOOTH",
"68 256 OFFCURVE",
"404 -20 OFFCURVE",
"864 -20 CURVE SMOOTH"
);
},
{
closed = 1;
nodes = (
"572 138 OFFCURVE",
"386 371 OFFCURVE",
"386 730 CURVE SMOOTH",
"386 1089 OFFCURVE",
"572 1322 OFFCURVE",
"864 1322 CURVE SMOOTH",
"1156 1322 OFFCURVE",
"1342 1089 OFFCURVE",
"1342 730 CURVE SMOOTH",
"1342 371 OFFCURVE",
"1156 138 OFFCURVE",
"864 138 CURVE SMOOTH"
);
}
);
width = 1728;
},
{
layerId = "AF891779-7DE6-4679-9CA2-17B922C1DF84";
paths = (
{
closed = 1;
nodes = (
"1315 -20 OFFCURVE",
"1642 256 OFFCURVE",
"1642 730 CURVE SMOOTH",
"1642 1204 OFFCURVE",
"1315 1480 OFFCURVE",
"870 1480 CURVE SMOOTH",
"425 1480 OFFCURVE",
"98 1204 OFFCURVE",
"98 730 CURVE SMOOTH",
"98 256 OFFCURVE",
"425 -20 OFFCURVE",
"870 -20 CURVE SMOOTH"
);
},
{
closed = 1;
nodes = (
"595 162 OFFCURVE",
"416 386 OFFCURVE",
"416 730 CURVE SMOOTH",
"416 1074 OFFCURVE",
"595 1298 OFFCURVE",
"870 1298 CURVE SMOOTH",
"1145 1298 OFFCURVE",
"1324 1074 OFFCURVE",
"1324 730 CURVE SMOOTH",
"1324 386 OFFCURVE",
"1145 162 OFFCURVE",
"870 162 CURVE SMOOTH"
);
}
);
width = 1740;
},
{
layerId = "219068EA-2B9B-40DC-949E-B60449C01B8A";
paths = (
{
closed = 1;
nodes = (
"1332 -20 OFFCURVE",
"1671 258 OFFCURVE",
"1671 735 CURVE SMOOTH",
"1671 1213 OFFCURVE",
"1332 1491 OFFCURVE",
"866 1491 CURVE SMOOTH",
"400 1491 OFFCURVE",
"61 1213 OFFCURVE",
"61 735 CURVE SMOOTH",
"61 258 OFFCURVE",
"400 -20 OFFCURVE",
"866 -20 CURVE SMOOTH"
);
},
{
closed = 1;
nodes = (
"654 238 OFFCURVE",
"523 434 OFFCURVE",
"523 735 CURVE SMOOTH",
"523 1037 OFFCURVE",
"654 1233 OFFCURVE",
"866 1233 CURVE SMOOTH",
"1077 1233 OFFCURVE",
"1209 1037 OFFCURVE",
"1209 735 CURVE SMOOTH",
"1209 434 OFFCURVE",
"1077 238 OFFCURVE",
"866 238 CURVE SMOOTH"
);
}
);
width = 1731;
},
{
layerId = "0C29AA02-E021-4BD1-A2C4-87F681D64C35";
paths = (
{
closed = 1;
nodes = (
"1353 -20 OFFCURVE",
"1702 258 OFFCURVE",
"1702 735 CURVE SMOOTH",
"1702 1213 OFFCURVE",
"1353 1491 OFFCURVE",
"867 1491 CURVE SMOOTH",
"382 1491 OFFCURVE",
"33 1213 OFFCURVE",
"33 735 CURVE SMOOTH",
"33 258 OFFCURVE",
"382 -20 OFFCURVE",
"867 -20 CURVE SMOOTH"
);
},
{
closed = 1;
nodes = (
"633 201 OFFCURVE",
"495 411 OFFCURVE",
"495 735 CURVE SMOOTH",
"495 1060 OFFCURVE",
"633 1270 OFFCURVE",
"867 1270 CURVE SMOOTH",
"1102 1270 OFFCURVE",
"1240 1060 OFFCURVE",
"1240 735 CURVE SMOOTH",
"1240 411 OFFCURVE",
"1102 201 OFFCURVE",
"867 201 CURVE SMOOTH"
);
}
);
width = 1734;
}
);
leftKerningGroup = O;
rightKerningGroup = O;
unicode = 004F;
},
{
glyphname = P;
lastChange = "2020-09-15 06:43:15 +0000";
layers = (
{
hints = (
{
origin = "{1, 0}";
type = Corner;
name = _corner.Serif;
options = 1;
},
{
origin = "{1, 1}";
scale = "{-1.2, 1}";
type = Corner;
name = _corner.Serif;
},
{
origin = "{1, 3}";
scale = "{-0.96, 1}";
type = Corner;
name = _corner.Serif;
}
);
layerId = "CA54B7DC-FBBB-40FE-ACF3-AABDD76D6A7B";
paths = (
{
closed = 1;
nodes = (
"402 1398 LINE",
"872 1398 LINE SMOOTH",
"1132 1398 OFFCURVE",
"1296 1284 OFFCURVE",
"1296 1056 CURVE SMOOTH",
"1296 828 OFFCURVE",
"1132 714 OFFCURVE",
"872 714 CURVE SMOOTH",
"402 714 LINE",
"402 672 LINE",
"884 672 LINE SMOOTH",
"1160 672 OFFCURVE",
"1344 802 OFFCURVE",
"1344 1056 CURVE SMOOTH",
"1344 1310 OFFCURVE",
"1160 1440 OFFCURVE",
"884 1440 CURVE SMOOTH",
"402 1440 LINE"
);
},
{
closed = 1;
nodes = (
"354 0 LINE",
"402 0 LINE",
"402 1440 LINE",
"354 1440 LINE"
);
}
);
width = 1424;
},
{
hints = (
{
origin = "{1, 0}";
type = Corner;
name = _corner.Serif;
options = 1;
},
{
origin = "{1, 1}";
scale = "{-1.4, 1}";
type = Corner;
name = _corner.Serif;
},
{
origin = "{1, 3}";
scale = "{-0.96, 1}";
type = Corner;
name = _corner.Serif;
}
);
layerId = "1E61A082-F045-49A7-AB52-DD1B03FD9B54";
paths = (
{
closed = 1;
nodes = (
"340 1400 LINE",
"810 1400 LINE SMOOTH",
"1070 1400 OFFCURVE",
"1234 1284 OFFCURVE",
"1234 1056 CURVE SMOOTH",
"1234 828 OFFCURVE",
"1070 712 OFFCURVE",
"810 712 CURVE SMOOTH",
"340 712 LINE",
"340 672 LINE",
"822 672 LINE SMOOTH",
"1098 672 OFFCURVE",
"1282 802 OFFCURVE",
"1282 1056 CURVE SMOOTH",
"1282 1310 OFFCURVE",
"1098 1440 OFFCURVE",
"822 1440 CURVE SMOOTH",
"340 1440 LINE"
);
},
{
closed = 1;
nodes = (
"292 0 LINE",
"340 0 LINE",
"340 1440 LINE",
"292 1440 LINE"
);
}
);
width = 1354;
},
{
hints = (
{
origin = "{1, 0}";
type = Corner;
name = _corner.Serif;
options = 1;
},
{
origin = "{1, 1}";
scale = "{-1.4, 1}";
type = Corner;
name = _corner.Serif;
},
{
origin = "{1, 3}";
scale = "{-0.96, 0.99}";
type = Corner;
name = _corner.Serif;
}
);
layerId = "642E5713-E15A-4A7E-A28E-9A6B75A6585C";
paths = (
{
closed = 1;
nodes = (
"560 1302 LINE",
"850 1302 LINE SMOOTH",
"1024 1302 OFFCURVE",
"1132 1218 OFFCURVE",
"1132 1048 CURVE SMOOTH",
"1132 878 OFFCURVE",
"1024 794 OFFCURVE",
"850 794 CURVE SMOOTH",
"560 794 LINE",
"560 636 LINE",
"926 636 LINE SMOOTH",
"1229 636 OFFCURVE",
"1430 775 OFFCURVE",
"1430 1048 CURVE SMOOTH",
"1430 1321 OFFCURVE",
"1229 1460 OFFCURVE",
"926 1460 CURVE SMOOTH",
"560 1460 LINE"
);
},
{
closed = 1;
nodes = (
"270 0 LINE",
"560 0 LINE",
"560 1460 LINE",
"270 1460 LINE"
);
}
);
width = 1473;
},
{
hints = (
{
origin = "{1, 0}";
type = Corner;
name = _corner.Serif;
options = 1;
},
{
origin = "{1, 1}";
scale = "{-1.2, 1}";
type = Corner;
name = _corner.Serif;
},
{
origin = "{1, 3}";
scale = "{-0.96, 0.98}";
type = Corner;
name = _corner.Serif;
}
);
layerId = "AF891779-7DE6-4679-9CA2-17B922C1DF84";
paths = (
{
closed = 1;
nodes = (
"578 1280 LINE",
"882 1280 LINE SMOOTH",
"1047 1280 OFFCURVE",
"1150 1199 OFFCURVE",
"1150 1042 CURVE SMOOTH",
"1150 885 OFFCURVE",
"1047 804 OFFCURVE",
"882 804 CURVE SMOOTH",
"578 804 LINE",
"578 624 LINE",
"938 624 LINE SMOOTH",
"1244 624 OFFCURVE",
"1448 765 OFFCURVE",
"1448 1042 CURVE SMOOTH",
"1448 1319 OFFCURVE",
"1244 1460 OFFCURVE",
"938 1460 CURVE SMOOTH",
"578 1460 LINE"
);
},
{
closed = 1;
nodes = (
"288 0 LINE",
"578 0 LINE",
"578 1460 LINE",
"288 1460 LINE"
);
}
);
width = 1497;
},
{
hints = (
{
origin = "{1, 0}";
type = Corner;
name = _corner.Serif;
options = 1;
},
{
origin = "{1, 1}";
scale = "{-1.2, 1}";
type = Corner;
name = _corner.Serif;
},
{
origin = "{1, 3}";
scale = "{-0.96, 0.96933}";
type = Corner;
name = _corner.Serif;
}
);
layerId = "219068EA-2B9B-40DC-949E-B60449C01B8A";
paths = (
{
closed = 1;
nodes = (
"672 1217 LINE",
"887 1217 LINE SMOOTH",
"1002 1217 OFFCURVE",
"1072 1154 OFFCURVE",
"1072 1035 CURVE SMOOTH",
"1072 915 OFFCURVE",
"1002 852 OFFCURVE",
"887 852 CURVE SMOOTH",
"672 852 LINE",
"672 598 LINE",
"967 598 LINE SMOOTH",
"1289 598 OFFCURVE",
"1503 745 OFFCURVE",
"1503 1035 CURVE SMOOTH",
"1503 1324 OFFCURVE",
"1289 1471 OFFCURVE",
"967 1471 CURVE SMOOTH",
"672 1471 LINE"
);
},
{
closed = 1;
nodes = (
"253 0 LINE",
"672 0 LINE",
"672 1471 LINE",
"253 1471 LINE"
);
}
);
width = 1536;
},
{
hints = (
{
origin = "{1, 0}";
type = Corner;
name = _corner.Serif;
options = 1;
},
{
origin = "{1, 1}";
scale = "{-1.4, 1}";
type = Corner;
name = _corner.Serif;
},
{
origin = "{1, 3}";
scale = "{-0.96, 0.98467}";
type = Corner;
name = _corner.Serif;
}
);
layerId = "0C29AA02-E021-4BD1-A2C4-87F681D64C35";
paths = (
{
closed = 1;
nodes = (
"677 1250 LINE",
"871 1250 LINE SMOOTH",
"999 1250 OFFCURVE",
"1078 1183 OFFCURVE",
"1078 1044 CURVE SMOOTH",
"1078 905 OFFCURVE",
"999 838 OFFCURVE",
"871 838 CURVE SMOOTH",
"677 838 LINE",
"677 617 LINE",
"981 617 LINE SMOOTH",
"1299 617 OFFCURVE",
"1509 761 OFFCURVE",
"1509 1044 CURVE SMOOTH",
"1509 1327 OFFCURVE",
"1299 1471 OFFCURVE",
"981 1471 CURVE SMOOTH",
"677 1471 LINE"
);
},
{
closed = 1;
nodes = (
"258 0 LINE",
"677 0 LINE",
"677 1471 LINE",
"258 1471 LINE"
);
}
);
width = 1536;
}
);
leftKerningGroup = I;
leftMetricsKey = I;
rightKerningGroup = P;
unicode = 0050;
},
{
glyphname = Q;
lastChange = "2020-09-15 06:43:15 +0000";
layers = (
{
layerId = "CA54B7DC-FBBB-40FE-ACF3-AABDD76D6A7B";
paths = (
{
closed = 1;
nodes = (
"1125 0 LINE",
"1125 196 LINE SMOOTH",
"1125 345 OFFCURVE",
"1046 420 OFFCURVE",
"932 420 CURVE SMOOTH",
"818 420 OFFCURVE",
"736 345 OFFCURVE",
"736 196 CURVE SMOOTH",
"736 0 LINE",
"780 0 LINE",
"780 196 LINE SMOOTH",
"780 319 OFFCURVE",
"834 380 OFFCURVE",
"930 380 CURVE SMOOTH",
"1026 380 OFFCURVE",
"1079 319 OFFCURVE",
"1079 196 CURVE SMOOTH",
"1079 0 LINE"
);
},
{
closed = 1;
nodes = (
"1424 -116 LINE SMOOTH",
"1424 -239 OFFCURVE",
"1370 -300 OFFCURVE",
"1274 -300 CURVE SMOOTH",
"1178 -300 OFFCURVE",
"1125 -239 OFFCURVE",
"1125 -116 CURVE SMOOTH",
"1125 0 LINE",
"1079 0 LINE",
"1079 -116 LINE SMOOTH",
"1079 -265 OFFCURVE",
"1162 -340 OFFCURVE",
"1276 -340 CURVE SMOOTH",
"1390 -340 OFFCURVE",
"1468 -265 OFFCURVE",
"1468 -116 CURVE SMOOTH",
"1468 0 LINE",
"1424 0 LINE"
);
},
{
closed = 1;
nodes = (
"1284 -20 OFFCURVE",
"1588 252 OFFCURVE",
"1588 720 CURVE SMOOTH",
"1588 1188 OFFCURVE",
"1284 1460 OFFCURVE",
"878 1460 CURVE SMOOTH",
"472 1460 OFFCURVE",
"168 1188 OFFCURVE",
"168 720 CURVE SMOOTH",
"168 252 OFFCURVE",
"472 -20 OFFCURVE",
"878 -20 CURVE SMOOTH"
);
},
{
closed = 1;
nodes = (
"484 20 OFFCURVE",
"216 296 OFFCURVE",
"216 720 CURVE SMOOTH",
"216 1144 OFFCURVE",
"484 1420 OFFCURVE",
"878 1420 CURVE SMOOTH",
"1272 1420 OFFCURVE",
"1540 1144 OFFCURVE",
"1540 720 CURVE SMOOTH",
"1540 296 OFFCURVE",
"1272 20 OFFCURVE",
"878 20 CURVE SMOOTH"
);
}
);
width = 1756;
},
{
layerId = "1E61A082-F045-49A7-AB52-DD1B03FD9B54";
paths = (
{
closed = 1;
nodes = (
"1104 0 LINE",
"1104 196 LINE SMOOTH",
"1104 345 OFFCURVE",
"1026 420 OFFCURVE",
"912 420 CURVE SMOOTH",
"798 420 OFFCURVE",
"716 345 OFFCURVE",
"716 196 CURVE SMOOTH",
"716 0 LINE",
"760 0 LINE",
"760 196 LINE SMOOTH",
"760 319 OFFCURVE",
"814 380 OFFCURVE",
"910 380 CURVE SMOOTH",
"1006 380 OFFCURVE",
"1060 319 OFFCURVE",
"1060 196 CURVE SMOOTH",
"1060 0 LINE"
);
},
{
closed = 1;
nodes = (
"1404 -116 LINE SMOOTH",
"1404 -239 OFFCURVE",
"1350 -300 OFFCURVE",
"1254 -300 CURVE SMOOTH",
"1158 -300 OFFCURVE",
"1104 -239 OFFCURVE",
"1104 -116 CURVE SMOOTH",
"1104 0 LINE",
"1060 0 LINE",
"1060 -116 LINE SMOOTH",
"1060 -265 OFFCURVE",
"1142 -340 OFFCURVE",
"1256 -340 CURVE SMOOTH",
"1370 -340 OFFCURVE",
"1448 -265 OFFCURVE",
"1448 -116 CURVE SMOOTH",
"1448 0 LINE",
"1404 0 LINE"
);
},
{
closed = 1;
nodes = (
"1270 -20 OFFCURVE",
"1582 252 OFFCURVE",
"1582 720 CURVE SMOOTH",
"1582 1188 OFFCURVE",
"1270 1460 OFFCURVE",
"858 1460 CURVE SMOOTH",
"446 1460 OFFCURVE",
"134 1188 OFFCURVE",
"134 720 CURVE SMOOTH",
"134 252 OFFCURVE",
"446 -20 OFFCURVE",
"858 -20 CURVE SMOOTH"
);
},
{
closed = 1;
nodes = (
"458 20 OFFCURVE",
"182 296 OFFCURVE",
"182 720 CURVE SMOOTH",
"182 1144 OFFCURVE",
"458 1420 OFFCURVE",
"858 1420 CURVE SMOOTH",
"1258 1420 OFFCURVE",
"1534 1144 OFFCURVE",
"1534 720 CURVE SMOOTH",
"1534 296 OFFCURVE",
"1258 20 OFFCURVE",
"858 20 CURVE SMOOTH"
);
}
);
width = 1716;
},
{
layerId = "642E5713-E15A-4A7E-A28E-9A6B75A6585C";
paths = (
{
closed = 1;
nodes = (
"1148 0 LINE",
"1148 352 LINE SMOOTH",
"1148 529 OFFCURVE",
"1041 620 OFFCURVE",
"889 620 CURVE SMOOTH",
"737 620 OFFCURVE",
"626 529 OFFCURVE",
"626 352 CURVE SMOOTH",
"626 44 LINE",
"780 44 LINE",
"780 360 LINE SMOOTH",
"780 413 OFFCURVE",
"805 442 OFFCURVE",
"850 442 CURVE SMOOTH",
"895 442 OFFCURVE",
"920 413 OFFCURVE",
"920 360 CURVE SMOOTH",
"920 0 LINE"
);
},
{
closed = 1;
nodes = (
"1288 -114 LINE SMOOTH",
"1288 -167 OFFCURVE",
"1263 -196 OFFCURVE",
"1218 -196 CURVE SMOOTH",
"1173 -196 OFFCURVE",
"1148 -167 OFFCURVE",
"1148 -114 CURVE SMOOTH",
"1148 0 LINE",
"920 0 LINE",
"920 -102 LINE SMOOTH",
"920 -279 OFFCURVE",
"1023 -370 OFFCURVE",
"1177 -370 CURVE SMOOTH",
"1327 -370 OFFCURVE",
"1434 -279 OFFCURVE",
"1434 -102 CURVE SMOOTH",
"1434 0 LINE",
"1288 0 LINE"
);
},
{
closed = 1;
nodes = (
"1324 -20 OFFCURVE",
"1660 256 OFFCURVE",
"1660 730 CURVE SMOOTH",
"1660 1204 OFFCURVE",
"1324 1480 OFFCURVE",
"864 1480 CURVE SMOOTH",
"404 1480 OFFCURVE",
"68 1204 OFFCURVE",
"68 730 CURVE SMOOTH",
"68 256 OFFCURVE",
"404 -20 OFFCURVE",
"864 -20 CURVE SMOOTH"
);
},
{
closed = 1;
nodes = (
"572 138 OFFCURVE",
"386 371 OFFCURVE",
"386 730 CURVE SMOOTH",
"386 1089 OFFCURVE",
"572 1322 OFFCURVE",
"864 1322 CURVE SMOOTH",
"1156 1322 OFFCURVE",
"1342 1089 OFFCURVE",
"1342 730 CURVE SMOOTH",
"1342 371 OFFCURVE",
"1156 138 OFFCURVE",
"864 138 CURVE SMOOTH"
);
}
);
width = 1728;
},
{
layerId = "AF891779-7DE6-4679-9CA2-17B922C1DF84";
paths = (
{
closed = 1;
nodes = (
"1164 0 LINE",
"1164 302 LINE SMOOTH",
"1164 486 OFFCURVE",
"1061 580 OFFCURVE",
"903 580 CURVE SMOOTH",
"745 580 OFFCURVE",
"638 486 OFFCURVE",
"638 302 CURVE SMOOTH",
"638 44 LINE",
"808 44 LINE",
"808 324 LINE SMOOTH",
"808 369 OFFCURVE",
"831 398 OFFCURVE",
"872 398 CURVE SMOOTH",
"913 398 OFFCURVE",
"936 369 OFFCURVE",
"936 324 CURVE SMOOTH",
"936 0 LINE"
);
},
{
closed = 1;
nodes = (
"1292 -78 LINE SMOOTH",
"1292 -123 OFFCURVE",
"1269 -152 OFFCURVE",
"1228 -152 CURVE SMOOTH",
"1187 -152 OFFCURVE",
"1164 -123 OFFCURVE",
"1164 -78 CURVE SMOOTH",
"1164 0 LINE",
"936 0 LINE",
"936 -52 LINE SMOOTH",
"936 -236 OFFCURVE",
"1035 -330 OFFCURVE",
"1193 -330 CURVE SMOOTH",
"1351 -330 OFFCURVE",
"1454 -236 OFFCURVE",
"1454 -52 CURVE SMOOTH",
"1454 0 LINE",
"1292 0 LINE"
);
},
{
closed = 1;
nodes = (
"1315 -20 OFFCURVE",
"1642 256 OFFCURVE",
"1642 730 CURVE SMOOTH",
"1642 1204 OFFCURVE",
"1315 1480 OFFCURVE",
"870 1480 CURVE SMOOTH",
"425 1480 OFFCURVE",
"98 1204 OFFCURVE",
"98 730 CURVE SMOOTH",
"98 256 OFFCURVE",
"425 -20 OFFCURVE",
"870 -20 CURVE SMOOTH"
);
},
{
closed = 1;
nodes = (
"595 162 OFFCURVE",
"416 386 OFFCURVE",
"416 730 CURVE SMOOTH",
"416 1074 OFFCURVE",
"595 1298 OFFCURVE",
"870 1298 CURVE SMOOTH",
"1145 1298 OFFCURVE",
"1324 1074 OFFCURVE",
"1324 730 CURVE SMOOTH",
"1324 386 OFFCURVE",
"1145 162 OFFCURVE",
"870 162 CURVE SMOOTH"
);
}
);
width = 1740;
},
{
layerId = "219068EA-2B9B-40DC-949E-B60449C01B8A";
paths = (
{
closed = 1;
nodes = (
"1185 0 LINE",
"1185 359 LINE SMOOTH",
"1185 561 OFFCURVE",
"1069 665 OFFCURVE",
"888 665 CURVE SMOOTH",
"706 665 OFFCURVE",
"586 561 OFFCURVE",
"586 359 CURVE SMOOTH",
"586 67 LINE",
"823 67 LINE",
"823 392 LINE SMOOTH",
"823 396 OFFCURVE",
"829 408 OFFCURVE",
"841 408 CURVE SMOOTH",
"853 408 OFFCURVE",
"860 396 OFFCURVE",
"860 392 CURVE SMOOTH",
"860 0 LINE"
);
},
{
closed = 1;
nodes = (
"1222 -58 LINE SMOOTH",
"1222 -61 OFFCURVE",
"1215 -73 OFFCURVE",
"1203 -73 CURVE SMOOTH",
"1192 -73 OFFCURVE",
"1185 -61 OFFCURVE",
"1185 -58 CURVE SMOOTH",
"1185 0 LINE",
"860 0 LINE",
"860 -18 LINE SMOOTH",
"860 -221 OFFCURVE",
"967 -325 OFFCURVE",
"1149 -325 CURVE SMOOTH",
"1330 -325 OFFCURVE",
"1447 -221 OFFCURVE",
"1447 -18 CURVE SMOOTH",
"1447 0 LINE",
"1222 0 LINE"
);
},
{
closed = 1;
nodes = (
"1332 -20 OFFCURVE",
"1671 258 OFFCURVE",
"1671 735 CURVE SMOOTH",
"1671 1213 OFFCURVE",
"1332 1491 OFFCURVE",
"866 1491 CURVE SMOOTH",
"400 1491 OFFCURVE",
"61 1213 OFFCURVE",
"61 735 CURVE SMOOTH",
"61 258 OFFCURVE",
"400 -20 OFFCURVE",
"866 -20 CURVE SMOOTH"
);
},
{
closed = 1;
nodes = (
"654 238 OFFCURVE",
"523 434 OFFCURVE",
"523 735 CURVE SMOOTH",
"523 1037 OFFCURVE",
"654 1233 OFFCURVE",
"866 1233 CURVE SMOOTH",
"1077 1233 OFFCURVE",
"1209 1037 OFFCURVE",
"1209 735 CURVE SMOOTH",
"1209 434 OFFCURVE",
"1077 238 OFFCURVE",
"866 238 CURVE SMOOTH"
);
}
);
width = 1731;
},
{
layerId = "0C29AA02-E021-4BD1-A2C4-87F681D64C35";
paths = (
{
closed = 1;
nodes = (
"1171 0 LINE",
"1171 435 LINE SMOOTH",
"1171 627 OFFCURVE",
"1049 727 OFFCURVE",
"877 727 CURVE SMOOTH",
"704 727 OFFCURVE",
"578 627 OFFCURVE",
"578 435 CURVE SMOOTH",
"578 67 LINE",
"791 67 LINE",
"791 447 LINE SMOOTH",
"791 463 OFFCURVE",
"800 475 OFFCURVE",
"818 475 CURVE SMOOTH",
"836 475 OFFCURVE",
"845 463 OFFCURVE",
"845 447 CURVE SMOOTH",
"845 0 LINE"
);
},
{
closed = 1;
nodes = (
"1226 -113 LINE SMOOTH",
"1226 -129 OFFCURVE",
"1217 -141 OFFCURVE",
"1199 -141 CURVE SMOOTH",
"1181 -141 OFFCURVE",
"1171 -129 OFFCURVE",
"1171 -113 CURVE SMOOTH",
"1171 0 LINE",
"845 0 LINE",
"845 -95 LINE SMOOTH",
"845 -286 OFFCURVE",
"960 -386 OFFCURVE",
"1135 -386 CURVE SMOOTH",
"1304 -386 OFFCURVE",
"1427 -286 OFFCURVE",
"1427 -95 CURVE SMOOTH",
"1427 0 LINE",
"1226 0 LINE"
);
},
{
closed = 1;
nodes = (
"1353 -20 OFFCURVE",
"1702 258 OFFCURVE",
"1702 735 CURVE SMOOTH",
"1702 1213 OFFCURVE",
"1353 1491 OFFCURVE",
"867 1491 CURVE SMOOTH",
"382 1491 OFFCURVE",
"33 1213 OFFCURVE",
"33 735 CURVE SMOOTH",
"33 258 OFFCURVE",
"382 -20 OFFCURVE",
"867 -20 CURVE SMOOTH"
);
},
{
closed = 1;
nodes = (
"633 201 OFFCURVE",
"495 411 OFFCURVE",
"495 735 CURVE SMOOTH",
"495 1060 OFFCURVE",
"633 1270 OFFCURVE",
"867 1270 CURVE SMOOTH",
"1102 1270 OFFCURVE",
"1240 1060 OFFCURVE",
"1240 735 CURVE SMOOTH",
"1240 411 OFFCURVE",
"1102 201 OFFCURVE",
"867 201 CURVE SMOOTH"
);
}
);
width = 1734;
}
);
leftKerningGroup = O;
leftMetricsKey = O;
rightKerningGroup = O;
rightMetricsKey = O;
unicode = 0051;
},
{
glyphname = R;
lastChange = "2020-09-15 06:43:15 +0000";
layers = (
{
hints = (
{
origin = "{2, 0}";
type = Corner;
name = _corner.Serif;
options = 1;
},
{
origin = "{2, 1}";
scale = "{-1.2, 1}";
type = Corner;
name = _corner.Serif;
},
{
origin = "{2, 3}";
scale = "{-0.96, 1}";
type = Corner;
name = _corner.Serif;
}
);
layerId = "CA54B7DC-FBBB-40FE-ACF3-AABDD76D6A7B";
paths = (
{
closed = 1;
nodes = (
"402 1398 LINE",
"902 1398 LINE SMOOTH",
"1162 1398 OFFCURVE",
"1326 1290 OFFCURVE",
"1326 1072 CURVE SMOOTH",
"1326 854 OFFCURVE",
"1162 746 OFFCURVE",
"902 746 CURVE SMOOTH",
"402 746 LINE",
"402 704 LINE",
"868 704 LINE",
"891 704 LINE",
"914 704 LINE SMOOTH",
"1186 704 OFFCURVE",
"1374 828 OFFCURVE",
"1374 1072 CURVE SMOOTH",
"1374 1316 OFFCURVE",
"1186 1440 OFFCURVE",
"914 1440 CURVE SMOOTH",
"402 1440 LINE"
);
},
{
closed = 1;
nodes = (
"402 704 LINE",
"832 704 LINE SMOOTH",
"994 704 OFFCURVE",
"1084 608 OFFCURVE",
"1084 436 CURVE SMOOTH",
"1084 172 LINE SMOOTH",
"1084 55 OFFCURVE",
"1137 -20 OFFCURVE",
"1252 -20 CURVE SMOOTH",
"1367 -20 OFFCURVE",
"1420 55 OFFCURVE",
"1420 172 CURVE SMOOTH",
"1420 280 LINE",
"1376 280 LINE",
"1376 172 LINE SMOOTH",
"1376 87 OFFCURVE",
"1342 20 OFFCURVE",
"1254 20 CURVE SMOOTH",
"1166 20 OFFCURVE",
"1132 87 OFFCURVE",
"1132 172 CURVE SMOOTH",
"1132 428 LINE SMOOTH",
"1132 622 OFFCURVE",
"1042 730 OFFCURVE",
"850 730 CURVE SMOOTH",
"402 730 LINE"
);
},
{
closed = 1;
nodes = (
"354 0 LINE",
"402 0 LINE",
"402 1440 LINE",
"354 1440 LINE"
);
}
);
width = 1528;
},
{
hints = (
{
origin = "{2, 0}";
type = Corner;
name = _corner.Serif;
options = 1;
},
{
origin = "{2, 1}";
scale = "{-1.4, 1}";
type = Corner;
name = _corner.Serif;
},
{
origin = "{2, 3}";
scale = "{-0.96, 1}";
type = Corner;
name = _corner.Serif;
}
);
layerId = "1E61A082-F045-49A7-AB52-DD1B03FD9B54";
paths = (
{
closed = 1;
nodes = (
"340 1400 LINE",
"840 1400 LINE SMOOTH",
"1100 1400 OFFCURVE",
"1264 1290 OFFCURVE",
"1264 1072 CURVE SMOOTH",
"1264 854 OFFCURVE",
"1100 744 OFFCURVE",
"840 744 CURVE SMOOTH",
"340 744 LINE",
"340 704 LINE",
"806 704 LINE",
"828 704 LINE",
"852 704 LINE SMOOTH",
"1124 704 OFFCURVE",
"1312 828 OFFCURVE",
"1312 1072 CURVE SMOOTH",
"1312 1316 OFFCURVE",
"1124 1440 OFFCURVE",
"852 1440 CURVE SMOOTH",
"340 1440 LINE"
);
},
{
closed = 1;
nodes = (
"340 704 LINE",
"716 704 LINE SMOOTH",
"878 704 OFFCURVE",
"968 608 OFFCURVE",
"968 436 CURVE SMOOTH",
"968 180 LINE SMOOTH",
"968 58 OFFCURVE",
"1024 -20 OFFCURVE",
"1144 -20 CURVE SMOOTH",
"1264 -20 OFFCURVE",
"1320 58 OFFCURVE",
"1320 180 CURVE SMOOTH",
"1320 560 LINE",
"1276 560 LINE",
"1276 180 LINE SMOOTH",
"1276 90 OFFCURVE",
"1240 20 OFFCURVE",
"1146 20 CURVE SMOOTH",
"1052 20 OFFCURVE",
"1016 90 OFFCURVE",
"1016 180 CURVE SMOOTH",
"1016 428 LINE SMOOTH",
"1016 622 OFFCURVE",
"926 730 OFFCURVE",
"734 730 CURVE SMOOTH",
"340 730 LINE"
);
},
{
closed = 1;
nodes = (
"292 0 LINE",
"340 0 LINE",
"340 1440 LINE",
"292 1440 LINE"
);
}
);
width = 1434;
},
{
hints = (
{
origin = "{2, 0}";
type = Corner;
name = _corner.Serif;
options = 1;
},
{
origin = "{2, 1}";
scale = "{-1, 1}";
type = Corner;
name = _corner.Serif;
},
{
origin = "{2, 3}";
scale = "{-0.96, 0.99}";
type = Corner;
name = _corner.Serif;
}
);
layerId = "642E5713-E15A-4A7E-A28E-9A6B75A6585C";
paths = (
{
closed = 1;
nodes = (
"560 1302 LINE",
"892 1302 LINE SMOOTH",
"1060 1302 OFFCURVE",
"1164 1220 OFFCURVE",
"1164 1056 CURVE SMOOTH",
"1164 892 OFFCURVE",
"1060 810 OFFCURVE",
"892 810 CURVE SMOOTH",
"560 810 LINE",
"560 652 LINE",
"817 652 LINE",
"817 668 LINE",
"958 668 LINE SMOOTH",
"1261 668 OFFCURVE",
"1462 802 OFFCURVE",
"1462 1064 CURVE SMOOTH",
"1462 1326 OFFCURVE",
"1265 1460 OFFCURVE",
"968 1460 CURVE SMOOTH",
"560 1460 LINE"
);
},
{
closed = 1;
nodes = (
"560 652 LINE",
"668 652 LINE SMOOTH",
"791 652 OFFCURVE",
"860 584 OFFCURVE",
"860 464 CURVE SMOOTH",
"860 282 LINE SMOOTH",
"860 99 OFFCURVE",
"954 -20 OFFCURVE",
"1164 -20 CURVE SMOOTH",
"1361 -20 OFFCURVE",
"1450 91 OFFCURVE",
"1450 262 CURVE SMOOTH",
"1450 588 LINE",
"1282 588 LINE",
"1282 256 LINE SMOOTH",
"1282 203 OFFCURVE",
"1262 166 OFFCURVE",
"1210 166 CURVE SMOOTH",
"1158 166 OFFCURVE",
"1138 203 OFFCURVE",
"1138 256 CURVE SMOOTH",
"1138 388 LINE SMOOTH",
"1138 573 OFFCURVE",
"1045 676 OFFCURVE",
"826 676 CURVE SMOOTH",
"560 676 LINE"
);
},
{
closed = 1;
nodes = (
"270 0 LINE",
"560 0 LINE",
"560 1460 LINE",
"270 1460 LINE"
);
}
);
width = 1532;
},
{
hints = (
{
origin = "{2, 0}";
type = Corner;
name = _corner.Serif;
options = 1;
},
{
origin = "{2, 1}";
scale = "{-1.2, 1}";
type = Corner;
name = _corner.Serif;
},
{
origin = "{2, 3}";
scale = "{-0.96, 0.98}";
type = Corner;
name = _corner.Serif;
}
);
layerId = "AF891779-7DE6-4679-9CA2-17B922C1DF84";
paths = (
{
closed = 1;
nodes = (
"578 1280 LINE",
"924 1280 LINE SMOOTH",
"1083 1280 OFFCURVE",
"1182 1202 OFFCURVE",
"1182 1052 CURVE SMOOTH",
"1182 902 OFFCURVE",
"1083 824 OFFCURVE",
"924 824 CURVE SMOOTH",
"578 824 LINE",
"578 644 LINE",
"834 644 LINE",
"874 662 LINE",
"980 662 LINE SMOOTH",
"1278 662 OFFCURVE",
"1480 798 OFFCURVE",
"1480 1062 CURVE SMOOTH",
"1480 1325 OFFCURVE",
"1280 1460 OFFCURVE",
"980 1460 CURVE SMOOTH",
"578 1460 LINE"
);
},
{
closed = 1;
nodes = (
"578 644 LINE",
"720 644 LINE SMOOTH",
"835 644 OFFCURVE",
"900 580 OFFCURVE",
"900 468 CURVE SMOOTH",
"900 300 LINE SMOOTH",
"900 105 OFFCURVE",
"1004 -20 OFFCURVE",
"1228 -20 CURVE SMOOTH",
"1438 -20 OFFCURVE",
"1532 97 OFFCURVE",
"1532 280 CURVE SMOOTH",
"1532 548 LINE",
"1356 548 LINE",
"1356 274 LINE SMOOTH",
"1356 216 OFFCURVE",
"1333 176 OFFCURVE",
"1271 176 CURVE SMOOTH",
"1209 176 OFFCURVE",
"1186 216 OFFCURVE",
"1186 274 CURVE SMOOTH",
"1186 394 LINE SMOOTH",
"1186 588 OFFCURVE",
"1087 696 OFFCURVE",
"854 696 CURVE SMOOTH",
"578 696 LINE"
);
},
{
closed = 1;
nodes = (
"288 0 LINE",
"578 0 LINE",
"578 1460 LINE",
"288 1460 LINE"
);
}
);
width = 1590;
},
{
hints = (
{
origin = "{2, 0}";
type = Corner;
name = _corner.Serif;
options = 1;
},
{
origin = "{2, 1}";
scale = "{-1.2, 1}";
type = Corner;
name = _corner.Serif;
},
{
origin = "{2, 3}";
scale = "{-0.96, 0.96933}";
type = Corner;
name = _corner.Serif;
}
);
layerId = "219068EA-2B9B-40DC-949E-B60449C01B8A";
paths = (
{
closed = 1;
nodes = (
"672 1217 LINE",
"936 1217 LINE SMOOTH",
"1041 1217 OFFCURVE",
"1105 1155 OFFCURVE",
"1105 1041 CURVE SMOOTH",
"1105 928 OFFCURVE",
"1041 866 OFFCURVE",
"936 866 CURVE SMOOTH",
"672 866 LINE",
"672 612 LINE",
"816 612 LINE",
"865 640 LINE",
"1015 640 LINE SMOOTH",
"1327 640 OFFCURVE",
"1537 782 OFFCURVE",
"1537 1057 CURVE SMOOTH",
"1537 1330 OFFCURVE",
"1330 1471 OFFCURVE",
"1015 1471 CURVE SMOOTH",
"672 1471 LINE"
);
},
{
closed = 1;
nodes = (
"672 612 LINE",
"660 612 LINE SMOOTH",
"750 612 OFFCURVE",
"802 565 OFFCURVE",
"802 485 CURVE SMOOTH",
"802 368 LINE SMOOTH",
"802 132 OFFCURVE",
"933 -20 OFFCURVE",
"1215 -20 CURVE SMOOTH",
"1476 -20 OFFCURVE",
"1592 119 OFFCURVE",
"1592 338 CURVE SMOOTH",
"1592 691 LINE",
"1345 691 LINE",
"1345 328 LINE SMOOTH",
"1345 285 OFFCURVE",
"1328 259 OFFCURVE",
"1280 259 CURVE SMOOTH",
"1232 259 OFFCURVE",
"1215 285 OFFCURVE",
"1215 328 CURVE SMOOTH",
"1215 376 LINE SMOOTH",
"1215 570 OFFCURVE",
"1111 678 OFFCURVE",
"856 678 CURVE SMOOTH",
"672 678 LINE"
);
},
{
closed = 1;
nodes = (
"253 0 LINE",
"672 0 LINE",
"672 1471 LINE",
"253 1471 LINE"
);
}
);
width = 1623;
},
{
hints = (
{
origin = "{2, 0}";
type = Corner;
name = _corner.Serif;
options = 1;
},
{
origin = "{2, 1}";
scale = "{-0.78667, 1}";
type = Corner;
name = _corner.Serif;
},
{
origin = "{2, 3}";
scale = "{-0.96, 0.98467}";
type = Corner;
name = _corner.Serif;
}
);
layerId = "0C29AA02-E021-4BD1-A2C4-87F681D64C35";
paths = (
{
closed = 1;
nodes = (
"677 1250 LINE",
"920 1250 LINE SMOOTH",
"1039 1250 OFFCURVE",
"1111 1183 OFFCURVE",
"1111 1047 CURVE SMOOTH",
"1111 912 OFFCURVE",
"1039 845 OFFCURVE",
"920 845 CURVE SMOOTH",
"677 845 LINE",
"677 624 LINE",
"823 624 LINE",
"811 649 LINE",
"1015 649 LINE SMOOTH",
"1334 649 OFFCURVE",
"1542 788 OFFCURVE",
"1542 1060 CURVE SMOOTH",
"1542 1331 OFFCURVE",
"1340 1471 OFFCURVE",
"1030 1471 CURVE SMOOTH",
"677 1471 LINE"
);
},
{
closed = 1;
nodes = (
"677 624 LINE",
"642 624 LINE SMOOTH",
"745 624 OFFCURVE",
"802 571 OFFCURVE",
"802 479 CURVE SMOOTH",
"802 336 LINE SMOOTH",
"802 121 OFFCURVE",
"917 -20 OFFCURVE",
"1175 -20 CURVE SMOOTH",
"1413 -20 OFFCURVE",
"1519 109 OFFCURVE",
"1519 306 CURVE SMOOTH",
"1519 603 LINE",
"1285 603 LINE",
"1285 297 LINE SMOOTH",
"1285 263 OFFCURVE",
"1274 244 OFFCURVE",
"1244 244 CURVE SMOOTH",
"1215 244 OFFCURVE",
"1203 263 OFFCURVE",
"1203 297 CURVE SMOOTH",
"1203 367 LINE SMOOTH",
"1203 547 OFFCURVE",
"1108 647 OFFCURVE",
"875 647 CURVE SMOOTH",
"677 647 LINE"
);
},
{
closed = 1;
nodes = (
"258 0 LINE",
"677 0 LINE",
"677 1471 LINE",
"258 1471 LINE"
);
}
);
width = 1584;
}
);
leftKerningGroup = I;
leftMetricsKey = I;
rightKerningGroup = R;
unicode = 0052;
},
{
glyphname = S;
lastChange = "2020-09-15 06:43:15 +0000";
layers = (
{
layerId = "CA54B7DC-FBBB-40FE-ACF3-AABDD76D6A7B";
paths = (
{
closed = 1;
nodes = (
"230 839 OFFCURVE",
"431 765 OFFCURVE",
"658 732 CURVE SMOOTH",
"866 702 LINE SMOOTH",
"1091 669 OFFCURVE",
"1274 598 OFFCURVE",
"1274 366 CURVE SMOOTH",
"1274 150 OFFCURVE",
"1110 24 OFFCURVE",
"846 24 CURVE SMOOTH",
"582 24 OFFCURVE",
"366 148 OFFCURVE",
"262 420 CURVE",
"222 420 LINE",
"316 114 OFFCURVE",
"562 -16 OFFCURVE",
"846 -16 CURVE SMOOTH",
"1130 -16 OFFCURVE",
"1322 114 OFFCURVE",
"1322 366 CURVE SMOOTH",
"1322 625 OFFCURVE",
"1127 709 OFFCURVE",
"874 746 CURVE SMOOTH",
"666 776 LINE SMOOTH",
"453 807 OFFCURVE",
"278 875 OFFCURVE",
"278 1094 CURVE SMOOTH",
"278 1302 OFFCURVE",
"440 1416 OFFCURVE",
"696 1416 CURVE SMOOTH",
"952 1416 OFFCURVE",
"1152 1304 OFFCURVE",
"1246 1040 CURVE",
"1286 1040 LINE",
"1206 1340 OFFCURVE",
"968 1456 OFFCURVE",
"696 1456 CURVE SMOOTH",
"424 1456 OFFCURVE",
"230 1338 OFFCURVE",
"230 1094 CURVE SMOOTH"
);
},
{
closed = 1;
nodes = (
"1246 1440 LINE",
"1246 1114 LINE",
"1286 1040 LINE",
"1290 1040 LINE",
"1290 1440 LINE"
);
},
{
closed = 1;
nodes = (
"262 0 LINE",
"262 342 LINE",
"222 420 LINE",
"218 420 LINE",
"218 0 LINE"
);
}
);
width = 1520;
},
{
layerId = "1E61A082-F045-49A7-AB52-DD1B03FD9B54";
paths = (
{
closed = 1;
nodes = (
"180 854 OFFCURVE",
"366 780 OFFCURVE",
"608 736 CURVE SMOOTH",
"816 698 LINE SMOOTH",
"1041 657 OFFCURVE",
"1224 590 OFFCURVE",
"1224 360 CURVE SMOOTH",
"1224 144 OFFCURVE",
"1070 24 OFFCURVE",
"806 24 CURVE SMOOTH",
"542 24 OFFCURVE",
"316 180 OFFCURVE",
"212 520 CURVE",
"172 520 LINE",
"266 144 OFFCURVE",
"522 -16 OFFCURVE",
"806 -16 CURVE SMOOTH",
"1090 -16 OFFCURVE",
"1272 108 OFFCURVE",
"1272 360 CURVE SMOOTH",
"1272 614 OFFCURVE",
"1082 695 OFFCURVE",
"824 742 CURVE SMOOTH",
"616 780 LINE SMOOTH",
"393 821 OFFCURVE",
"228 886 OFFCURVE",
"228 1100 CURVE SMOOTH",
"228 1308 OFFCURVE",
"380 1416 OFFCURVE",
"636 1416 CURVE SMOOTH",
"892 1416 OFFCURVE",
"1102 1273 OFFCURVE",
"1196 940 CURVE",
"1236 940 LINE",
"1156 1311 OFFCURVE",
"908 1456 OFFCURVE",
"636 1456 CURVE SMOOTH",
"364 1456 OFFCURVE",
"180 1344 OFFCURVE",
"180 1100 CURVE SMOOTH"
);
},
{
closed = 1;
nodes = (
"1196 1440 LINE",
"1196 1014 LINE",
"1236 940 LINE",
"1240 940 LINE",
"1240 1440 LINE"
);
},
{
closed = 1;
nodes = (
"212 0 LINE",
"212 442 LINE",
"172 520 LINE",
"168 520 LINE",
"168 0 LINE"
);
}
);
width = 1436;
},
{
layerId = "642E5713-E15A-4A7E-A28E-9A6B75A6585C";
paths = (
{
closed = 1;
nodes = (
"112 774 OFFCURVE",
"331 658 OFFCURVE",
"631 610 CURVE SMOOTH",
"795 584 LINE SMOOTH",
"950 559 OFFCURVE",
"1076 508 OFFCURVE",
"1076 362 CURVE SMOOTH",
"1076 217 OFFCURVE",
"974 140 OFFCURVE",
"797 140 CURVE SMOOTH",
"565 140 OFFCURVE",
"370 274 OFFCURVE",
"284 530 CURVE",
"155 530 LINE",
"244 135 OFFCURVE",
"497 -20 OFFCURVE",
"807 -20 CURVE SMOOTH",
"1117 -20 OFFCURVE",
"1324 134 OFFCURVE",
"1324 431 CURVE SMOOTH",
"1324 721 OFFCURVE",
"1093 831 OFFCURVE",
"783 880 CURVE SMOOTH",
"619 906 LINE SMOOTH",
"470 930 OFFCURVE",
"358 985 OFFCURVE",
"358 1119 CURVE SMOOTH",
"358 1253 OFFCURVE",
"458 1320 OFFCURVE",
"631 1320 CURVE SMOOTH",
"842 1320 OFFCURVE",
"1027 1198 OFFCURVE",
"1107 960 CURVE",
"1236 960 LINE",
"1148 1334 OFFCURVE",
"909 1480 OFFCURVE",
"621 1480 CURVE SMOOTH",
"333 1480 OFFCURVE",
"112 1348 OFFCURVE",
"112 1064 CURVE SMOOTH"
);
},
{
closed = 1;
nodes = (
"1118 1460 LINE",
"1118 1034 LINE",
"1236 960 LINE",
"1280 960 LINE",
"1280 1460 LINE"
);
},
{
closed = 1;
nodes = (
"272 0 LINE",
"272 442 LINE",
"155 530 LINE",
"110 530 LINE",
"110 0 LINE"
);
}
);
width = 1420;
},
{
layerId = "AF891779-7DE6-4679-9CA2-17B922C1DF84";
paths = (
{
closed = 1;
nodes = (
"144 776 OFFCURVE",
"362 656 OFFCURVE",
"663 614 CURVE SMOOTH",
"827 591 LINE SMOOTH",
"974 570 OFFCURVE",
"1092 518 OFFCURVE",
"1092 382 CURVE SMOOTH",
"1092 249 OFFCURVE",
"990 162 OFFCURVE",
"809 162 CURVE SMOOTH",
"605 162 OFFCURVE",
"424 281 OFFCURVE",
"340 450 CURVE",
"173 450 LINE",
"282 110 OFFCURVE",
"537 -20 OFFCURVE",
"845 -20 CURVE SMOOTH",
"1153 -20 OFFCURVE",
"1356 135 OFFCURVE",
"1356 432 CURVE SMOOTH",
"1356 722 OFFCURVE",
"1126 831 OFFCURVE",
"815 875 CURVE SMOOTH",
"651 898 LINE SMOOTH",
"510 918 OFFCURVE",
"406 978 OFFCURVE",
"406 1102 CURVE SMOOTH",
"406 1225 OFFCURVE",
"512 1298 OFFCURVE",
"679 1298 CURVE SMOOTH",
"869 1298 OFFCURVE",
"1029 1205 OFFCURVE",
"1115 1040 CURVE",
"1292 1040 LINE",
"1179 1341 OFFCURVE",
"943 1480 OFFCURVE",
"655 1480 CURVE SMOOTH",
"367 1480 OFFCURVE",
"144 1348 OFFCURVE",
"144 1064 CURVE SMOOTH"
);
},
{
closed = 1;
nodes = (
"1122 1460 LINE",
"1122 1214 LINE",
"1292 1040 LINE",
"1308 1040 LINE",
"1308 1460 LINE"
);
},
{
closed = 1;
nodes = (
"332 0 LINE",
"332 262 LINE",
"173 450 LINE",
"146 450 LINE",
"146 0 LINE"
);
}
);
width = 1488;
},
{
layerId = "219068EA-2B9B-40DC-949E-B60449C01B8A";
paths = (
{
closed = 1;
nodes = (
"98 742 OFFCURVE",
"325 598 OFFCURVE",
"666 551 CURVE SMOOTH",
"806 532 LINE SMOOTH",
"912 517 OFFCURVE",
"995 475 OFFCURVE",
"995 391 CURVE SMOOTH",
"995 302 OFFCURVE",
"926 236 OFFCURVE",
"789 236 CURVE SMOOTH",
"617 236 OFFCURVE",
"455 352 OFFCURVE",
"382 466 CURVE",
"147 466 LINE",
"264 108 OFFCURVE",
"524 -22 OFFCURVE",
"844 -22 CURVE SMOOTH",
"1165 -22 OFFCURVE",
"1374 146 OFFCURVE",
"1374 467 CURVE SMOOTH",
"1374 774 OFFCURVE",
"1125 896 OFFCURVE",
"784 944 CURVE SMOOTH",
"643 963 LINE SMOOTH",
"540 977 OFFCURVE",
"474 1033 OFFCURVE",
"474 1106 CURVE SMOOTH",
"474 1184 OFFCURVE",
"550 1235 OFFCURVE",
"670 1235 CURVE SMOOTH",
"825 1235 OFFCURVE",
"963 1152 OFFCURVE",
"1045 1040 CURVE",
"1295 1040 LINE",
"1165 1342 OFFCURVE",
"930 1493 OFFCURVE",
"633 1493 CURVE SMOOTH",
"337 1493 OFFCURVE",
"98 1353 OFFCURVE",
"98 1048 CURVE SMOOTH"
);
},
{
closed = 1;
nodes = (
"1056 1471 LINE",
"1056 1267 LINE",
"1295 1040 LINE",
"1318 1040 LINE",
"1318 1471 LINE"
);
},
{
closed = 1;
nodes = (
"369 0 LINE",
"369 219 LINE",
"147 466 LINE",
"108 466 LINE",
"108 0 LINE"
);
}
);
width = 1471;
},
{
layerId = "0C29AA02-E021-4BD1-A2C4-87F681D64C35";
paths = (
{
closed = 1;
nodes = (
"76 731 OFFCURVE",
"312 593 OFFCURVE",
"643 543 CURVE SMOOTH",
"784 523 LINE SMOOTH",
"901 507 OFFCURVE",
"997 464 OFFCURVE",
"997 363 CURVE SMOOTH",
"997 256 OFFCURVE",
"923 202 OFFCURVE",
"792 202 CURVE SMOOTH",
"577 202 OFFCURVE",
"399 324 OFFCURVE",
"322 535 CURVE",
"146 535 LINE",
"232 130 OFFCURVE",
"484 -22 OFFCURVE",
"808 -22 CURVE SMOOTH",
"1131 -22 OFFCURVE",
"1352 148 OFFCURVE",
"1352 469 CURVE SMOOTH",
"1352 778 OFFCURVE",
"1099 904 OFFCURVE",
"761 954 CURVE SMOOTH",
"621 973 LINE SMOOTH",
"511 988 OFFCURVE",
"427 1038 OFFCURVE",
"427 1129 CURVE SMOOTH",
"427 1224 OFFCURVE",
"500 1269 OFFCURVE",
"628 1269 CURVE SMOOTH",
"815 1269 OFFCURVE",
"987 1158 OFFCURVE",
"1060 971 CURVE",
"1236 971 LINE",
"1144 1346 OFFCURVE",
"910 1493 OFFCURVE",
"613 1493 CURVE SMOOTH",
"316 1493 OFFCURVE",
"76 1350 OFFCURVE",
"76 1045 CURVE SMOOTH"
);
},
{
closed = 1;
nodes = (
"1076 1471 LINE",
"1076 1045 LINE",
"1236 971 LINE",
"1301 971 LINE",
"1301 1471 LINE"
);
},
{
closed = 1;
nodes = (
"304 0 LINE",
"304 442 LINE",
"146 535 LINE",
"79 535 LINE",
"79 0 LINE"
);
}
);
width = 1411;
}
);
leftKerningGroup = S;
rightKerningGroup = S;
unicode = 0053;
},
{
glyphname = T;
lastChange = "2020-09-15 06:43:15 +0000";
layers = (
{
hints = (
{
origin = "{0, 2}";
scale = "{1.2, 1}";
type = Corner;
name = _corner.Serif;
},
{
origin = "{0, 3}";
scale = "{-1.2, 1}";
type = Corner;
name = _corner.Serif;
options = 1;
}
);
layerId = "CA54B7DC-FBBB-40FE-ACF3-AABDD76D6A7B";
paths = (
{
closed = 1;
nodes = (
"794 1440 LINE",
"746 1440 LINE",
"746 0 LINE",
"794 0 LINE"
);
},
{
closed = 1;
nodes = (
"1414 1440 LINE",
"126 1440 LINE",
"126 1398 LINE",
"1414 1398 LINE"
);
},
{
closed = 1;
nodes = (
"1345 1398 OFFCURVE",
"1371 1372 OFFCURVE",
"1371 1268 CURVE SMOOTH",
"1371 1030 LINE",
"1414 1030 LINE",
"1414 1398 LINE",
"1245 1398 LINE"
);
},
{
closed = 1;
nodes = (
"126 1398 LINE",
"126 1030 LINE",
"169 1030 LINE",
"169 1268 LINE SMOOTH",
"169 1372 OFFCURVE",
"195 1398 OFFCURVE",
"295 1398 CURVE"
);
}
);
width = 1540;
},
{
hints = (
{
origin = "{0, 2}";
scale = "{1.4, 1}";
type = Corner;
name = _corner.Serif;
},
{
origin = "{0, 3}";
scale = "{-1.4, 1}";
type = Corner;
name = _corner.Serif;
options = 1;
}
);
layerId = "1E61A082-F045-49A7-AB52-DD1B03FD9B54";
paths = (
{
closed = 1;
nodes = (
"774 1440 LINE",
"726 1440 LINE",
"726 0 LINE",
"774 0 LINE"
);
},
{
closed = 1;
nodes = (
"1394 1440 LINE",
"106 1440 LINE",
"106 1400 LINE",
"1394 1400 LINE"
);
},
{
closed = 1;
nodes = (
"1326 1400 OFFCURVE",
"1352 1374 OFFCURVE",
"1352 1270 CURVE SMOOTH",
"1352 900 LINE",
"1394 900 LINE",
"1394 1400 LINE",
"1226 1400 LINE"
);
},
{
closed = 1;
nodes = (
"106 1400 LINE",
"106 900 LINE",
"148 900 LINE",
"148 1270 LINE SMOOTH",
"148 1374 OFFCURVE",
"174 1400 OFFCURVE",
"274 1400 CURVE"
);
}
);
width = 1500;
},
{
hints = (
{
origin = "{0, 2}";
scale = "{1.4, 1}";
type = Corner;
name = _corner.Serif;
},
{
origin = "{0, 3}";
scale = "{-1.4, 1}";
type = Corner;
name = _corner.Serif;
options = 1;
}
);
layerId = "642E5713-E15A-4A7E-A28E-9A6B75A6585C";
paths = (
{
closed = 1;
nodes = (
"902 1460 LINE",
"612 1460 LINE",
"612 0 LINE",
"902 0 LINE"
);
},
{
closed = 1;
nodes = (
"1448 1460 LINE",
"66 1460 LINE",
"66 1302 LINE",
"1448 1302 LINE"
);
},
{
closed = 1;
nodes = (
"1216 1302 OFFCURVE",
"1278 1240 OFFCURVE",
"1278 1092 CURVE SMOOTH",
"1278 910 LINE",
"1448 910 LINE",
"1448 1302 LINE",
"1072 1302 LINE"
);
},
{
closed = 1;
nodes = (
"66 1302 LINE",
"66 910 LINE",
"236 910 LINE",
"236 1092 LINE SMOOTH",
"236 1240 OFFCURVE",
"298 1302 OFFCURVE",
"442 1302 CURVE"
);
}
);
width = 1514;
},
{
hints = (
{
origin = "{0, 2}";
scale = "{1.2, 1}";
type = Corner;
name = _corner.Serif;
},
{
origin = "{0, 3}";
scale = "{-1.2, 1}";
type = Corner;
name = _corner.Serif;
options = 1;
}
);
layerId = "AF891779-7DE6-4679-9CA2-17B922C1DF84";
paths = (
{
closed = 1;
nodes = (
"926 1460 LINE",
"636 1460 LINE",
"636 0 LINE",
"926 0 LINE"
);
},
{
closed = 1;
nodes = (
"1472 1460 LINE",
"90 1460 LINE",
"90 1280 LINE",
"1472 1280 LINE"
);
},
{
closed = 1;
nodes = (
"1220 1280 OFFCURVE",
"1282 1218 OFFCURVE",
"1282 1070 CURVE SMOOTH",
"1282 1000 LINE",
"1472 1000 LINE",
"1472 1280 LINE",
"1076 1280 LINE"
);
},
{
closed = 1;
nodes = (
"90 1280 LINE",
"90 1000 LINE",
"280 1000 LINE",
"280 1070 LINE SMOOTH",
"280 1218 OFFCURVE",
"342 1280 OFFCURVE",
"486 1280 CURVE"
);
}
);
width = 1562;
},
{
hints = (
{
origin = "{0, 2}";
scale = "{1.2, 1}";
type = Corner;
name = _corner.Serif;
},
{
origin = "{0, 3}";
scale = "{-1.2, 1}";
type = Corner;
name = _corner.Serif;
options = 1;
}
);
layerId = "219068EA-2B9B-40DC-949E-B60449C01B8A";
paths = (
{
closed = 1;
nodes = (
"996 1471 LINE",
"577 1471 LINE",
"577 0 LINE",
"996 0 LINE"
);
},
{
closed = 1;
nodes = (
"1503 1471 LINE",
"71 1471 LINE",
"71 1217 LINE",
"1503 1217 LINE"
);
},
{
closed = 1;
nodes = (
"1153 1217 OFFCURVE",
"1235 1136 OFFCURVE",
"1235 964 CURVE SMOOTH",
"1235 984 LINE",
"1503 984 LINE",
"1503 1217 LINE",
"986 1217 LINE"
);
},
{
closed = 1;
nodes = (
"71 1217 LINE",
"71 984 LINE",
"339 984 LINE",
"339 964 LINE SMOOTH",
"339 1136 OFFCURVE",
"420 1217 OFFCURVE",
"588 1217 CURVE"
);
}
);
width = 1574;
},
{
hints = (
{
origin = "{0, 2}";
scale = "{1.4, 1}";
type = Corner;
name = _corner.Serif;
},
{
origin = "{0, 3}";
scale = "{-1.4, 1}";
type = Corner;
name = _corner.Serif;
options = 1;
}
);
layerId = "0C29AA02-E021-4BD1-A2C4-87F681D64C35";
paths = (
{
closed = 1;
nodes = (
"970 1471 LINE",
"551 1471 LINE",
"551 0 LINE",
"970 0 LINE"
);
},
{
closed = 1;
nodes = (
"1477 1471 LINE",
"45 1471 LINE",
"45 1250 LINE",
"1477 1250 LINE"
);
},
{
closed = 1;
nodes = (
"1157 1250 OFFCURVE",
"1239 1169 OFFCURVE",
"1239 997 CURVE SMOOTH",
"1239 915 LINE",
"1477 915 LINE",
"1477 1250 LINE",
"990 1250 LINE"
);
},
{
closed = 1;
nodes = (
"45 1250 LINE",
"45 915 LINE",
"283 915 LINE",
"283 997 LINE SMOOTH",
"283 1169 OFFCURVE",
"364 1250 OFFCURVE",
"532 1250 CURVE"
);
}
);
width = 1521;
}
);
leftKerningGroup = T;
rightKerningGroup = T;
unicode = 0054;
},
{
glyphname = U;
lastChange = "2020-09-15 07:04:48 +0000";
layers = (
{
hints = (
{
origin = "{0, 6}";
scale = "{0.96, 1}";
type = Corner;
name = _corner.Serif;
},
{
origin = "{0, 7}";
scale = "{-1.06, 1}";
type = Corner;
name = _corner.Serif;
options = 1;
},
{
origin = "{0, 15}";
scale = "{1.06, 1}";
type = Corner;
name = _corner.Serif;
options = 1;
},
{
origin = "{0, 16}";
scale = "{-0.96, 1}";
type = Corner;
name = _corner.Serif;
}
);
layerId = "CA54B7DC-FBBB-40FE-ACF3-AABDD76D6A7B";
leftMetricsKey = "=I-32";
rightMetricsKey = "=I-32";
paths = (
{
closed = 1;
nodes = (
"314 178 OFFCURVE",
"488 -20 OFFCURVE",
"830 -20 CURVE SMOOTH",
"1172 -20 OFFCURVE",
"1346 178 OFFCURVE",
"1346 528 CURVE SMOOTH",
"1346 1440 LINE",
"1300 1440 LINE",
"1300 528 LINE SMOOTH",
"1300 216 OFFCURVE",
"1151 20 OFFCURVE",
"831 20 CURVE SMOOTH",
"511 20 OFFCURVE",
"362 216 OFFCURVE",
"362 528 CURVE SMOOTH",
"362 1440 LINE",
"314 1440 LINE",
"314 528 LINE SMOOTH"
);
}
);
width = 1660;
},
{
hints = (
{
origin = "{0, 6}";
scale = "{0.96, 1}";
type = Corner;
name = _corner.Serif;
},
{
origin = "{0, 7}";
scale = "{-1.16, 1}";
type = Corner;
name = _corner.Serif;
options = 1;
},
{
origin = "{0, 15}";
scale = "{1.16, 1}";
type = Corner;
name = _corner.Serif;
options = 1;
},
{
origin = "{0, 16}";
scale = "{-0.96, 1}";
type = Corner;
name = _corner.Serif;
}
);
layerId = "1E61A082-F045-49A7-AB52-DD1B03FD9B54";
leftMetricsKey = "=I-20";
rightMetricsKey = "=I-20";
paths = (
{
closed = 1;
nodes = (
"263 178 OFFCURVE",
"437 -20 OFFCURVE",
"779 -20 CURVE SMOOTH",
"1121 -20 OFFCURVE",
"1295 178 OFFCURVE",
"1295 528 CURVE SMOOTH",
"1295 1440 LINE",
"1251 1440 LINE",
"1251 528 LINE SMOOTH",
"1251 216 OFFCURVE",
"1101 20 OFFCURVE",
"781 20 CURVE SMOOTH",
"461 20 OFFCURVE",
"311 216 OFFCURVE",
"311 528 CURVE SMOOTH",
"311 1440 LINE",
"263 1440 LINE",
"263 528 LINE SMOOTH"
);
}
);
width = 1558;
},
{
hints = (
{
origin = "{0, 6}";
scale = "{0.96, 0.99}";
type = Corner;
name = _corner.Serif;
},
{
origin = "{0, 7}";
scale = "{-1.16, 0.99}";
type = Corner;
name = _corner.Serif;
options = 1;
},
{
origin = "{0, 15}";
scale = "{1.16, 0.99}";
type = Corner;
name = _corner.Serif;
options = 1;
},
{
origin = "{0, 16}";
scale = "{-0.96, 0.99}";
type = Corner;
name = _corner.Serif;
}
);
layerId = "642E5713-E15A-4A7E-A28E-9A6B75A6585C";
leftMetricsKey = "=I-36";
rightMetricsKey = "=I-36";
paths = (
{
closed = 1;
nodes = (
"226 190 OFFCURVE",
"430 -20 OFFCURVE",
"820 -20 CURVE SMOOTH",
"1209 -20 OFFCURVE",
"1412 190 OFFCURVE",
"1412 562 CURVE SMOOTH",
"1412 1460 LINE",
"1240 1460 LINE",
"1240 546 LINE SMOOTH",
"1240 307 OFFCURVE",
"1125 156 OFFCURVE",
"878 156 CURVE SMOOTH",
"631 156 OFFCURVE",
"516 307 OFFCURVE",
"516 546 CURVE SMOOTH",
"516 1460 LINE",
"226 1460 LINE",
"226 562 LINE SMOOTH"
);
}
);
width = 1638;
},
{
hints = (
{
origin = "{0, 6}";
scale = "{0.96, 0.98}";
type = Corner;
name = _corner.Serif;
},
{
origin = "{0, 7}";
scale = "{-1.06, 0.98}";
type = Corner;
name = _corner.Serif;
options = 1;
},
{
origin = "{0, 15}";
scale = "{1.06, 0.98}";
type = Corner;
name = _corner.Serif;
options = 1;
},
{
origin = "{0, 16}";
scale = "{-0.96, 0.98}";
type = Corner;
name = _corner.Serif;
}
);
layerId = "AF891779-7DE6-4679-9CA2-17B922C1DF84";
leftMetricsKey = "=I-34";
rightMetricsKey = "=I-34";
paths = (
{
closed = 1;
nodes = (
"247 192 OFFCURVE",
"453 -20 OFFCURVE",
"847 -20 CURVE SMOOTH",
"1241 -20 OFFCURVE",
"1447 192 OFFCURVE",
"1447 568 CURVE SMOOTH",
"1447 1460 LINE",
"1221 1460 LINE",
"1221 540 LINE SMOOTH",
"1221 308 OFFCURVE",
"1122 162 OFFCURVE",
"880 162 CURVE SMOOTH",
"638 162 OFFCURVE",
"539 308 OFFCURVE",
"539 540 CURVE SMOOTH",
"539 1460 LINE",
"247 1460 LINE",
"247 568 LINE SMOOTH"
);
}
);
width = 1694;
},
{
hints = (
{
origin = "{0, 6}";
scale = "{0.96, 0.96933}";
type = Corner;
name = _corner.Serif;
},
{
origin = "{0, 7}";
scale = "{-1.06, 0.96933}";
type = Corner;
name = _corner.Serif;
options = 1;
},
{
origin = "{0, 15}";
scale = "{1.06, 0.96933}";
type = Corner;
name = _corner.Serif;
options = 1;
},
{
origin = "{0, 16}";
scale = "{-0.96, 0.96933}";
type = Corner;
name = _corner.Serif;
}
);
layerId = "219068EA-2B9B-40DC-949E-B60449C01B8A";
paths = (
{
closed = 1;
nodes = (
"246 199 OFFCURVE",
"469 -20 OFFCURVE",
"891 -20 CURVE SMOOTH",
"1313 -20 OFFCURVE",
"1536 199 OFFCURVE",
"1536 589 CURVE SMOOTH",
"1536 1471 LINE",
"1214 1471 LINE",
"1214 546 LINE SMOOTH",
"1214 357 OFFCURVE",
"1142 238 OFFCURVE",
"941 238 CURVE SMOOTH",
"741 238 OFFCURVE",
"668 357 OFFCURVE",
"668 546 CURVE SMOOTH",
"668 1471 LINE",
"246 1471 LINE",
"246 589 LINE SMOOTH"
);
}
);
width = 1782;
},
{
hints = (
{
origin = "{0, 6}";
scale = "{0.96, 0.98467}";
type = Corner;
name = _corner.Serif;
},
{
origin = "{0, 7}";
scale = "{-1.16, 0.98467}";
type = Corner;
name = _corner.Serif;
options = 1;
},
{
origin = "{0, 15}";
scale = "{1.16, 0.98467}";
type = Corner;
name = _corner.Serif;
options = 1;
},
{
origin = "{0, 16}";
scale = "{-0.96, 0.98467}";
type = Corner;
name = _corner.Serif;
}
);
layerId = "0C29AA02-E021-4BD1-A2C4-87F681D64C35";
paths = (
{
closed = 1;
nodes = (
"252 196 OFFCURVE",
"472 -20 OFFCURVE",
"888 -20 CURVE SMOOTH",
"1302 -20 OFFCURVE",
"1520 196 OFFCURVE",
"1520 580 CURVE SMOOTH",
"1520 1471 LINE",
"1280 1471 LINE",
"1280 556 LINE SMOOTH",
"1280 356 OFFCURVE",
"1184 229 OFFCURVE",
"976 229 CURVE SMOOTH",
"768 229 OFFCURVE",
"671 356 OFFCURVE",
"671 556 CURVE SMOOTH",
"671 1471 LINE",
"252 1471 LINE",
"252 580 LINE SMOOTH"
);
}
);
width = 1773;
}
);
leftKerningGroup = U;
leftMetricsKey = I;
rightKerningGroup = U;
rightMetricsKey = I;
unicode = 0055;
},
{
glyphname = V;
lastChange = "2020-09-15 07:04:48 +0000";
layers = (
{
hints = (
{
origin = "{0, 0}";
scale = "{-1.06, 1}";
type = Corner;
name = _corner.Serif;
options = 1;
},
{
origin = "{0, 3}";
scale = "{1.06, 1}";
type = Corner;
name = _corner.Serif;
},
{
origin = "{0, 4}";
scale = "{-0.6, 1}";
type = Corner;
name = _corner.Serif;
options = 1;
},
{
origin = "{0, 7}";
scale = "{0.6, 1}";
type = Corner;
name = _corner.Serif;
}
);
layerId = "CA54B7DC-FBBB-40FE-ACF3-AABDD76D6A7B";
paths = (
{
closed = 1;
nodes = (
"1319 1440 LINE",
"770 47 LINE",
"783 47 LINE",
"234 1440 LINE",
"182 1440 LINE",
"752 0 LINE",
"796 0 LINE",
"1366 1440 LINE"
);
}
);
width = 1548;
},
{
hints = (
{
origin = "{0, 0}";
scale = "{-1.16, 1}";
type = Corner;
name = _corner.Serif;
options = 1;
},
{
origin = "{0, 3}";
scale = "{1.16, 1}";
type = Corner;
name = _corner.Serif;
},
{
origin = "{0, 4}";
scale = "{-0.6, 1}";
type = Corner;
name = _corner.Serif;
options = 1;
},
{
origin = "{0, 7}";
scale = "{0.6, 1}";
type = Corner;
name = _corner.Serif;
}
);
layerId = "1E61A082-F045-49A7-AB52-DD1B03FD9B54";
paths = (
{
closed = 1;
nodes = (
"1324 1440 LINE",
"775 47 LINE",
"788 47 LINE",
"239 1440 LINE",
"187 1440 LINE",
"757 0 LINE",
"799 0 LINE",
"1369 1440 LINE"
);
}
);
width = 1554;
},
{
hints = (
{
origin = "{0, 0}";
scale = "{-1.46, 0.99}";
type = Corner;
name = _corner.Serif;
options = 1;
},
{
origin = "{0, 3}";
scale = "{1.46, 0.99}";
type = Corner;
name = _corner.Serif;
},
{
origin = "{0, 4}";
scale = "{-0.46, 0.99}";
type = Corner;
name = _corner.Serif;
options = 1;
},
{
origin = "{0, 7}";
scale = "{0.46, 0.99}";
type = Corner;
name = _corner.Serif;
}
);
layerId = "642E5713-E15A-4A7E-A28E-9A6B75A6585C";
paths = (
{
closed = 1;
nodes = (
"1331 1460 LINE",
"830 167 LINE",
"936 166 LINE",
"446 1460 LINE",
"132 1460 LINE",
"702 0 LINE",
"944 0 LINE",
"1514 1460 LINE"
);
}
);
width = 1644;
},
{
hints = (
{
origin = "{0, 0}";
scale = "{-1.36, 0.98}";
type = Corner;
name = _corner.Serif;
options = 1;
},
{
origin = "{0, 3}";
scale = "{1.36, 0.98}";
type = Corner;
name = _corner.Serif;
},
{
origin = "{0, 4}";
scale = "{-0.46, 0.98}";
type = Corner;
name = _corner.Serif;
options = 1;
},
{
origin = "{0, 7}";
scale = "{0.46, 0.98}";
type = Corner;
name = _corner.Serif;
}
);
layerId = "AF891779-7DE6-4679-9CA2-17B922C1DF84";
paths = (
{
closed = 1;
nodes = (
"1311 1460 LINE",
"810 167 LINE",
"930 166 LINE",
"441 1460 LINE",
"127 1460 LINE",
"697 0 LINE",
"952 0 LINE",
"1522 1460 LINE"
);
}
);
width = 1649;
},
{
hints = (
{
origin = "{0, 0}";
scale = "{-1.52, 0.96933}";
type = Corner;
name = _corner.Serif;
options = 1;
},
{
origin = "{0, 3}";
scale = "{1.52, 0.96933}";
type = Corner;
name = _corner.Serif;
},
{
origin = "{0, 4}";
scale = "{-0.38533, 0.96933}";
type = Corner;
name = _corner.Serif;
options = 1;
},
{
origin = "{0, 7}";
scale = "{0.38533, 0.96933}";
type = Corner;
name = _corner.Serif;
}
);
layerId = "219068EA-2B9B-40DC-949E-B60449C01B8A";
paths = (
{
closed = 1;
nodes = (
"1307 1471 LINE",
"831 231 LINE",
"1008 229 LINE",
"551 1471 LINE",
"98 1471 LINE",
"668 0 LINE",
"1035 0 LINE",
"1605 1471 LINE"
);
}
);
width = 1703;
},
{
hints = (
{
origin = "{0, 0}";
scale = "{-1.62, 0.98467}";
type = Corner;
name = _corner.Serif;
options = 1;
},
{
origin = "{0, 3}";
scale = "{1.62, 0.98467}";
type = Corner;
name = _corner.Serif;
},
{
origin = "{0, 4}";
scale = "{-0.38533, 0.98467}";
type = Corner;
name = _corner.Serif;
options = 1;
},
{
origin = "{0, 7}";
scale = "{0.38533, 0.98467}";
type = Corner;
name = _corner.Serif;
}
);
layerId = "0C29AA02-E021-4BD1-A2C4-87F681D64C35";
paths = (
{
closed = 1;
nodes = (
"1324 1471 LINE",
"848 231 LINE",
"1004 229 LINE",
"545 1471 LINE",
"92 1471 LINE",
"662 0 LINE",
"1010 0 LINE",
"1580 1471 LINE"
);
}
);
width = 1670;
}
);
leftKerningGroup = V;
leftMetricsKey = A;
rightKerningGroup = V;
rightMetricsKey = A;
unicode = 0056;
},
{
glyphname = W;
lastChange = "2020-09-15 07:04:48 +0000";
layers = (
{
hints = (
{
origin = "{0, 0}";
scale = "{-1.06, 1}";
type = Corner;
name = _corner.Serif;
options = 1;
},
{
origin = "{0, 3}";
scale = "{1.06, 1}";
type = Corner;
name = _corner.Serif;
},
{
origin = "{0, 4}";
scale = "{-0.6, 1}";
type = Corner;
name = _corner.Serif;
options = 1;
},
{
origin = "{0, 7}";
scale = "{0.6, 1}";
type = Corner;
name = _corner.Serif;
},
{
origin = "{1, 3}";
scale = "{1.06, 1}";
type = Corner;
name = _corner.Serif;
},
{
origin = "{1, 4}";
scale = "{-0.6, 1}";
type = Corner;
name = _corner.Serif;
options = 1;
}
);
layerId = "CA54B7DC-FBBB-40FE-ACF3-AABDD76D6A7B";
paths = (
{
closed = 1;
nodes = (
"1860 1440 LINE",
"1398 47 LINE",
"1415 47 LINE",
"953 1440 LINE",
"902 1440 LINE",
"1382 0 LINE",
"1426 0 LINE",
"1906 1440 LINE"
);
},
{
closed = 1;
nodes = (
"1036 1129 LINE",
"678 47 LINE",
"695 47 LINE",
"233 1440 LINE",
"182 1440 LINE",
"662 0 LINE",
"706 0 LINE",
"1057 1054 LINE"
);
}
);
width = 2088;
},
{
hints = (
{
origin = "{0, 0}";
scale = "{-1.06, 1}";
type = Corner;
name = _corner.Serif;
options = 1;
},
{
origin = "{0, 3}";
scale = "{1.06, 1}";
type = Corner;
name = _corner.Serif;
},
{
origin = "{0, 4}";
scale = "{-0.6, 1}";
type = Corner;
name = _corner.Serif;
options = 1;
},
{
origin = "{0, 7}";
scale = "{0.6, 1}";
type = Corner;
name = _corner.Serif;
},
{
origin = "{1, 3}";
scale = "{1.06, 1}";
type = Corner;
name = _corner.Serif;
},
{
origin = "{1, 4}";
scale = "{-0.6, 1}";
type = Corner;
name = _corner.Serif;
options = 1;
}
);
layerId = "1E61A082-F045-49A7-AB52-DD1B03FD9B54";
paths = (
{
closed = 1;
nodes = (
"1867 1440 LINE",
"1405 47 LINE",
"1420 47 LINE",
"958 1440 LINE",
"907 1440 LINE",
"1387 0 LINE",
"1431 0 LINE",
"1911 1440 LINE"
);
},
{
closed = 1;
nodes = (
"1044 1130 LINE",
"685 47 LINE",
"700 47 LINE",
"238 1440 LINE",
"187 1440 LINE",
"667 0 LINE",
"711 0 LINE",
"1062 1054 LINE"
);
}
);
width = 2096;
},
{
hints = (
{
origin = "{0, 0}";
scale = "{-1.24, 0.99}";
type = Corner;
name = _corner.Serif;
options = 1;
},
{
origin = "{0, 3}";
scale = "{1.24, 0.99}";
type = Corner;
name = _corner.Serif;
},
{
origin = "{0, 4}";
scale = "{-0.48, 0.99}";
type = Corner;
name = _corner.Serif;
options = 1;
},
{
origin = "{0, 7}";
scale = "{0.48, 0.99}";
type = Corner;
name = _corner.Serif;
},
{
origin = "{1, 3}";
scale = "{1.22, 0.99}";
type = Corner;
name = _corner.Serif;
},
{
origin = "{1, 4}";
scale = "{-0.48, 0.99}";
type = Corner;
name = _corner.Serif;
options = 1;
}
);
layerId = "642E5713-E15A-4A7E-A28E-9A6B75A6585C";
paths = (
{
closed = 1;
nodes = (
"1835 1460 LINE",
"1457 167 LINE",
"1574 166 LINE",
"1206 1460 LINE",
"914 1460 LINE",
"1344 0 LINE",
"1582 0 LINE",
"2012 1460 LINE"
);
},
{
closed = 1;
nodes = (
"1023 1302 LINE",
"691 167 LINE",
"806 166 LINE",
"441 1460 LINE",
"136 1460 LINE",
"566 0 LINE",
"810 0 LINE",
"1132 1098 LINE"
);
}
);
width = 2146;
},
{
hints = (
{
origin = "{0, 0}";
scale = "{-1.16, 0.99}";
type = Corner;
name = _corner.Serif;
options = 1;
},
{
origin = "{0, 3}";
scale = "{1.16, 0.99}";
type = Corner;
name = _corner.Serif;
},
{
origin = "{0, 4}";
scale = "{-0.42, 0.99}";
type = Corner;
name = _corner.Serif;
options = 1;
},
{
origin = "{0, 7}";
scale = "{0.48, 0.99}";
type = Corner;
name = _corner.Serif;
},
{
origin = "{1, 3}";
scale = "{1.1, 0.99}";
type = Corner;
name = _corner.Serif;
},
{
origin = "{1, 4}";
scale = "{-0.48, 0.99}";
type = Corner;
name = _corner.Serif;
options = 1;
}
);
layerId = "AF891779-7DE6-4679-9CA2-17B922C1DF84";
paths = (
{
closed = 1;
nodes = (
"1819 1460 LINE",
"1441 167 LINE",
"1562 166 LINE",
"1194 1460 LINE",
"902 1460 LINE",
"1332 0 LINE",
"1585 0 LINE",
"2015 1460 LINE"
);
},
{
closed = 1;
nodes = (
"1013 1302 LINE",
"681 167 LINE",
"800 166 LINE",
"435 1460 LINE",
"130 1460 LINE",
"560 0 LINE",
"819 0 LINE",
"1141 1098 LINE"
);
}
);
width = 2145;
},
{
hints = (
{
origin = "{0, 0}";
scale = "{-1.21333, 0.98467}";
type = Corner;
name = _corner.Serif;
options = 1;
},
{
origin = "{0, 3}";
scale = "{1.21333, 0.98467}";
type = Corner;
name = _corner.Serif;
},
{
origin = "{0, 4}";
scale = "{-0.324, 0.98467}";
type = Corner;
name = _corner.Serif;
options = 1;
},
{
origin = "{0, 7}";
scale = "{0.416, 0.98467}";
type = Corner;
name = _corner.Serif;
},
{
origin = "{1, 3}";
scale = "{1.12133, 0.98467}";
type = Corner;
name = _corner.Serif;
},
{
origin = "{1, 4}";
scale = "{-0.416, 0.98467}";
type = Corner;
name = _corner.Serif;
options = 1;
}
);
layerId = "219068EA-2B9B-40DC-949E-B60449C01B8A";
paths = (
{
closed = 1;
nodes = (
"1797 1471 LINE",
"1464 231 LINE",
"1640 229 LINE",
"1323 1471 LINE",
"902 1471 LINE",
"1305 0 LINE",
"1670 0 LINE",
"2073 1471 LINE"
);
},
{
closed = 1;
nodes = (
"1001 1394 LINE",
"683 231 LINE",
"856 229 LINE",
"543 1471 LINE",
"102 1471 LINE",
"506 0 LINE",
"879 0 LINE",
"1186 1121 LINE"
);
}
);
width = 2175;
},
{
hints = (
{
origin = "{0, 0}";
scale = "{-1.336, 0.98467}";
type = Corner;
name = _corner.Serif;
options = 1;
},
{
origin = "{0, 3}";
scale = "{1.336, 0.98467}";
type = Corner;
name = _corner.Serif;
},
{
origin = "{0, 4}";
scale = "{-0.416, 0.98467}";
type = Corner;
name = _corner.Serif;
options = 1;
},
{
origin = "{0, 7}";
scale = "{0.416, 0.98467}";
type = Corner;
name = _corner.Serif;
},
{
origin = "{1, 3}";
scale = "{1.30533, 0.98467}";
type = Corner;
name = _corner.Serif;
},
{
origin = "{1, 4}";
scale = "{-0.416, 0.98467}";
type = Corner;
name = _corner.Serif;
options = 1;
}
);
layerId = "0C29AA02-E021-4BD1-A2C4-87F681D64C35";
paths = (
{
closed = 1;
nodes = (
"1806 1471 LINE",
"1473 231 LINE",
"1644 229 LINE",
"1326 1471 LINE",
"906 1471 LINE",
"1309 0 LINE",
"1651 0 LINE",
"2054 1471 LINE"
);
},
{
closed = 1;
nodes = (
"1000 1394 LINE",
"682 231 LINE",
"851 229 LINE",
"537 1471 LINE",
"97 1471 LINE",
"500 0 LINE",
"851 0 LINE",
"1157 1121 LINE"
);
}
);
width = 2149;
}
);
leftKerningGroup = W;
leftMetricsKey = V;
rightKerningGroup = W;
rightMetricsKey = V;
unicode = 0057;
},
{
glyphname = X;
lastChange = "2020-09-15 06:43:15 +0000";
layers = (
{
hints = (
{
origin = "{0, 6}";
scale = "{1.06, 1}";
type = Corner;
name = _corner.Serif;
},
{
origin = "{0, 7}";
scale = "{-0.56, 1}";
type = Corner;
name = _corner.Serif;
options = 1;
},
{
origin = "{0, 2}";
scale = "{0.56, 1}";
type = Corner;
name = _corner.Serif;
},
{
origin = "{0, 3}";
scale = "{-1.06, 1}";
type = Corner;
name = _corner.Serif;
options = 1;
},
{
origin = "{1, 2}";
scale = "{0.6, 1}";
type = Corner;
name = _corner.Serif;
},
{
origin = "{1, 3}";
scale = "{-1.1, 1}";
type = Corner;
name = _corner.Serif;
options = 1;
},
{
origin = "{1, 6}";
scale = "{1.1, 1}";
type = Corner;
name = _corner.Serif;
},
{
origin = "{1, 7}";
scale = "{-0.6, 1}";
type = Corner;
name = _corner.Serif;
options = 1;
}
);
layerId = "CA54B7DC-FBBB-40FE-ACF3-AABDD76D6A7B";
paths = (
{
closed = 1;
nodes = (
"802 708 LINE",
"822 708 LINE",
"1380 1440 LINE",
"1325 1440 LINE",
"797 747 LINE",
"832 747 LINE",
"304 1440 LINE",
"244 1440 LINE"
);
},
{
closed = 1;
nodes = (
"822 764 LINE",
"802 764 LINE",
"220 0 LINE",
"275 0 LINE",
"827 725 LINE",
"792 725 LINE",
"1344 0 LINE",
"1404 0 LINE"
);
}
);
width = 1624;
},
{
hints = (
{
origin = "{0, 2}";
scale = "{0.56, 1}";
type = Corner;
name = _corner.Serif;
},
{
origin = "{0, 3}";
scale = "{-1.06, 1}";
type = Corner;
name = _corner.Serif;
options = 1;
},
{
origin = "{0, 6}";
scale = "{1.06, 1}";
type = Corner;
name = _corner.Serif;
},
{
origin = "{0, 7}";
scale = "{-0.56, 1}";
type = Corner;
name = _corner.Serif;
options = 1;
},
{
origin = "{1, 3}";
scale = "{-1.1, 1}";
type = Corner;
name = _corner.Serif;
options = 1;
},
{
origin = "{1, 6}";
scale = "{1.1, 1}";
type = Corner;
name = _corner.Serif;
},
{
origin = "{1, 7}";
scale = "{-0.6, 1}";
type = Corner;
name = _corner.Serif;
options = 1;
},
{
origin = "{1, 2}";
scale = "{0.6, 1}";
type = Corner;
name = _corner.Serif;
}
);
layerId = "1E61A082-F045-49A7-AB52-DD1B03FD9B54";
paths = (
{
closed = 1;
nodes = (
"773 708 LINE",
"794 708 LINE",
"1352 1440 LINE",
"1294 1440 LINE",
"766 747 LINE",
"803 747 LINE",
"275 1440 LINE",
"215 1440 LINE"
);
},
{
closed = 1;
nodes = (
"793 764 LINE",
"772 764 LINE",
"190 0 LINE",
"248 0 LINE",
"800 725 LINE",
"763 725 LINE",
"1315 0 LINE",
"1375 0 LINE"
);
}
);
width = 1565;
},
{
hints = (
{
origin = "{0, 2}";
scale = "{0.02, 0.99}";
type = Corner;
name = _corner.Serif;
},
{
origin = "{0, 3}";
scale = "{-1.66, 0.99}";
type = Corner;
name = _corner.Serif;
options = 1;
},
{
origin = "{0, 6}";
scale = "{1.62, 0.99}";
type = Corner;
name = _corner.Serif;
},
{
origin = "{0, 7}";
scale = "{-0.02, 0.99}";
type = Corner;
name = _corner.Serif;
options = 1;
},
{
origin = "{1, 2}";
scale = "{0.06, 1}";
type = Corner;
name = _corner.Serif;
},
{
origin = "{1, 3}";
scale = "{-1.77, 1}";
type = Corner;
name = _corner.Serif;
options = 1;
},
{
origin = "{1, 6}";
scale = "{1.73, 1}";
type = Corner;
name = _corner.Serif;
},
{
origin = "{1, 7}";
scale = "{-0.06, 1}";
type = Corner;
name = _corner.Serif;
options = 1;
}
);
layerId = "642E5713-E15A-4A7E-A28E-9A6B75A6585C";
paths = (
{
closed = 1;
nodes = (
"664 678 LINE",
"868 678 LINE",
"1489 1460 LINE",
"1276 1460 LINE",
"786 837 LINE",
"887 837 LINE",
"434 1460 LINE",
"74 1460 LINE"
);
},
{
closed = 1;
nodes = (
"921 812 LINE",
"719 812 LINE",
"74 0 LINE",
"287 0 LINE",
"801 653 LINE",
"699 653 LINE",
"1173 0 LINE",
"1534 0 LINE"
);
}
);
width = 1600;
},
{
hints = (
{
origin = "{0, 2}";
scale = "{0.02, 0.98}";
type = Corner;
name = _corner.Serif;
},
{
origin = "{0, 3}";
scale = "{-1.61, 0.98}";
type = Corner;
name = _corner.Serif;
options = 1;
},
{
origin = "{0, 6}";
scale = "{1.65, 0.98}";
type = Corner;
name = _corner.Serif;
},
{
origin = "{0, 7}";
scale = "{-0.02, 0.98}";
type = Corner;
name = _corner.Serif;
options = 1;
},
{
origin = "{1, 2}";
scale = "{0.06, 1}";
type = Corner;
name = _corner.Serif;
},
{
origin = "{1, 3}";
scale = "{-1.72, 1}";
type = Corner;
name = _corner.Serif;
options = 1;
},
{
origin = "{1, 6}";
scale = "{1.68, 1}";
type = Corner;
name = _corner.Serif;
},
{
origin = "{1, 7}";
scale = "{-0.06, 1}";
type = Corner;
name = _corner.Serif;
options = 1;
}
);
layerId = "AF891779-7DE6-4679-9CA2-17B922C1DF84";
paths = (
{
closed = 1;
nodes = (
"691 678 LINE",
"909 678 LINE",
"1530 1460 LINE",
"1286 1460 LINE",
"799 837 LINE",
"914 837 LINE",
"462 1460 LINE",
"101 1460 LINE"
);
},
{
closed = 1;
nodes = (
"952 812 LINE",
"748 812 LINE",
"103 0 LINE",
"347 0 LINE",
"859 653 LINE",
"730 653 LINE",
"1204 0 LINE",
"1565 0 LINE"
);
}
);
width = 1656;
},
{
hints = (
{
origin = "{0, 6}";
scale = "{1.96467, 0.96933}";
type = Corner;
name = _corner.Serif;
},
{
origin = "{0, 7}";
scale = "{0.268, 0.96933}";
type = Corner;
name = _corner.Serif;
options = 1;
},
{
origin = "{0, 2}";
scale = "{-0.268, 0.96933}";
type = Corner;
name = _corner.Serif;
},
{
origin = "{0, 3}";
scale = "{-1.90333, 0.96933}";
type = Corner;
name = _corner.Serif;
options = 1;
},
{
origin = "{1, 2}";
scale = "{-0.228, 1}";
type = Corner;
name = _corner.Serif;
},
{
origin = "{1, 3}";
scale = "{-2.05067, 1}";
type = Corner;
name = _corner.Serif;
options = 1;
},
{
origin = "{1, 6}";
scale = "{1.98933, 1}";
type = Corner;
name = _corner.Serif;
},
{
origin = "{1, 7}";
scale = "{0.228, 1}";
type = Corner;
name = _corner.Serif;
options = 1;
}
);
layerId = "219068EA-2B9B-40DC-949E-B60449C01B8A";
paths = (
{
closed = 1;
nodes = (
"632 662 LINE",
"955 662 LINE",
"1610 1471 LINE",
"1265 1471 LINE",
"800 885 LINE",
"958 885 LINE",
"546 1471 LINE",
"25 1471 LINE"
);
},
{
closed = 1;
nodes = (
"1021 838 LINE",
"719 838 LINE",
"41 0 LINE",
"385 0 LINE",
"876 615 LINE",
"697 615 LINE",
"1129 0 LINE",
"1651 0 LINE"
);
}
);
width = 1673;
},
{
hints = (
{
origin = "{0, 2}";
scale = "{-0.268, 0.98467}";
type = Corner;
name = _corner.Serif;
},
{
origin = "{0, 3}";
scale = "{-1.98, 0.98467}";
type = Corner;
name = _corner.Serif;
options = 1;
},
{
origin = "{0, 6}";
scale = "{1.91867, 0.98467}";
type = Corner;
name = _corner.Serif;
},
{
origin = "{0, 7}";
scale = "{0.268, 0.98467}";
type = Corner;
name = _corner.Serif;
options = 1;
},
{
origin = "{1, 3}";
scale = "{-2.12733, 1}";
type = Corner;
name = _corner.Serif;
options = 1;
},
{
origin = "{1, 6}";
scale = "{2.066, 1}";
type = Corner;
name = _corner.Serif;
},
{
origin = "{1, 7}";
scale = "{0.228, 1}";
type = Corner;
name = _corner.Serif;
options = 1;
},
{
origin = "{1, 2}";
scale = "{-0.228, 1}";
type = Corner;
name = _corner.Serif;
}
);
layerId = "0C29AA02-E021-4BD1-A2C4-87F681D64C35";
paths = (
{
closed = 1;
nodes = (
"606 662 LINE",
"907 662 LINE",
"1562 1471 LINE",
"1266 1471 LINE",
"797 885 LINE",
"932 885 LINE",
"519 1471 LINE",
"-1 1471 LINE"
);
},
{
closed = 1;
nodes = (
"989 838 LINE",
"691 838 LINE",
"12 0 LINE",
"308 0 LINE",
"802 615 LINE",
"665 615 LINE",
"1097 0 LINE",
"1619 0 LINE"
);
}
);
width = 1619;
}
);
leftKerningGroup = X;
rightKerningGroup = X;
unicode = 0058;
},
{
glyphname = Y;
lastChange = "2020-09-15 07:04:48 +0000";
layers = (
{
hints = (
{
origin = "{0, 2}";
scale = "{1.2, 1}";
type = Corner;
name = _corner.Serif;
},
{
origin = "{0, 3}";
scale = "{-1.2, 1}";
type = Corner;
name = _corner.Serif;
options = 1;
},
{
origin = "{1, 0}";
scale = "{-1.06, 1}";
type = Corner;
name = _corner.Serif;
options = 1;
},
{
origin = "{1, 3}";
scale = "{1.06, 1}";
type = Corner;
name = _corner.Serif;
},
{
origin = "{1, 4}";
scale = "{-0.5, 1}";
type = Corner;
name = _corner.Serif;
options = 1;
},
{
origin = "{1, 7}";
scale = "{0.5, 1}";
type = Corner;
name = _corner.Serif;
}
);
layerId = "CA54B7DC-FBBB-40FE-ACF3-AABDD76D6A7B";
leftMetricsKey = "=V-24";
rightMetricsKey = "=V-24";
paths = (
{
closed = 1;
nodes = (
"752 618 LINE",
"704 618 LINE",
"704 0 LINE",
"752 0 LINE"
);
},
{
closed = 1;
nodes = (
"1266 1440 LINE",
"720 613 LINE",
"740 613 LINE",
"194 1440 LINE",
"137 1440 LINE",
"707 577 LINE",
"749 577 LINE",
"1319 1440 LINE"
);
}
);
width = 1456;
},
{
hints = (
{
origin = "{0, 2}";
scale = "{1.4, 1}";
type = Corner;
name = _corner.Serif;
},
{
origin = "{0, 3}";
scale = "{-1.4, 1}";
type = Corner;
name = _corner.Serif;
options = 1;
},
{
origin = "{1, 0}";
scale = "{-1.16, 1}";
type = Corner;
name = _corner.Serif;
options = 1;
},
{
origin = "{1, 3}";
scale = "{1.16, 1}";
type = Corner;
name = _corner.Serif;
},
{
origin = "{1, 4}";
scale = "{-0.5, 1}";
type = Corner;
name = _corner.Serif;
options = 1;
},
{
origin = "{1, 7}";
scale = "{0.5, 1}";
type = Corner;
name = _corner.Serif;
}
);
layerId = "1E61A082-F045-49A7-AB52-DD1B03FD9B54";
leftMetricsKey = "=V-16";
rightMetricsKey = "=V-16";
paths = (
{
closed = 1;
nodes = (
"763 610 LINE",
"715 610 LINE",
"715 0 LINE",
"763 0 LINE"
);
},
{
closed = 1;
nodes = (
"1280 1440 LINE",
"734 613 LINE",
"751 613 LINE",
"205 1440 LINE",
"148 1440 LINE",
"718 577 LINE",
"760 577 LINE",
"1330 1440 LINE"
);
}
);
width = 1476;
},
{
hints = (
{
origin = "{0, 2}";
scale = "{1.4, 1}";
type = Corner;
name = _corner.Serif;
},
{
origin = "{0, 3}";
scale = "{-1.4, 1}";
type = Corner;
name = _corner.Serif;
options = 1;
},
{
origin = "{1, 0}";
scale = "{-1.52, 0.99}";
type = Corner;
name = _corner.Serif;
options = 1;
},
{
origin = "{1, 3}";
scale = "{1.52, 0.99}";
type = Corner;
name = _corner.Serif;
},
{
origin = "{1, 4}";
scale = "{-0.22, 0.99}";
type = Corner;
name = _corner.Serif;
options = 1;
},
{
origin = "{1, 7}";
scale = "{0.22, 0.99}";
type = Corner;
name = _corner.Serif;
}
);
layerId = "642E5713-E15A-4A7E-A28E-9A6B75A6585C";
paths = (
{
closed = 1;
nodes = (
"906 729 LINE",
"616 729 LINE",
"616 0 LINE",
"906 0 LINE"
);
},
{
closed = 1;
nodes = (
"1247 1460 LINE",
"800 716 LINE",
"863 716 LINE",
"423 1460 LINE",
"84 1460 LINE",
"634 558 LINE",
"890 558 LINE",
"1440 1460 LINE"
);
}
);
width = 1522;
},
{
hints = (
{
origin = "{0, 2}";
scale = "{1.2, 1}";
type = Corner;
name = _corner.Serif;
},
{
origin = "{0, 3}";
scale = "{-1.2, 1}";
type = Corner;
name = _corner.Serif;
options = 1;
},
{
origin = "{1, 0}";
scale = "{-1.46, 0.98}";
type = Corner;
name = _corner.Serif;
options = 1;
},
{
origin = "{1, 3}";
scale = "{1.46, 0.98}";
type = Corner;
name = _corner.Serif;
},
{
origin = "{1, 4}";
scale = "{-0.2, 0.98}";
type = Corner;
name = _corner.Serif;
options = 1;
},
{
origin = "{1, 7}";
scale = "{0.2, 0.98}";
type = Corner;
name = _corner.Serif;
}
);
layerId = "AF891779-7DE6-4679-9CA2-17B922C1DF84";
leftMetricsKey = "=V-10";
rightMetricsKey = "=V-10";
paths = (
{
closed = 1;
nodes = (
"892 729 LINE",
"602 729 LINE",
"602 0 LINE",
"892 0 LINE"
);
},
{
closed = 1;
nodes = (
"1203 1460 LINE",
"755 716 LINE",
"849 716 LINE",
"410 1460 LINE",
"70 1460 LINE",
"620 558 LINE",
"876 558 LINE",
"1426 1460 LINE"
);
}
);
width = 1496;
},
{
hints = (
{
origin = "{0, 2}";
scale = "{1.2, 1}";
type = Corner;
name = _corner.Serif;
},
{
origin = "{0, 3}";
scale = "{-1.2, 1}";
type = Corner;
name = _corner.Serif;
options = 1;
},
{
origin = "{1, 0}";
scale = "{-1.67333, 0.96933}";
type = Corner;
name = _corner.Serif;
options = 1;
},
{
origin = "{1, 3}";
scale = "{1.67333, 0.96933}";
type = Corner;
name = _corner.Serif;
},
{
origin = "{1, 4}";
scale = "{-0.04, 0.96933}";
type = Corner;
name = _corner.Serif;
options = 1;
},
{
origin = "{1, 7}";
scale = "{0.04, 0.96933}";
type = Corner;
name = _corner.Serif;
}
);
layerId = "219068EA-2B9B-40DC-949E-B60449C01B8A";
paths = (
{
closed = 1;
nodes = (
"979 788 LINE",
"560 788 LINE",
"560 0 LINE",
"979 0 LINE"
);
},
{
closed = 1;
nodes = (
"1181 1471 LINE",
"786 771 LINE",
"919 771 LINE",
"537 1471 LINE",
"46 1471 LINE",
"586 548 LINE",
"956 548 LINE",
"1495 1471 LINE"
);
}
);
width = 1541;
},
{
hints = (
{
origin = "{0, 2}";
scale = "{1.4, 1}";
type = Corner;
name = _corner.Serif;
},
{
origin = "{0, 3}";
scale = "{-1.4, 1}";
type = Corner;
name = _corner.Serif;
options = 1;
},
{
origin = "{1, 0}";
scale = "{-1.712, 0.98467}";
type = Corner;
name = _corner.Serif;
options = 1;
},
{
origin = "{1, 3}";
scale = "{1.712, 0.98467}";
type = Corner;
name = _corner.Serif;
},
{
origin = "{1, 4}";
scale = "{-0.07067, 0.98467}";
type = Corner;
name = _corner.Serif;
options = 1;
},
{
origin = "{1, 7}";
scale = "{0.07067, 0.98467}";
type = Corner;
name = _corner.Serif;
}
);
layerId = "0C29AA02-E021-4BD1-A2C4-87F681D64C35";
paths = (
{
closed = 1;
nodes = (
"975 792 LINE",
"556 792 LINE",
"556 0 LINE",
"975 0 LINE"
);
},
{
closed = 1;
nodes = (
"1222 1471 LINE",
"828 771 LINE",
"916 771 LINE",
"532 1471 LINE",
"43 1471 LINE",
"582 548 LINE",
"952 548 LINE",
"1492 1471 LINE"
);
}
);
width = 1533;
}
);
leftKerningGroup = Y;
leftMetricsKey = V;
rightKerningGroup = Y;
rightMetricsKey = V;
unicode = 0059;
},
{
glyphname = Z;
lastChange = "2020-09-15 06:43:15 +0000";
layers = (
{
layerId = "CA54B7DC-FBBB-40FE-ACF3-AABDD76D6A7B";
paths = (
{
closed = 1;
nodes = (
"220 1398 LINE",
"1208 1398 LINE",
"1268 1402 LINE",
"1268 1440 LINE",
"220 1440 LINE"
);
},
{
closed = 1;
nodes = (
"188 0 LINE",
"1268 0 LINE",
"1268 42 LINE",
"248 42 LINE",
"188 38 LINE"
);
},
{
closed = 1;
nodes = (
"248 42 LINE",
"1268 1402 LINE",
"1208 1398 LINE",
"188 38 LINE"
);
},
{
closed = 1;
nodes = (
"220 1398 LINE",
"220 1050 LINE",
"263 1050 LINE",
"263 1268 LINE SMOOTH",
"263 1372 OFFCURVE",
"289 1398 OFFCURVE",
"389 1398 CURVE"
);
},
{
closed = 1;
nodes = (
"1268 42 LINE",
"1268 410 LINE",
"1225 410 LINE",
"1225 172 LINE SMOOTH",
"1225 68 OFFCURVE",
"1199 42 OFFCURVE",
"1099 42 CURVE"
);
}
);
width = 1450;
},
{
layerId = "1E61A082-F045-49A7-AB52-DD1B03FD9B54";
paths = (
{
closed = 1;
nodes = (
"186 1400 LINE",
"1174 1400 LINE",
"1234 1404 LINE",
"1234 1440 LINE",
"186 1440 LINE"
);
},
{
closed = 1;
nodes = (
"154 0 LINE",
"1234 0 LINE",
"1234 40 LINE",
"214 40 LINE",
"154 36 LINE"
);
},
{
closed = 1;
nodes = (
"214 40 LINE",
"1234 1404 LINE",
"1174 1400 LINE",
"154 36 LINE"
);
},
{
closed = 1;
nodes = (
"186 1400 LINE",
"186 900 LINE",
"228 900 LINE",
"228 1270 LINE SMOOTH",
"228 1374 OFFCURVE",
"254 1400 OFFCURVE",
"354 1400 CURVE"
);
},
{
closed = 1;
nodes = (
"1234 40 LINE",
"1234 560 LINE",
"1192 560 LINE",
"1192 170 LINE SMOOTH",
"1192 66 OFFCURVE",
"1166 40 OFFCURVE",
"1066 40 CURVE"
);
}
);
width = 1404;
},
{
layerId = "642E5713-E15A-4A7E-A28E-9A6B75A6585C";
paths = (
{
closed = 1;
nodes = (
"134 1302 LINE",
"911 1302 LINE",
"1280 1326 LINE",
"1280 1460 LINE",
"134 1460 LINE"
);
},
{
closed = 1;
nodes = (
"90 0 LINE",
"1274 0 LINE",
"1274 160 LINE",
"459 160 LINE",
"90 136 LINE"
);
},
{
closed = 1;
nodes = (
"459 160 LINE",
"1280 1326 LINE",
"911 1302 LINE",
"90 136 LINE"
);
},
{
closed = 1;
nodes = (
"134 1302 LINE",
"134 910 LINE",
"304 910 LINE",
"304 1092 LINE SMOOTH",
"304 1240 OFFCURVE",
"366 1302 OFFCURVE",
"510 1302 CURVE"
);
},
{
closed = 1;
nodes = (
"1274 160 LINE",
"1274 570 LINE",
"1104 570 LINE",
"1104 370 LINE SMOOTH",
"1104 222 OFFCURVE",
"1042 160 OFFCURVE",
"898 160 CURVE"
);
}
);
width = 1378;
},
{
layerId = "AF891779-7DE6-4679-9CA2-17B922C1DF84";
paths = (
{
closed = 1;
nodes = (
"164 1280 LINE",
"940 1280 LINE",
"1316 1304 LINE",
"1316 1460 LINE",
"164 1460 LINE"
);
},
{
closed = 1;
nodes = (
"126 0 LINE",
"1316 0 LINE",
"1316 184 LINE",
"502 184 LINE",
"126 160 LINE"
);
},
{
closed = 1;
nodes = (
"502 184 LINE",
"1316 1304 LINE",
"940 1280 LINE",
"126 160 LINE"
);
},
{
closed = 1;
nodes = (
"164 1280 LINE",
"164 1010 LINE",
"354 1010 LINE",
"354 1070 LINE SMOOTH",
"354 1218 OFFCURVE",
"416 1280 OFFCURVE",
"560 1280 CURVE"
);
},
{
closed = 1;
nodes = (
"1316 184 LINE",
"1316 480 LINE",
"1126 480 LINE",
"1126 394 LINE SMOOTH",
"1126 246 OFFCURVE",
"1064 184 OFFCURVE",
"920 184 CURVE"
);
}
);
width = 1444;
},
{
layerId = "219068EA-2B9B-40DC-949E-B60449C01B8A";
paths = (
{
closed = 1;
nodes = (
"134 1217 LINE",
"797 1217 LINE",
"1342 1252 LINE",
"1342 1471 LINE",
"134 1471 LINE"
);
},
{
closed = 1;
nodes = (
"93 0 LINE",
"1342 0 LINE",
"1342 260 LINE",
"637 260 LINE",
"93 225 LINE"
);
},
{
closed = 1;
nodes = (
"637 260 LINE",
"1342 1252 LINE",
"797 1217 LINE",
"93 225 LINE"
);
},
{
closed = 1;
nodes = (
"134 1217 LINE",
"134 989 LINE",
"403 989 LINE",
"403 964 LINE SMOOTH",
"403 1136 OFFCURVE",
"484 1217 OFFCURVE",
"651 1217 CURVE"
);
},
{
closed = 1;
nodes = (
"1342 260 LINE",
"1342 517 LINE",
"1073 517 LINE",
"1073 512 LINE SMOOTH",
"1073 341 OFFCURVE",
"992 260 OFFCURVE",
"825 260 CURVE"
);
}
);
width = 1441;
},
{
layerId = "0C29AA02-E021-4BD1-A2C4-87F681D64C35";
paths = (
{
closed = 1;
nodes = (
"106 1250 LINE",
"771 1250 LINE",
"1305 1284 LINE",
"1305 1471 LINE",
"106 1471 LINE"
);
},
{
closed = 1;
nodes = (
"56 0 LINE",
"1295 0 LINE",
"1295 224 LINE",
"590 224 LINE",
"56 189 LINE"
);
},
{
closed = 1;
nodes = (
"590 224 LINE",
"1305 1284 LINE",
"771 1250 LINE",
"56 189 LINE"
);
},
{
closed = 1;
nodes = (
"106 1250 LINE",
"106 915 LINE",
"345 915 LINE",
"345 997 LINE SMOOTH",
"345 1169 OFFCURVE",
"426 1250 OFFCURVE",
"593 1250 CURVE"
);
},
{
closed = 1;
nodes = (
"1295 224 LINE",
"1295 575 LINE",
"1057 575 LINE",
"1057 477 LINE SMOOTH",
"1057 305 OFFCURVE",
"976 224 OFFCURVE",
"808 224 CURVE"
);
}
);
width = 1364;
}
);
leftKerningGroup = Z;
rightKerningGroup = Z;
unicode = 005A;
},
{
glyphname = a;
lastChange = "2020-09-15 07:04:29 +0000";
layers = (
{
layerId = "CA54B7DC-FBBB-40FE-ACF3-AABDD76D6A7B";
paths = (
{
closed = 1;
nodes = (
"677 568 LINE SMOOTH",
"823 601 OFFCURVE",
"907 627 OFFCURVE",
"946 706 CURVE",
"946 840 LINE",
"946 684 OFFCURVE",
"832 645 OFFCURVE",
"668 608 CURVE SMOOTH",
"500 570 LINE SMOOTH",
"304 526 OFFCURVE",
"160 451 OFFCURVE",
"160 257 CURVE SMOOTH",
"160 85 OFFCURVE",
"303 -16 OFFCURVE",
"509 -16 CURVE SMOOTH",
"780 -16 OFFCURVE",
"987 143 OFFCURVE",
"985 546 CURVE",
"946 546 LINE",
"946 166 OFFCURVE",
"749 24 OFFCURVE",
"515 24 CURVE SMOOTH",
"337 24 OFFCURVE",
"208 107 OFFCURVE",
"208 257 CURVE SMOOTH",
"208 436 OFFCURVE",
"346 493 OFFCURVE",
"517 532 CURVE SMOOTH"
);
},
{
closed = 1;
nodes = (
"946 330 LINE",
"950 330 LINE",
"950 178 LINE SMOOTH",
"950 54 OFFCURVE",
"1015 -16 OFFCURVE",
"1121 -16 CURVE SMOOTH",
"1227 -16 OFFCURVE",
"1290 54 OFFCURVE",
"1290 178 CURVE SMOOTH",
"1290 480 LINE",
"1246 480 LINE",
"1246 178 LINE SMOOTH",
"1246 87 OFFCURVE",
"1204 24 OFFCURVE",
"1121 24 CURVE SMOOTH",
"1037 24 OFFCURVE",
"994 87 OFFCURVE",
"994 178 CURVE SMOOTH",
"994 830 LINE",
"946 848 LINE"
);
},
{
closed = 1;
nodes = (
"205 787 OFFCURVE",
"240 750 OFFCURVE",
"284 750 CURVE SMOOTH",
"319 750 OFFCURVE",
"340 771 OFFCURVE",
"340 805 CURVE SMOOTH",
"340 844 OFFCURVE",
"298 868 OFFCURVE",
"253 868 CURVE",
"257 1013 OFFCURVE",
"434 1076 OFFCURVE",
"623 1076 CURVE SMOOTH",
"846 1076 OFFCURVE",
"946 986 OFFCURVE",
"946 848 CURVE",
"994 830 LINE",
"994 1024 OFFCURVE",
"859 1116 OFFCURVE",
"625 1116 CURVE SMOOTH",
"406 1116 OFFCURVE",
"205 1030 OFFCURVE",
"205 852 CURVE SMOOTH"
);
}
);
width = 1328;
},
{
layerId = "1E61A082-F045-49A7-AB52-DD1B03FD9B54";
paths = (
{
closed = 1;
nodes = (
"608 561 LINE SMOOTH",
"763 597 OFFCURVE",
"831 627 OFFCURVE",
"868 694 CURVE",
"868 810 LINE",
"868 666 OFFCURVE",
"757 638 OFFCURVE",
"600 601 CURVE SMOOTH",
"446 565 LINE SMOOTH",
"256 521 OFFCURVE",
"124 443 OFFCURVE",
"124 255 CURVE SMOOTH",
"124 86 OFFCURVE",
"256 -16 OFFCURVE",
"450 -16 CURVE SMOOTH",
"710 -16 OFFCURVE",
"908 140 OFFCURVE",
"906 536 CURVE",
"868 536 LINE",
"868 163 OFFCURVE",
"680 24 OFFCURVE",
"456 24 CURVE SMOOTH",
"290 24 OFFCURVE",
"172 108 OFFCURVE",
"172 255 CURVE SMOOTH",
"172 415 OFFCURVE",
"276 484 OFFCURVE",
"462 527 CURVE SMOOTH"
);
},
{
closed = 1;
nodes = (
"868 320 LINE",
"872 320 LINE",
"872 166 LINE SMOOTH",
"872 50 OFFCURVE",
"934 -16 OFFCURVE",
"1036 -16 CURVE SMOOTH",
"1138 -16 OFFCURVE",
"1200 50 OFFCURVE",
"1200 166 CURVE SMOOTH",
"1200 540 LINE",
"1156 540 LINE",
"1156 166 LINE SMOOTH",
"1156 82 OFFCURVE",
"1115 24 OFFCURVE",
"1036 24 CURVE SMOOTH",
"957 24 OFFCURVE",
"916 82 OFFCURVE",
"916 166 CURVE SMOOTH",
"916 800 LINE",
"868 818 LINE"
);
},
{
closed = 1;
nodes = (
"178 733 OFFCURVE",
"211 696 OFFCURVE",
"255 696 CURVE SMOOTH",
"289 696 OFFCURVE",
"309 717 OFFCURVE",
"309 751 CURVE SMOOTH",
"309 790 OFFCURVE",
"269 814 OFFCURVE",
"225 814 CURVE",
"229 983 OFFCURVE",
"391 1056 OFFCURVE",
"564 1056 CURVE SMOOTH",
"776 1056 OFFCURVE",
"868 962 OFFCURVE",
"868 818 CURVE",
"916 800 LINE",
"916 1001 OFFCURVE",
"789 1096 OFFCURVE",
"566 1096 CURVE SMOOTH",
"363 1096 OFFCURVE",
"178 999 OFFCURVE",
"178 798 CURVE SMOOTH"
);
}
);
width = 1268;
},
{
layerId = "642E5713-E15A-4A7E-A28E-9A6B75A6585C";
paths = (
{
closed = 1;
nodes = (
"620 532 LINE SMOOTH",
"683 559 OFFCURVE",
"724 582 OFFCURVE",
"748 639 CURVE",
"748 828 LINE",
"748 742 OFFCURVE",
"706 695 OFFCURVE",
"595 662 CURVE SMOOTH",
"472 626 LINE SMOOTH",
"317 581 OFFCURVE",
"94 526 OFFCURVE",
"94 293 CURVE SMOOTH",
"94 78 OFFCURVE",
"265 -20 OFFCURVE",
"458 -20 CURVE SMOOTH",
"690 -20 OFFCURVE",
"830 131 OFFCURVE",
"828 450 CURVE",
"748 450 LINE",
"748 248 OFFCURVE",
"654 174 OFFCURVE",
"534 174 CURVE SMOOTH",
"443 174 OFFCURVE",
"376 225 OFFCURVE",
"376 316 CURVE SMOOTH",
"376 426 OFFCURVE",
"457 463 OFFCURVE",
"575 513 CURVE SMOOTH"
);
},
{
closed = 1;
nodes = (
"748 320 LINE",
"794 320 LINE",
"794 240 LINE SMOOTH",
"794 80 OFFCURVE",
"889 -23 OFFCURVE",
"1057 -23 CURVE SMOOTH",
"1225 -23 OFFCURVE",
"1318 77 OFFCURVE",
"1318 237 CURVE SMOOTH",
"1318 580 LINE",
"1158 580 LINE",
"1158 237 LINE SMOOTH",
"1158 189 OFFCURVE",
"1135 153 OFFCURVE",
"1086 153 CURVE SMOOTH",
"1037 153 OFFCURVE",
"1014 189 OFFCURVE",
"1014 237 CURVE SMOOTH",
"1014 787 LINE",
"748 830 LINE"
);
},
{
closed = 1;
nodes = (
"145 739 OFFCURVE",
"225 677 OFFCURVE",
"329 677 CURVE SMOOTH",
"433 677 OFFCURVE",
"495 739 OFFCURVE",
"495 813 CURVE SMOOTH",
"495 901 OFFCURVE",
"419 934 OFFCURVE",
"355 934 CURVE",
"393 966 OFFCURVE",
"470 996 OFFCURVE",
"570 996 CURVE SMOOTH",
"661 996 OFFCURVE",
"748 955 OFFCURVE",
"748 830 CURVE",
"1014 787 LINE",
"1016 1024 OFFCURVE",
"882 1140 OFFCURVE",
"612 1140 CURVE SMOOTH",
"364 1140 OFFCURVE",
"145 1026 OFFCURVE",
"145 845 CURVE SMOOTH"
);
}
);
width = 1356;
},
{
layerId = "AF891779-7DE6-4679-9CA2-17B922C1DF84";
paths = (
{
closed = 1;
nodes = (
"706 527 LINE SMOOTH",
"773 543 OFFCURVE",
"814 571 OFFCURVE",
"842 596 CURVE",
"842 832 LINE",
"842 752 OFFCURVE",
"791 707 OFFCURVE",
"673 680 CURVE SMOOTH",
"574 657 LINE SMOOTH",
"377 611 OFFCURVE",
"108 550 OFFCURVE",
"108 306 CURVE SMOOTH",
"108 69 OFFCURVE",
"298 -20 OFFCURVE",
"520 -20 CURVE SMOOTH",
"764 -20 OFFCURVE",
"927 124 OFFCURVE",
"929 470 CURVE",
"842 470 LINE",
"842 272 OFFCURVE",
"729 194 OFFCURVE",
"584 194 CURVE SMOOTH",
"472 194 OFFCURVE",
"392 240 OFFCURVE",
"392 327 CURVE SMOOTH",
"392 432 OFFCURVE",
"494 476 OFFCURVE",
"635 510 CURVE SMOOTH"
);
},
{
closed = 1;
nodes = (
"842 330 LINE",
"886 330 LINE",
"886 278 LINE SMOOTH",
"886 89 OFFCURVE",
"994 -20 OFFCURVE",
"1172 -20 CURVE SMOOTH",
"1356 -20 OFFCURVE",
"1448 85 OFFCURVE",
"1448 258 CURVE SMOOTH",
"1448 530 LINE",
"1278 530 LINE",
"1278 256 LINE SMOOTH",
"1278 202 OFFCURVE",
"1249 166 OFFCURVE",
"1193 166 CURVE SMOOTH",
"1138 166 OFFCURVE",
"1108 202 OFFCURVE",
"1108 256 CURVE SMOOTH",
"1108 810 LINE",
"842 834 LINE"
);
},
{
closed = 1;
nodes = (
"166 759 OFFCURVE",
"248 703 OFFCURVE",
"353 703 CURVE SMOOTH",
"457 703 OFFCURVE",
"521 750 OFFCURVE",
"521 835 CURVE SMOOTH",
"521 900 OFFCURVE",
"469 932 OFFCURVE",
"426 932 CURVE",
"458 959 OFFCURVE",
"534 982 OFFCURVE",
"632 982 CURVE SMOOTH",
"742 982 OFFCURVE",
"842 948 OFFCURVE",
"842 834 CURVE",
"1108 810 LINE",
"1110 1041 OFFCURVE",
"952 1150 OFFCURVE",
"662 1150 CURVE SMOOTH",
"402 1150 OFFCURVE",
"166 1040 OFFCURVE",
"166 865 CURVE SMOOTH"
);
}
);
width = 1474;
},
{
associatedMasterId = "CA54B7DC-FBBB-40FE-ACF3-AABDD76D6A7B";
layerId = "0536A818-D7E4-477E-A2C8-13EA6A8F5ED4";
name = "Aug 25 20, 14:38";
paths = (
{
closed = 1;
nodes = (
"226 784 OFFCURVE",
"238 742 OFFCURVE",
"272 742 CURVE SMOOTH",
"293 742 OFFCURVE",
"303 756 OFFCURVE",
"303 777 CURVE SMOOTH",
"303 812 OFFCURVE",
"285 822 OFFCURVE",
"285 882 CURVE SMOOTH",
"285 996 OFFCURVE",
"419 1076 OFFCURVE",
"616 1076 CURVE SMOOTH",
"813 1076 OFFCURVE",
"910 996 OFFCURVE",
"910 848 CURVE",
"958 830 LINE",
"958 1026 OFFCURVE",
"829 1116 OFFCURVE",
"618 1116 CURVE SMOOTH",
"402 1116 OFFCURVE",
"226 1026 OFFCURVE",
"226 844 CURVE SMOOTH"
);
},
{
closed = 1;
nodes = (
"650 568 LINE SMOOTH",
"805 606 OFFCURVE",
"875 632 OFFCURVE",
"910 706 CURVE",
"910 840 LINE",
"910 683 OFFCURVE",
"800 647 OFFCURVE",
"642 608 CURVE SMOOTH",
"488 570 LINE SMOOTH",
"279 518 OFFCURVE",
"166 436 OFFCURVE",
"166 257 CURVE SMOOTH",
"166 85 OFFCURVE",
"298 -16 OFFCURVE",
"492 -16 CURVE SMOOTH",
"752 -16 OFFCURVE",
"950 143 OFFCURVE",
"948 546 CURVE",
"910 546 LINE",
"910 166 OFFCURVE",
"722 24 OFFCURVE",
"498 24 CURVE SMOOTH",
"332 24 OFFCURVE",
"214 107 OFFCURVE",
"214 257 CURVE SMOOTH",
"214 424 OFFCURVE",
"323 487 OFFCURVE",
"504 532 CURVE SMOOTH"
);
},
{
closed = 1;
nodes = (
"910 330 LINE",
"914 330 LINE",
"914 158 LINE SMOOTH",
"914 47 OFFCURVE",
"973 -16 OFFCURVE",
"1070 -16 CURVE SMOOTH",
"1167 -16 OFFCURVE",
"1226 47 OFFCURVE",
"1226 158 CURVE SMOOTH",
"1226 240 LINE",
"1182 240 LINE",
"1182 158 LINE SMOOTH",
"1182 79 OFFCURVE",
"1144 24 OFFCURVE",
"1070 24 CURVE SMOOTH",
"996 24 OFFCURVE",
"958 79 OFFCURVE",
"958 158 CURVE SMOOTH",
"958 830 LINE",
"910 848 LINE"
);
}
);
width = 1282;
},
{
associatedMasterId = "1E61A082-F045-49A7-AB52-DD1B03FD9B54";
layerId = "F53F3C62-3605-4696-AA8D-BFAEBE8FB8E8";
name = "Aug 25 20, 14:38";
paths = (
{
closed = 1;
nodes = (
"188 726 OFFCURVE",
"204 674 OFFCURVE",
"239 674 CURVE SMOOTH",
"258 674 OFFCURVE",
"269 686 OFFCURVE",
"269 706 CURVE SMOOTH",
"269 740 OFFCURVE",
"243 752 OFFCURVE",
"243 818 CURVE SMOOTH",
"243 972 OFFCURVE",
"405 1056 OFFCURVE",
"584 1056 CURVE SMOOTH",
"782 1056 OFFCURVE",
"868 970 OFFCURVE",
"868 838 CURVE",
"916 820 LINE",
"916 1007 OFFCURVE",
"796 1096 OFFCURVE",
"586 1096 CURVE SMOOTH",
"378 1096 OFFCURVE",
"188 999 OFFCURVE",
"188 790 CURVE SMOOTH"
);
},
{
closed = 1;
nodes = (
"608 557 LINE SMOOTH",
"763 593 OFFCURVE",
"833 622 OFFCURVE",
"868 696 CURVE",
"868 830 LINE",
"868 672 OFFCURVE",
"758 634 OFFCURVE",
"600 597 CURVE SMOOTH",
"446 561 LINE SMOOTH",
"256 517 OFFCURVE",
"124 441 OFFCURVE",
"124 253 CURVE SMOOTH",
"124 84 OFFCURVE",
"256 -16 OFFCURVE",
"450 -16 CURVE SMOOTH",
"710 -16 OFFCURVE",
"908 140 OFFCURVE",
"906 536 CURVE",
"868 536 LINE",
"868 163 OFFCURVE",
"680 24 OFFCURVE",
"456 24 CURVE SMOOTH",
"290 24 OFFCURVE",
"172 106 OFFCURVE",
"172 253 CURVE SMOOTH",
"172 413 OFFCURVE",
"276 480 OFFCURVE",
"462 523 CURVE SMOOTH"
);
},
{
closed = 1;
nodes = (
"868 320 LINE",
"872 320 LINE",
"872 176 LINE SMOOTH",
"872 54 OFFCURVE",
"938 -16 OFFCURVE",
"1046 -16 CURVE SMOOTH",
"1154 -16 OFFCURVE",
"1220 54 OFFCURVE",
"1220 176 CURVE SMOOTH",
"1220 570 LINE",
"1176 570 LINE",
"1176 176 LINE SMOOTH",
"1176 86 OFFCURVE",
"1132 24 OFFCURVE",
"1046 24 CURVE SMOOTH",
"960 24 OFFCURVE",
"916 86 OFFCURVE",
"916 176 CURVE SMOOTH",
"916 820 LINE",
"868 838 LINE"
);
}
);
width = 1268;
},
{
associatedMasterId = "AF891779-7DE6-4679-9CA2-17B922C1DF84";
layerId = "2CAEF184-2FA7-46A9-BC53-62FE2B10B480";
name = "Aug 25 20, 14:38";
paths = (
{
closed = 1;
nodes = (
"169 807 OFFCURVE",
"223 741 OFFCURVE",
"322 741 CURVE SMOOTH",
"402 741 OFFCURVE",
"444 782 OFFCURVE",
"444 837 CURVE SMOOTH",
"444 865 OFFCURVE",
"438 877 OFFCURVE",
"438 904 CURVE SMOOTH",
"438 975 OFFCURVE",
"522 1008 OFFCURVE",
"613 1008 CURVE SMOOTH",
"718 1008 OFFCURVE",
"779 949 OFFCURVE",
"779 858 CURVE",
"1045 840 LINE",
"1045 1071 OFFCURVE",
"903 1180 OFFCURVE",
"625 1180 CURVE SMOOTH",
"384 1180 OFFCURVE",
"169 1073 OFFCURVE",
"169 896 CURVE SMOOTH"
);
},
{
closed = 1;
nodes = (
"657 547 LINE SMOOTH",
"714 565 OFFCURVE",
"754 590 OFFCURVE",
"779 616 CURVE",
"779 856 LINE",
"779 777 OFFCURVE",
"739 732 OFFCURVE",
"625 700 CURVE SMOOTH",
"543 677 LINE SMOOTH",
"346 622 OFFCURVE",
"109 560 OFFCURVE",
"109 316 CURVE SMOOTH",
"109 72 OFFCURVE",
"298 -20 OFFCURVE",
"505 -20 CURVE SMOOTH",
"746 -20 OFFCURVE",
"893 127 OFFCURVE",
"893 480 CURVE",
"779 480 LINE",
"779 275 OFFCURVE",
"681 194 OFFCURVE",
"553 194 CURVE SMOOTH",
"461 194 OFFCURVE",
"393 243 OFFCURVE",
"393 337 CURVE SMOOTH",
"393 439 OFFCURVE",
"469 487 OFFCURVE",
"604 530 CURVE SMOOTH"
);
},
{
closed = 1;
nodes = (
"779 340 LINE",
"823 340 LINE",
"823 254 LINE SMOOTH",
"823 80 OFFCURVE",
"919 -20 OFFCURVE",
"1080 -20 CURVE SMOOTH",
"1245 -20 OFFCURVE",
"1327 76 OFFCURVE",
"1327 234 CURVE SMOOTH",
"1327 330 LINE",
"1157 330 LINE",
"1157 250 LINE SMOOTH",
"1157 210 OFFCURVE",
"1138 184 OFFCURVE",
"1101 184 CURVE SMOOTH",
"1064 184 OFFCURVE",
"1045 210 OFFCURVE",
"1045 250 CURVE SMOOTH",
"1045 840 LINE",
"779 858 LINE"
);
}
);
width = 1331;
},
{
associatedMasterId = "642E5713-E15A-4A7E-A28E-9A6B75A6585C";
layerId = "240CBBCC-525F-4A23-9FBC-DA566372A83F";
name = "Aug 25 20, 14:38";
paths = (
{
closed = 1;
nodes = (
"138 750 OFFCURVE",
"198 671 OFFCURVE",
"295 671 CURVE SMOOTH",
"380 671 OFFCURVE",
"421 714 OFFCURVE",
"421 773 CURVE SMOOTH",
"421 824 OFFCURVE",
"395 839 OFFCURVE",
"395 884 CURVE SMOOTH",
"395 960 OFFCURVE",
"474 996 OFFCURVE",
"564 996 CURVE SMOOTH",
"670 996 OFFCURVE",
"728 930 OFFCURVE",
"728 842 CURVE",
"994 817 LINE",
"996 1034 OFFCURVE",
"861 1140 OFFCURVE",
"602 1140 CURVE SMOOTH",
"356 1140 OFFCURVE",
"138 1032 OFFCURVE",
"138 834 CURVE SMOOTH"
);
},
{
closed = 1;
nodes = (
"611 538 LINE SMOOTH",
"661 556 OFFCURVE",
"702 580 OFFCURVE",
"728 611 CURVE",
"728 840 LINE",
"728 754 OFFCURVE",
"688 705 OFFCURVE",
"581 674 CURVE SMOOTH",
"456 638 LINE SMOOTH",
"300 593 OFFCURVE",
"82 531 OFFCURVE",
"82 298 CURVE SMOOTH",
"82 83 OFFCURVE",
"249 -20 OFFCURVE",
"442 -20 CURVE SMOOTH",
"680 -20 OFFCURVE",
"820 113 OFFCURVE",
"818 450 CURVE",
"728 450 LINE",
"728 248 OFFCURVE",
"638 174 OFFCURVE",
"518 174 CURVE SMOOTH",
"427 174 OFFCURVE",
"364 230 OFFCURVE",
"364 321 CURVE SMOOTH",
"364 431 OFFCURVE",
"443 478 OFFCURVE",
"563 521 CURVE SMOOTH"
);
},
{
closed = 1;
nodes = (
"728 320 LINE",
"774 320 LINE",
"774 240 LINE SMOOTH",
"774 80 OFFCURVE",
"871 -23 OFFCURVE",
"1039 -23 CURVE SMOOTH",
"1207 -23 OFFCURVE",
"1302 77 OFFCURVE",
"1302 237 CURVE SMOOTH",
"1302 577 LINE",
"1138 577 LINE",
"1138 233 LINE SMOOTH",
"1138 185 OFFCURVE",
"1115 153 OFFCURVE",
"1066 153 CURVE SMOOTH",
"1017 153 OFFCURVE",
"994 185 OFFCURVE",
"994 233 CURVE SMOOTH",
"994 817 LINE",
"728 842 LINE"
);
}
);
width = 1316;
},
{
layerId = "219068EA-2B9B-40DC-949E-B60449C01B8A";
paths = (
{
closed = 1;
nodes = (
"666 516 LINE SMOOTH",
"719 534 OFFCURVE",
"762 551 OFFCURVE",
"787 593 CURVE",
"787 824 LINE",
"787 744 OFFCURVE",
"713 708 OFFCURVE",
"618 681 CURVE SMOOTH",
"425 626 LINE SMOOTH",
"218 567 OFFCURVE",
"80 469 OFFCURVE",
"80 278 CURVE SMOOTH",
"80 91 OFFCURVE",
"230 -22 OFFCURVE",
"442 -22 CURVE SMOOTH",
"673 -22 OFFCURVE",
"849 99 OFFCURVE",
"853 388 CURVE",
"787 477 LINE",
"787 323 OFFCURVE",
"696 270 OFFCURVE",
"612 270 CURVE SMOOTH",
"540 270 OFFCURVE",
"490 307 OFFCURVE",
"490 373 CURVE SMOOTH",
"490 442 OFFCURVE",
"541 474 OFFCURVE",
"639 507 CURVE SMOOTH"
);
},
{
closed = 1;
nodes = (
"787 370 LINE",
"812 360 LINE",
"812 348 LINE SMOOTH",
"812 112 OFFCURVE",
"949 -22 OFFCURVE",
"1177 -22 CURVE SMOOTH",
"1430 -22 OFFCURVE",
"1549 129 OFFCURVE",
"1549 371 CURVE SMOOTH",
"1549 557 LINE",
"1309 557 LINE",
"1309 328 LINE SMOOTH",
"1309 275 OFFCURVE",
"1283 242 OFFCURVE",
"1238 242 CURVE SMOOTH",
"1196 242 OFFCURVE",
"1169 275 OFFCURVE",
"1169 328 CURVE SMOOTH",
"1169 799 LINE",
"787 823 LINE"
);
},
{
closed = 1;
nodes = (
"145 755 OFFCURVE",
"256 698 OFFCURVE",
"394 698 CURVE SMOOTH",
"535 698 OFFCURVE",
"618 744 OFFCURVE",
"618 839 CURVE SMOOTH",
"618 908 OFFCURVE",
"560 939 OFFCURVE",
"518 940 CURVE",
"554 954 OFFCURVE",
"584 964 OFFCURVE",
"627 964 CURVE SMOOTH",
"712 964 OFFCURVE",
"787 927 OFFCURVE",
"787 823 CURVE",
"1169 799 LINE",
"1172 1050 OFFCURVE",
"1002 1168 OFFCURVE",
"682 1168 CURVE SMOOTH",
"400 1168 OFFCURVE",
"145 1031 OFFCURVE",
"145 876 CURVE SMOOTH"
);
}
);
width = 1552;
},
{
layerId = "0C29AA02-E021-4BD1-A2C4-87F681D64C35";
paths = (
{
closed = 1;
nodes = (
"626 517 LINE SMOOTH",
"640 539 OFFCURVE",
"667 558 OFFCURVE",
"684 610 CURVE",
"684 838 LINE",
"684 783 OFFCURVE",
"679 725 OFFCURVE",
"592 695 CURVE SMOOTH",
"486 659 LINE SMOOTH",
"350 613 OFFCURVE",
"78 570 OFFCURVE",
"78 313 CURVE SMOOTH",
"78 74 OFFCURVE",
"270 -22 OFFCURVE",
"462 -22 CURVE SMOOTH",
"679 -22 OFFCURVE",
"788 126 OFFCURVE",
"786 404 CURVE",
"684 404 LINE",
"684 293 OFFCURVE",
"640 254 OFFCURVE",
"576 254 CURVE SMOOTH",
"525 254 OFFCURVE",
"485 287 OFFCURVE",
"485 349 CURVE SMOOTH",
"485 432 OFFCURVE",
"554 452 OFFCURVE",
"635 506 CURVE SMOOTH"
);
},
{
closed = 1;
nodes = (
"684 320 LINE",
"752 320 LINE",
"752 279 LINE SMOOTH",
"752 96 OFFCURVE",
"865 -27 OFFCURVE",
"1068 -27 CURVE SMOOTH",
"1271 -27 OFFCURVE",
"1381 91 OFFCURVE",
"1381 275 CURVE SMOOTH",
"1381 601 LINE",
"1159 601 LINE",
"1159 275 LINE SMOOTH",
"1159 246 OFFCURVE",
"1146 222 OFFCURVE",
"1113 222 CURVE SMOOTH",
"1080 222 OFFCURVE",
"1066 246 OFFCURVE",
"1066 275 CURVE SMOOTH",
"1066 780 LINE",
"684 836 LINE"
);
},
{
closed = 1;
nodes = (
"127 742 OFFCURVE",
"232 667 OFFCURVE",
"368 667 CURVE SMOOTH",
"510 667 OFFCURVE",
"594 751 OFFCURVE",
"594 846 CURVE SMOOTH",
"594 960 OFFCURVE",
"499 998 OFFCURVE",
"424 998 CURVE",
"480 957 OFFCURVE",
"512 964 OFFCURVE",
"573 964 CURVE SMOOTH",
"600 964 OFFCURVE",
"684 951 OFFCURVE",
"684 836 CURVE",
"1066 780 LINE",
"1069 1036 OFFCURVE",
"932 1163 OFFCURVE",
"637 1163 CURVE SMOOTH",
"365 1163 OFFCURVE",
"127 1040 OFFCURVE",
"127 870 CURVE SMOOTH"
);
}
);
width = 1403;
}
);
leftKerningGroup = a;
rightKerningGroup = a;
unicode = 0061;
},
{
glyphname = b;
lastChange = "2020-09-15 06:45:59 +0000";
layers = (
{
hints = (
{
origin = "{0, 5}";
scale = "{-0.9, 1}";
type = Corner;
name = _corner.Serif;
}
);
layerId = "CA54B7DC-FBBB-40FE-ACF3-AABDD76D6A7B";
paths = (
{
closed = 1;
nodes = (
"303 0 LINE",
"303 334 LINE",
"277 550 LINE",
"307 746 LINE",
"307 1560 LINE",
"259 1560 LINE",
"259 0 LINE"
);
},
{
closed = 1;
nodes = (
"1009 -16 OFFCURVE",
"1207 198 OFFCURVE",
"1207 550 CURVE SMOOTH",
"1207 902 OFFCURVE",
"1009 1116 OFFCURVE",
"735 1116 CURVE SMOOTH",
"441 1116 OFFCURVE",
"263 902 OFFCURVE",
"263 550 CURVE SMOOTH",
"263 198 OFFCURVE",
"441 -16 OFFCURVE",
"735 -16 CURVE SMOOTH"
);
},
{
closed = 1;
nodes = (
"483 24 OFFCURVE",
"303 220 OFFCURVE",
"303 550 CURVE SMOOTH",
"303 880 OFFCURVE",
"483 1076 OFFCURVE",
"735 1076 CURVE SMOOTH",
"983 1076 OFFCURVE",
"1159 880 OFFCURVE",
"1159 550 CURVE SMOOTH",
"1159 220 OFFCURVE",
"983 24 OFFCURVE",
"735 24 CURVE SMOOTH"
);
}
);
width = 1347;
},
{
hints = (
{
origin = "{0, 5}";
scale = "{-0.9, 1}";
type = Corner;
name = _corner.Serif;
}
);
layerId = "1E61A082-F045-49A7-AB52-DD1B03FD9B54";
paths = (
{
closed = 1;
nodes = (
"273 0 LINE",
"273 324 LINE",
"247 540 LINE",
"277 736 LINE",
"277 1540 LINE",
"229 1540 LINE",
"229 0 LINE"
);
},
{
closed = 1;
nodes = (
"995 -16 OFFCURVE",
"1197 194 OFFCURVE",
"1197 540 CURVE SMOOTH",
"1197 886 OFFCURVE",
"995 1096 OFFCURVE",
"715 1096 CURVE SMOOTH",
"415 1096 OFFCURVE",
"233 886 OFFCURVE",
"233 540 CURVE SMOOTH",
"233 194 OFFCURVE",
"415 -16 OFFCURVE",
"715 -16 CURVE SMOOTH"
);
},
{
closed = 1;
nodes = (
"457 24 OFFCURVE",
"273 216 OFFCURVE",
"273 540 CURVE SMOOTH",
"273 864 OFFCURVE",
"457 1056 OFFCURVE",
"715 1056 CURVE SMOOTH",
"969 1056 OFFCURVE",
"1149 864 OFFCURVE",
"1149 540 CURVE SMOOTH",
"1149 216 OFFCURVE",
"969 24 OFFCURVE",
"715 24 CURVE SMOOTH"
);
}
);
width = 1321;
},
{
hints = (
{
origin = "{0, 5}";
scale = "{-0.9, 0.93}";
type = Corner;
name = _corner.Serif;
}
);
layerId = "642E5713-E15A-4A7E-A28E-9A6B75A6585C";
paths = (
{
closed = 1;
nodes = (
"420 0 LINE",
"420 270 LINE",
"374 560 LINE",
"448 776 LINE",
"448 1540 LINE",
"170 1540 LINE",
"170 0 LINE"
);
},
{
closed = 1;
nodes = (
"1098 -16 OFFCURVE",
"1316 201 OFFCURVE",
"1316 560 CURVE SMOOTH",
"1316 919 OFFCURVE",
"1098 1136 OFFCURVE",
"780 1136 CURVE SMOOTH",
"477 1136 OFFCURVE",
"343 919 OFFCURVE",
"343 560 CURVE SMOOTH",
"343 201 OFFCURVE",
"477 -16 OFFCURVE",
"780 -16 CURVE SMOOTH"
);
},
{
closed = 1;
nodes = (
"538 156 OFFCURVE",
"424 300 OFFCURVE",
"424 560 CURVE SMOOTH",
"424 820 OFFCURVE",
"538 966 OFFCURVE",
"721 966 CURVE SMOOTH",
"900 966 OFFCURVE",
"1014 820 OFFCURVE",
"1014 560 CURVE SMOOTH",
"1014 300 OFFCURVE",
"900 156 OFFCURVE",
"721 156 CURVE SMOOTH"
);
}
);
width = 1390;
},
{
hints = (
{
origin = "{0, 5}";
scale = "{-0.9, 0.98}";
type = Corner;
name = _corner.Serif;
}
);
layerId = "AF891779-7DE6-4679-9CA2-17B922C1DF84";
paths = (
{
closed = 1;
nodes = (
"456 0 LINE",
"456 287 LINE",
"416 570 LINE",
"490 806 LINE",
"490 1600 LINE",
"212 1600 LINE",
"212 0 LINE"
);
},
{
closed = 1;
nodes = (
"1156 -16 OFFCURVE",
"1388 205 OFFCURVE",
"1388 570 CURVE SMOOTH",
"1388 935 OFFCURVE",
"1156 1156 OFFCURVE",
"836 1156 CURVE SMOOTH",
"513 1156 OFFCURVE",
"358 935 OFFCURVE",
"358 570 CURVE SMOOTH",
"358 205 OFFCURVE",
"513 -16 OFFCURVE",
"836 -16 CURVE SMOOTH"
);
},
{
closed = 1;
nodes = (
"593 176 OFFCURVE",
"476 315 OFFCURVE",
"476 570 CURVE SMOOTH",
"476 825 OFFCURVE",
"593 968 OFFCURVE",
"782 968 CURVE SMOOTH",
"967 968 OFFCURVE",
"1084 825 OFFCURVE",
"1084 570 CURVE SMOOTH",
"1084 315 OFFCURVE",
"967 176 OFFCURVE",
"782 176 CURVE SMOOTH"
);
}
);
width = 1498;
},
{
hints = (
{
origin = "{0, 5}";
scale = "{-0.9, 0.96933}";
type = Corner;
name = _corner.Serif;
}
);
layerId = "219068EA-2B9B-40DC-949E-B60449C01B8A";
paths = (
{
closed = 1;
nodes = (
"538 0 LINE",
"538 262 LINE",
"490 581 LINE",
"588 838 LINE",
"588 1621 LINE",
"187 1621 LINE",
"187 0 LINE"
);
},
{
closed = 1;
nodes = (
"1234 -16 OFFCURVE",
"1485 209 OFFCURVE",
"1485 581 CURVE SMOOTH",
"1485 953 OFFCURVE",
"1234 1177 OFFCURVE",
"890 1177 CURVE SMOOTH",
"551 1177 OFFCURVE",
"409 953 OFFCURVE",
"409 581 CURVE SMOOTH",
"409 209 OFFCURVE",
"551 -16 OFFCURVE",
"890 -16 CURVE SMOOTH"
);
},
{
closed = 1;
nodes = (
"652 257 OFFCURVE",
"568 366 OFFCURVE",
"568 581 CURVE SMOOTH",
"568 796 OFFCURVE",
"652 910 OFFCURVE",
"807 910 CURVE SMOOTH",
"958 910 OFFCURVE",
"1044 796 OFFCURVE",
"1044 581 CURVE SMOOTH",
"1044 366 OFFCURVE",
"958 257 OFFCURVE",
"807 257 CURVE SMOOTH"
);
}
);
width = 1579;
},
{
hints = (
{
origin = "{0, 5}";
scale = "{-0.9, 0.89267}";
type = Corner;
name = _corner.Serif;
}
);
layerId = "0C29AA02-E021-4BD1-A2C4-87F681D64C35";
paths = (
{
closed = 1;
nodes = (
"498 0 LINE",
"498 241 LINE",
"442 571 LINE",
"539 797 LINE",
"539 1540 LINE",
"139 1540 LINE",
"139 0 LINE"
);
},
{
closed = 1;
nodes = (
"1153 -16 OFFCURVE",
"1379 205 OFFCURVE",
"1379 571 CURVE SMOOTH",
"1379 937 OFFCURVE",
"1153 1157 OFFCURVE",
"815 1157 CURVE SMOOTH",
"510 1157 OFFCURVE",
"402 937 OFFCURVE",
"402 571 CURVE SMOOTH",
"402 205 OFFCURVE",
"510 -16 OFFCURVE",
"815 -16 CURVE SMOOTH"
);
},
{
closed = 1;
nodes = (
"581 226 OFFCURVE",
"505 345 OFFCURVE",
"505 571 CURVE SMOOTH",
"505 797 OFFCURVE",
"581 918 OFFCURVE",
"724 918 CURVE SMOOTH",
"863 918 OFFCURVE",
"942 797 OFFCURVE",
"942 571 CURVE SMOOTH",
"942 345 OFFCURVE",
"863 226 OFFCURVE",
"724 226 CURVE SMOOTH"
);
}
);
width = 1426;
}
);
leftKerningGroup = b;
rightKerningGroup = o;
rightMetricsKey = o;
unicode = 0062;
},
{
glyphname = c;
lastChange = "2020-09-15 06:49:45 +0000";
layers = (
{
layerId = "CA54B7DC-FBBB-40FE-ACF3-AABDD76D6A7B";
paths = (
{
closed = 1;
nodes = (
"1016 323 LINE",
"1001 211 OFFCURVE",
"905 24 OFFCURVE",
"644 24 CURVE SMOOTH",
"371 24 OFFCURVE",
"190 222 OFFCURVE",
"190 550 CURVE SMOOTH",
"190 878 OFFCURVE",
"374 1076 OFFCURVE",
"652 1076 CURVE",
"652 1116 LINE",
"348 1116 OFFCURVE",
"140 910 OFFCURVE",
"140 550 CURVE SMOOTH",
"140 190 OFFCURVE",
"346 -16 OFFCURVE",
"644 -16 CURVE SMOOTH",
"937 -16 OFFCURVE",
"1044 189 OFFCURVE",
"1060 323 CURVE"
);
},
{
closed = 1;
nodes = (
"652 1076 LINE",
"905 1076 OFFCURVE",
"1008 945 OFFCURVE",
"1010 811 CURVE",
"969 811 OFFCURVE",
"932 791 OFFCURVE",
"932 750 CURVE SMOOTH",
"932 718 OFFCURVE",
"953 698 OFFCURVE",
"986 698 CURVE SMOOTH",
"1030 698 OFFCURVE",
"1056 737 OFFCURVE",
"1056 802 CURVE SMOOTH",
"1056 960 OFFCURVE",
"931 1116 OFFCURVE",
"652 1116 CURVE"
);
}
);
width = 1200;
},
{
layerId = "1E61A082-F045-49A7-AB52-DD1B03FD9B54";
paths = (
{
closed = 1;
nodes = (
"1019 369 LINE",
"1003 211 OFFCURVE",
"896 24 OFFCURVE",
"634 24 CURVE SMOOTH",
"354 24 OFFCURVE",
"174 218 OFFCURVE",
"174 540 CURVE SMOOTH",
"174 862 OFFCURVE",
"356 1056 OFFCURVE",
"638 1056 CURVE",
"638 1096 LINE",
"330 1096 OFFCURVE",
"124 894 OFFCURVE",
"124 540 CURVE SMOOTH",
"124 186 OFFCURVE",
"329 -16 OFFCURVE",
"634 -16 CURVE SMOOTH",
"927 -16 OFFCURVE",
"1044 184 OFFCURVE",
"1063 369 CURVE"
);
},
{
closed = 1;
nodes = (
"638 1056 LINE",
"894 1056 OFFCURVE",
"998 913 OFFCURVE",
"1000 767 CURVE",
"959 767 OFFCURVE",
"922 747 OFFCURVE",
"922 706 CURVE SMOOTH",
"922 674 OFFCURVE",
"943 654 OFFCURVE",
"976 654 CURVE SMOOTH",
"1020 654 OFFCURVE",
"1046 693 OFFCURVE",
"1046 758 CURVE SMOOTH",
"1046 928 OFFCURVE",
"920 1096 OFFCURVE",
"638 1096 CURVE"
);
}
);
width = 1187;
},
{
layerId = "642E5713-E15A-4A7E-A28E-9A6B75A6585C";
paths = (
{
closed = 1;
nodes = (
"950 462 LINE",
"928 319 OFFCURVE",
"856 204 OFFCURVE",
"664 204 CURVE SMOOTH",
"461 204 OFFCURVE",
"332 358 OFFCURVE",
"332 602 CURVE SMOOTH",
"332 838 OFFCURVE",
"458 990 OFFCURVE",
"652 988 CURVE",
"624 1140 LINE",
"306 1140 OFFCURVE",
"74 936 OFFCURVE",
"74 560 CURVE SMOOTH",
"74 184 OFFCURVE",
"305 -20 OFFCURVE",
"612 -20 CURVE SMOOTH",
"932 -20 OFFCURVE",
"1086 205 OFFCURVE",
"1092 462 CURVE"
);
},
{
closed = 1;
nodes = (
"652 988 LINE",
"756 988 OFFCURVE",
"832 954 OFFCURVE",
"877 907 CURVE",
"810 907 OFFCURVE",
"732 859 OFFCURVE",
"732 772 CURVE SMOOTH",
"732 687 OFFCURVE",
"791 625 OFFCURVE",
"897 625 CURVE SMOOTH",
"1001 625 OFFCURVE",
"1082 692 OFFCURVE",
"1082 807 CURVE SMOOTH",
"1082 969 OFFCURVE",
"913 1140 OFFCURVE",
"624 1140 CURVE"
);
}
);
width = 1166;
},
{
layerId = "AF891779-7DE6-4679-9CA2-17B922C1DF84";
rightMetricsKey = "=o-2";
paths = (
{
closed = 1;
nodes = (
"1010 409 LINE",
"994 309 OFFCURVE",
"908 206 OFFCURVE",
"740 206 CURVE SMOOTH",
"519 206 OFFCURVE",
"392 371 OFFCURVE",
"392 616 CURVE SMOOTH",
"392 837 OFFCURVE",
"513 984 OFFCURVE",
"714 984 CURVE",
"700 1160 LINE",
"371 1160 OFFCURVE",
"110 948 OFFCURVE",
"110 570 CURVE SMOOTH",
"110 192 OFFCURVE",
"371 -20 OFFCURVE",
"700 -20 CURVE SMOOTH",
"1010 -20 OFFCURVE",
"1172 190 OFFCURVE",
"1178 409 CURVE"
);
},
{
closed = 1;
nodes = (
"714 984 LINE",
"807 984 OFFCURVE",
"880 949 OFFCURVE",
"919 909 CURVE",
"867 909 OFFCURVE",
"816 875 OFFCURVE",
"816 808 CURVE SMOOTH",
"816 735 OFFCURVE",
"879 679 OFFCURVE",
"981 679 CURVE SMOOTH",
"1085 679 OFFCURVE",
"1166 734 OFFCURVE",
"1166 853 CURVE SMOOTH",
"1166 1003 OFFCURVE",
"992 1160 OFFCURVE",
"700 1160 CURVE"
);
}
);
width = 1286;
},
{
layerId = "219068EA-2B9B-40DC-949E-B60449C01B8A";
paths = (
{
closed = 1;
nodes = (
"1007 455 LINE",
"990 361 OFFCURVE",
"910 303 OFFCURVE",
"791 303 CURVE SMOOTH",
"598 303 OFFCURVE",
"500 450 OFFCURVE",
"500 651 CURVE SMOOTH",
"500 840 OFFCURVE",
"592 979 OFFCURVE",
"761 979 CURVE",
"726 1183 LINE",
"383 1183 OFFCURVE",
"94 968 OFFCURVE",
"94 581 CURVE SMOOTH",
"94 193 OFFCURVE",
"384 -22 OFFCURVE",
"730 -22 CURVE SMOOTH",
"1049 -22 OFFCURVE",
"1240 191 OFFCURVE",
"1241 455 CURVE"
);
},
{
closed = 1;
nodes = (
"761 979 LINE",
"793 979 OFFCURVE",
"831 974 OFFCURVE",
"870 961 CURVE",
"813 961 OFFCURVE",
"754 920 OFFCURVE",
"754 839 CURVE SMOOTH",
"754 744 OFFCURVE",
"840 669 OFFCURVE",
"978 669 CURVE SMOOTH",
"1114 669 OFFCURVE",
"1225 732 OFFCURVE",
"1225 880 CURVE SMOOTH",
"1225 1026 OFFCURVE",
"1025 1183 OFFCURVE",
"726 1183 CURVE"
);
}
);
width = 1335;
},
{
layerId = "0C29AA02-E021-4BD1-A2C4-87F681D64C35";
paths = (
{
closed = 1;
nodes = (
"913 512 LINE",
"888 377 OFFCURVE",
"835 300 OFFCURVE",
"680 300 CURVE SMOOTH",
"518 300 OFFCURVE",
"416 433 OFFCURVE",
"416 635 CURVE SMOOTH",
"416 825 OFFCURVE",
"512 955 OFFCURVE",
"659 952 CURVE",
"617 1163 LINE",
"293 1163 OFFCURVE",
"47 958 OFFCURVE",
"47 571 CURVE SMOOTH",
"47 183 OFFCURVE",
"292 -22 OFFCURVE",
"600 -22 CURVE SMOOTH",
"935 -22 OFFCURVE",
"1108 216 OFFCURVE",
"1107 512 CURVE"
);
},
{
closed = 1;
nodes = (
"659 952 LINE",
"682 952 OFFCURVE",
"743 976 OFFCURVE",
"811 982 CURVE",
"731 982 OFFCURVE",
"631 919 OFFCURVE",
"631 807 CURVE SMOOTH",
"631 694 OFFCURVE",
"710 610 OFFCURVE",
"855 610 CURVE SMOOTH",
"991 610 OFFCURVE",
"1101 691 OFFCURVE",
"1101 833 CURVE SMOOTH",
"1101 991 OFFCURVE",
"909 1163 OFFCURVE",
"617 1163 CURVE"
);
}
);
width = 1154;
}
);
leftKerningGroup = o;
leftMetricsKey = o;
rightKerningGroup = o;
rightMetricsKey = o;
unicode = 0063;
},
{
glyphname = d;
lastChange = "2020-09-15 06:45:57 +0000";
layers = (
{
hints = (
{
origin = "{0, 1}";
scale = "{-0.9, 1}";
type = Corner;
name = _corner.Serif;
},
{
origin = "{0, 6}";
scale = "{-0.9, 1}";
type = Corner;
name = _corner.Serif;
}
);
layerId = "CA54B7DC-FBBB-40FE-ACF3-AABDD76D6A7B";
paths = (
{
closed = 1;
nodes = (
"1088 1560 LINE",
"1040 1560 LINE",
"1040 746 LINE",
"1070 550 LINE",
"1044 334 LINE",
"1044 0 LINE",
"1088 0 LINE"
);
},
{
closed = 1;
nodes = (
"906 -16 OFFCURVE",
"1084 198 OFFCURVE",
"1084 550 CURVE SMOOTH",
"1084 902 OFFCURVE",
"906 1116 OFFCURVE",
"612 1116 CURVE SMOOTH",
"338 1116 OFFCURVE",
"140 902 OFFCURVE",
"140 550 CURVE SMOOTH",
"140 198 OFFCURVE",
"338 -16 OFFCURVE",
"612 -16 CURVE SMOOTH"
);
},
{
closed = 1;
nodes = (
"364 24 OFFCURVE",
"188 220 OFFCURVE",
"188 550 CURVE SMOOTH",
"188 880 OFFCURVE",
"364 1076 OFFCURVE",
"612 1076 CURVE SMOOTH",
"864 1076 OFFCURVE",
"1044 880 OFFCURVE",
"1044 550 CURVE SMOOTH",
"1044 220 OFFCURVE",
"864 24 OFFCURVE",
"612 24 CURVE SMOOTH"
);
}
);
width = 1381;
},
{
hints = (
{
origin = "{0, 6}";
scale = "{-0.9, 1}";
type = Corner;
name = _corner.Serif;
},
{
origin = "{0, 1}";
scale = "{-0.9, 1}";
type = Corner;
name = _corner.Serif;
}
);
layerId = "1E61A082-F045-49A7-AB52-DD1B03FD9B54";
paths = (
{
closed = 1;
nodes = (
"1092 1540 LINE",
"1044 1540 LINE",
"1044 736 LINE",
"1074 540 LINE",
"1048 324 LINE",
"1048 0 LINE",
"1092 0 LINE"
);
},
{
closed = 1;
nodes = (
"906 -16 OFFCURVE",
"1088 194 OFFCURVE",
"1088 540 CURVE SMOOTH",
"1088 886 OFFCURVE",
"906 1096 OFFCURVE",
"606 1096 CURVE SMOOTH",
"326 1096 OFFCURVE",
"124 886 OFFCURVE",
"124 540 CURVE SMOOTH",
"124 194 OFFCURVE",
"326 -16 OFFCURVE",
"606 -16 CURVE SMOOTH"
);
},
{
closed = 1;
nodes = (
"352 24 OFFCURVE",
"172 216 OFFCURVE",
"172 540 CURVE SMOOTH",
"172 864 OFFCURVE",
"352 1056 OFFCURVE",
"606 1056 CURVE SMOOTH",
"864 1056 OFFCURVE",
"1048 864 OFFCURVE",
"1048 540 CURVE SMOOTH",
"1048 216 OFFCURVE",
"864 24 OFFCURVE",
"606 24 CURVE SMOOTH"
);
}
);
width = 1353;
},
{
hints = (
{
origin = "{0, 6}";
scale = "{-0.9, 0.94}";
type = Corner;
name = _corner.Serif;
},
{
origin = "{0, 1}";
scale = "{-0.9, 0.93}";
type = Corner;
name = _corner.Serif;
}
);
layerId = "642E5713-E15A-4A7E-A28E-9A6B75A6585C";
paths = (
{
closed = 1;
nodes = (
"1220 1540 LINE",
"942 1540 LINE",
"942 776 LINE",
"1016 560 LINE",
"970 319 LINE",
"970 0 LINE",
"1220 0 LINE"
);
},
{
closed = 1;
nodes = (
"913 -16 OFFCURVE",
"1047 201 OFFCURVE",
"1047 560 CURVE SMOOTH",
"1047 919 OFFCURVE",
"913 1136 OFFCURVE",
"610 1136 CURVE SMOOTH",
"292 1136 OFFCURVE",
"74 919 OFFCURVE",
"74 560 CURVE SMOOTH",
"74 201 OFFCURVE",
"292 -16 OFFCURVE",
"610 -16 CURVE SMOOTH"
);
},
{
closed = 1;
nodes = (
"490 156 OFFCURVE",
"376 300 OFFCURVE",
"376 560 CURVE SMOOTH",
"376 820 OFFCURVE",
"490 966 OFFCURVE",
"669 966 CURVE SMOOTH",
"852 966 OFFCURVE",
"966 820 OFFCURVE",
"966 560 CURVE SMOOTH",
"966 300 OFFCURVE",
"852 156 OFFCURVE",
"669 156 CURVE SMOOTH"
);
}
);
width = 1442;
},
{
hints = (
{
origin = "{0, 1}";
scale = "{-0.9, 0.98}";
type = Corner;
name = _corner.Serif;
},
{
origin = "{0, 6}";
scale = "{-0.9, 1}";
type = Corner;
name = _corner.Serif;
}
);
layerId = "AF891779-7DE6-4679-9CA2-17B922C1DF84";
paths = (
{
closed = 1;
nodes = (
"1286 1600 LINE",
"1008 1600 LINE",
"1008 806 LINE",
"1082 570 LINE",
"1050 299 LINE",
"1050 0 LINE",
"1286 0 LINE"
);
},
{
closed = 1;
nodes = (
"985 -16 OFFCURVE",
"1140 205 OFFCURVE",
"1140 570 CURVE SMOOTH",
"1140 935 OFFCURVE",
"985 1156 OFFCURVE",
"662 1156 CURVE SMOOTH",
"342 1156 OFFCURVE",
"110 935 OFFCURVE",
"110 570 CURVE SMOOTH",
"110 205 OFFCURVE",
"342 -16 OFFCURVE",
"662 -16 CURVE SMOOTH"
);
},
{
closed = 1;
nodes = (
"531 176 OFFCURVE",
"414 315 OFFCURVE",
"414 570 CURVE SMOOTH",
"414 825 OFFCURVE",
"531 968 OFFCURVE",
"716 968 CURVE SMOOTH",
"905 968 OFFCURVE",
"1022 825 OFFCURVE",
"1022 570 CURVE SMOOTH",
"1022 315 OFFCURVE",
"905 176 OFFCURVE",
"716 176 CURVE SMOOTH"
);
}
);
width = 1530;
},
{
hints = (
{
origin = "{0, 1}";
scale = "{-0.9, 0.96933}";
type = Corner;
name = _corner.Serif;
},
{
origin = "{0, 6}";
scale = "{-0.9, 1}";
type = Corner;
name = _corner.Serif;
}
);
layerId = "219068EA-2B9B-40DC-949E-B60449C01B8A";
paths = (
{
closed = 1;
nodes = (
"1392 1621 LINE",
"991 1621 LINE",
"991 838 LINE",
"1088 581 LINE",
"1053 280 LINE",
"1053 0 LINE",
"1392 0 LINE"
);
},
{
closed = 1;
nodes = (
"1027 -16 OFFCURVE",
"1170 209 OFFCURVE",
"1170 581 CURVE SMOOTH",
"1170 953 OFFCURVE",
"1027 1177 OFFCURVE",
"689 1177 CURVE SMOOTH",
"344 1177 OFFCURVE",
"94 953 OFFCURVE",
"94 581 CURVE SMOOTH",
"94 209 OFFCURVE",
"344 -16 OFFCURVE",
"689 -16 CURVE SMOOTH"
);
},
{
closed = 1;
nodes = (
"620 257 OFFCURVE",
"535 366 OFFCURVE",
"535 581 CURVE SMOOTH",
"535 796 OFFCURVE",
"620 910 OFFCURVE",
"771 910 CURVE SMOOTH",
"927 910 OFFCURVE",
"1010 796 OFFCURVE",
"1010 581 CURVE SMOOTH",
"1010 366 OFFCURVE",
"927 257 OFFCURVE",
"771 257 CURVE SMOOTH"
);
}
);
width = 1610;
},
{
hints = (
{
origin = "{0, 6}";
scale = "{-0.9, 0.908}";
type = Corner;
name = _corner.Serif;
},
{
origin = "{0, 1}";
scale = "{-0.9, 0.89267}";
type = Corner;
name = _corner.Serif;
}
);
layerId = "0C29AA02-E021-4BD1-A2C4-87F681D64C35";
paths = (
{
closed = 1;
nodes = (
"1288 1540 LINE",
"888 1540 LINE",
"888 797 LINE",
"985 571 LINE",
"928 316 LINE",
"928 0 LINE",
"1288 0 LINE"
);
},
{
closed = 1;
nodes = (
"917 -16 OFFCURVE",
"1025 205 OFFCURVE",
"1025 571 CURVE SMOOTH",
"1025 937 OFFCURVE",
"917 1157 OFFCURVE",
"612 1157 CURVE SMOOTH",
"274 1157 OFFCURVE",
"47 937 OFFCURVE",
"47 571 CURVE SMOOTH",
"47 205 OFFCURVE",
"274 -16 OFFCURVE",
"612 -16 CURVE SMOOTH"
);
},
{
closed = 1;
nodes = (
"564 226 OFFCURVE",
"485 345 OFFCURVE",
"485 571 CURVE SMOOTH",
"485 797 OFFCURVE",
"564 918 OFFCURVE",
"703 918 CURVE SMOOTH",
"846 918 OFFCURVE",
"922 797 OFFCURVE",
"922 571 CURVE SMOOTH",
"922 345 OFFCURVE",
"846 226 OFFCURVE",
"703 226 CURVE SMOOTH"
);
}
);
width = 1489;
}
);
leftKerningGroup = o;
leftMetricsKey = o;
rightKerningGroup = l;
rightMetricsKey = l;
unicode = 0064;
},
{
glyphname = e;
lastChange = "2020-09-15 06:43:15 +0000";
layers = (
{
layerId = "CA54B7DC-FBBB-40FE-ACF3-AABDD76D6A7B";
paths = (
{
closed = 1;
nodes = (
"1009 324 LINE",
"984 207 OFFCURVE",
"888 26 OFFCURVE",
"626 26 CURVE SMOOTH",
"360 26 OFFCURVE",
"190 222 OFFCURVE",
"190 550 CURVE SMOOTH",
"190 878 OFFCURVE",
"362 1076 OFFCURVE",
"628 1076 CURVE",
"628 1116 LINE",
"338 1116 OFFCURVE",
"140 910 OFFCURVE",
"140 550 CURVE SMOOTH",
"140 190 OFFCURVE",
"336 -16 OFFCURVE",
"626 -16 CURVE SMOOTH",
"915 -16 OFFCURVE",
"1029 185 OFFCURVE",
"1054 324 CURVE"
);
},
{
closed = 1;
nodes = (
"1074 612 LINE",
"1074 908 OFFCURVE",
"916 1116 OFFCURVE",
"628 1116 CURVE",
"628 1076 LINE",
"892 1076 OFFCURVE",
"1018 880 OFFCURVE",
"1030 636 CURVE"
);
},
{
closed = 1;
nodes = (
"174 594 LINE",
"1074 594 LINE",
"1074 612 LINE",
"1030 636 LINE",
"174 636 LINE"
);
}
);
width = 1214;
},
{
layerId = "1E61A082-F045-49A7-AB52-DD1B03FD9B54";
paths = (
{
closed = 1;
nodes = (
"1018 380 LINE",
"996 236 OFFCURVE",
"893 26 OFFCURVE",
"620 26 CURVE SMOOTH",
"354 26 OFFCURVE",
"174 218 OFFCURVE",
"174 540 CURVE SMOOTH",
"174 862 OFFCURVE",
"354 1056 OFFCURVE",
"620 1056 CURVE",
"620 1096 LINE",
"330 1096 OFFCURVE",
"124 894 OFFCURVE",
"124 540 CURVE SMOOTH",
"124 186 OFFCURVE",
"330 -16 OFFCURVE",
"620 -16 CURVE SMOOTH",
"919 -16 OFFCURVE",
"1042 214 OFFCURVE",
"1063 380 CURVE"
);
},
{
closed = 1;
nodes = (
"1074 600 LINE",
"1074 892 OFFCURVE",
"908 1096 OFFCURVE",
"620 1096 CURVE",
"620 1056 LINE",
"884 1056 OFFCURVE",
"1018 863 OFFCURVE",
"1030 624 CURVE"
);
},
{
closed = 1;
nodes = (
"158 584 LINE",
"1074 584 LINE",
"1074 600 LINE",
"1030 624 LINE",
"158 624 LINE"
);
}
);
width = 1198;
},
{
layerId = "642E5713-E15A-4A7E-A28E-9A6B75A6585C";
paths = (
{
closed = 1;
nodes = (
"971 440 LINE",
"952 331 OFFCURVE",
"880 202 OFFCURVE",
"668 202 CURVE SMOOTH",
"447 202 OFFCURVE",
"330 358 OFFCURVE",
"330 606 CURVE SMOOTH",
"330 856 OFFCURVE",
"417 994 OFFCURVE",
"606 994 CURVE",
"614 1140 LINE",
"296 1140 OFFCURVE",
"74 930 OFFCURVE",
"74 560 CURVE SMOOTH",
"74 190 OFFCURVE",
"294 -20 OFFCURVE",
"618 -20 CURVE SMOOTH",
"938 -20 OFFCURVE",
"1106 191 OFFCURVE",
"1118 440 CURVE"
);
},
{
closed = 1;
nodes = (
"1128 636 LINE",
"1128 934 OFFCURVE",
"940 1140 OFFCURVE",
"614 1140 CURVE",
"606 994 LINE",
"778 993 OFFCURVE",
"850 864 OFFCURVE",
"852 714 CURVE"
);
},
{
closed = 1;
nodes = (
"174 568 LINE",
"1128 568 LINE",
"1128 636 LINE",
"852 714 LINE",
"174 714 LINE"
);
}
);
width = 1202;
},
{
layerId = "AF891779-7DE6-4679-9CA2-17B922C1DF84";
paths = (
{
closed = 1;
nodes = (
"1015 380 LINE",
"988 291 OFFCURVE",
"921 198 OFFCURVE",
"736 198 CURVE SMOOTH",
"514 198 OFFCURVE",
"382 347 OFFCURVE",
"382 596 CURVE SMOOTH",
"382 847 OFFCURVE",
"484 988 OFFCURVE",
"686 988 CURVE",
"684 1160 LINE",
"349 1160 OFFCURVE",
"110 948 OFFCURVE",
"110 570 CURVE SMOOTH",
"110 192 OFFCURVE",
"349 -20 OFFCURVE",
"684 -20 CURVE SMOOTH",
"1027 -20 OFFCURVE",
"1172 190 OFFCURVE",
"1200 380 CURVE"
);
},
{
closed = 1;
nodes = (
"1216 646 LINE",
"1216 952 OFFCURVE",
"1028 1160 OFFCURVE",
"684 1160 CURVE",
"686 988 LINE",
"858 988 OFFCURVE",
"940 869 OFFCURVE",
"940 732 CURVE"
);
},
{
closed = 1;
nodes = (
"238 558 LINE",
"1216 558 LINE",
"1216 646 LINE",
"940 732 LINE",
"238 732 LINE"
);
}
);
width = 1326;
},
{
layerId = "219068EA-2B9B-40DC-949E-B60449C01B8A";
paths = (
{
closed = 1;
nodes = (
"1018 410 LINE",
"990 336 OFFCURVE",
"939 290 OFFCURVE",
"795 290 CURVE SMOOTH",
"596 290 OFFCURVE",
"484 414 OFFCURVE",
"484 621 CURVE SMOOTH",
"484 830 OFFCURVE",
"549 941 OFFCURVE",
"717 941 CURVE",
"714 1183 LINE",
"355 1183 OFFCURVE",
"94 968 OFFCURVE",
"94 581 CURVE SMOOTH",
"94 193 OFFCURVE",
"356 -22 OFFCURVE",
"715 -22 CURVE SMOOTH",
"1087 -22 OFFCURVE",
"1248 193 OFFCURVE",
"1278 410 CURVE"
);
},
{
closed = 1;
nodes = (
"1292 664 LINE",
"1292 975 OFFCURVE",
"1088 1183 OFFCURVE",
"714 1183 CURVE",
"717 941 LINE",
"840 941 OFFCURVE",
"898 863 OFFCURVE",
"892 783 CURVE"
);
},
{
closed = 1;
nodes = (
"272 539 LINE",
"1292 539 LINE",
"1292 664 LINE",
"892 783 LINE",
"272 783 LINE"
);
}
);
width = 1386;
},
{
layerId = "0C29AA02-E021-4BD1-A2C4-87F681D64C35";
paths = (
{
closed = 1;
nodes = (
"946 472 LINE",
"929 382 OFFCURVE",
"873 296 OFFCURVE",
"694 296 CURVE SMOOTH",
"497 296 OFFCURVE",
"413 433 OFFCURVE",
"413 641 CURVE SMOOTH",
"413 853 OFFCURVE",
"451 961 OFFCURVE",
"599 961 CURVE",
"611 1163 LINE",
"278 1163 OFFCURVE",
"47 949 OFFCURVE",
"47 571 CURVE SMOOTH",
"47 192 OFFCURVE",
"275 -22 OFFCURVE",
"617 -22 CURVE SMOOTH",
"948 -22 OFFCURVE",
"1140 179 OFFCURVE",
"1147 472 CURVE"
);
},
{
closed = 1;
nodes = (
"1157 655 LINE",
"1157 956 OFFCURVE",
"957 1163 OFFCURVE",
"611 1163 CURVE",
"599 961 LINE",
"721 959 OFFCURVE",
"760 865 OFFCURVE",
"757 762 CURVE"
);
},
{
closed = 1;
nodes = (
"183 559 LINE",
"1157 559 LINE",
"1157 655 LINE",
"757 762 LINE",
"183 762 LINE"
);
}
);
width = 1204;
}
);
leftKerningGroup = o;
leftMetricsKey = o;
rightKerningGroup = o;
rightMetricsKey = o;
unicode = 0065;
},
{
glyphname = f;
lastChange = "2020-09-15 06:43:15 +0000";
layers = (
{
hints = (
{
origin = "{1, 0}";
type = Corner;
name = _corner.Serif;
},
{
origin = "{1, 1}";
scale = "{-1.2, 1}";
type = Corner;
name = _corner.Serif;
options = 1;
}
);
layerId = "CA54B7DC-FBBB-40FE-ACF3-AABDD76D6A7B";
paths = (
{
closed = 1;
nodes = (
"70 1058 LINE",
"798 1058 LINE",
"798 1100 LINE",
"70 1100 LINE"
);
},
{
closed = 1;
nodes = (
"370 0 LINE",
"418 0 LINE",
"418 1166 LINE",
"370 1162 LINE"
);
},
{
closed = 1;
nodes = (
"495 1576 OFFCURVE",
"370 1435 OFFCURVE",
"370 1162 CURVE",
"418 1166 LINE",
"418 1415 OFFCURVE",
"525 1536 OFFCURVE",
"720 1536 CURVE",
"720 1576 LINE"
);
},
{
closed = 1;
nodes = (
"720 1536 LINE",
"839 1536 OFFCURVE",
"920 1485 OFFCURVE",
"924 1390 CURVE",
"876 1390 OFFCURVE",
"842 1369 OFFCURVE",
"842 1328 CURVE SMOOTH",
"842 1296 OFFCURVE",
"866 1275 OFFCURVE",
"898 1275 CURVE SMOOTH",
"942 1275 OFFCURVE",
"972 1312 OFFCURVE",
"972 1369 CURVE SMOOTH",
"972 1505 OFFCURVE",
"862 1576 OFFCURVE",
"720 1576 CURVE"
);
}
);
width = 900;
},
{
hints = (
{
origin = "{1, 0}";
type = Corner;
name = _corner.Serif;
},
{
origin = "{1, 1}";
scale = "{-1.4, 1}";
type = Corner;
name = _corner.Serif;
options = 1;
}
);
layerId = "1E61A082-F045-49A7-AB52-DD1B03FD9B54";
paths = (
{
closed = 1;
nodes = (
"72 1040 LINE",
"800 1040 LINE",
"800 1080 LINE",
"72 1080 LINE"
);
},
{
closed = 1;
nodes = (
"372 0 LINE",
"420 0 LINE",
"420 1156 LINE",
"372 1152 LINE"
);
},
{
closed = 1;
nodes = (
"500 1556 OFFCURVE",
"372 1418 OFFCURVE",
"372 1152 CURVE",
"420 1156 LINE",
"420 1398 OFFCURVE",
"530 1516 OFFCURVE",
"730 1516 CURVE",
"730 1556 LINE"
);
},
{
closed = 1;
nodes = (
"730 1516 LINE",
"851 1516 OFFCURVE",
"934 1458 OFFCURVE",
"938 1350 CURVE",
"890 1350 OFFCURVE",
"856 1329 OFFCURVE",
"856 1288 CURVE SMOOTH",
"856 1256 OFFCURVE",
"880 1235 OFFCURVE",
"912 1235 CURVE SMOOTH",
"956 1235 OFFCURVE",
"986 1272 OFFCURVE",
"986 1329 CURVE SMOOTH",
"986 1483 OFFCURVE",
"874 1556 OFFCURVE",
"730 1556 CURVE"
);
}
);
width = 886;
},
{
hints = (
{
origin = "{1, 0}";
scale = "{1, 0.94}";
type = Corner;
name = _corner.Serif;
},
{
origin = "{1, 1}";
scale = "{-1.4, 0.94}";
type = Corner;
name = _corner.Serif;
}
);
layerId = "642E5713-E15A-4A7E-A28E-9A6B75A6585C";
paths = (
{
closed = 1;
nodes = (
"42 972 LINE",
"910 972 LINE",
"910 1120 LINE",
"42 1120 LINE"
);
},
{
closed = 1;
nodes = (
"292 0 LINE",
"572 0 LINE",
"572 1220 LINE",
"292 1150 LINE"
);
},
{
closed = 1;
nodes = (
"465 1580 OFFCURVE",
"292 1429 OFFCURVE",
"292 1150 CURVE",
"572 1220 LINE",
"572 1389 OFFCURVE",
"663 1450 OFFCURVE",
"768 1450 CURVE",
"746 1580 LINE"
);
},
{
closed = 1;
nodes = (
"768 1450 LINE",
"811 1450 OFFCURVE",
"851 1440 OFFCURVE",
"868 1427 CURVE",
"802 1427 OFFCURVE",
"757 1392 OFFCURVE",
"757 1327 CURVE SMOOTH",
"757 1265 OFFCURVE",
"810 1215 OFFCURVE",
"906 1215 CURVE SMOOTH",
"1017 1215 OFFCURVE",
"1080 1280 OFFCURVE",
"1080 1373 CURVE SMOOTH",
"1080 1502 OFFCURVE",
"938 1580 OFFCURVE",
"746 1580 CURVE"
);
}
);
width = 970;
},
{
hints = (
{
origin = "{1, 0}";
type = Corner;
name = _corner.Serif;
},
{
origin = "{1, 1}";
scale = "{-1.2, 1}";
type = Corner;
name = _corner.Serif;
}
);
layerId = "AF891779-7DE6-4679-9CA2-17B922C1DF84";
paths = (
{
closed = 1;
nodes = (
"66 960 LINE",
"954 960 LINE",
"954 1140 LINE",
"66 1140 LINE"
);
},
{
closed = 1;
nodes = (
"316 0 LINE",
"596 0 LINE",
"596 1250 LINE",
"316 1210 LINE"
);
},
{
closed = 1;
nodes = (
"528 1620 OFFCURVE",
"316 1488 OFFCURVE",
"316 1210 CURVE",
"596 1250 LINE",
"596 1403 OFFCURVE",
"676 1472 OFFCURVE",
"818 1472 CURVE",
"796 1620 LINE"
);
},
{
closed = 1;
nodes = (
"818 1472 LINE",
"852 1472 OFFCURVE",
"884 1464 OFFCURVE",
"898 1457 CURVE",
"863 1457 OFFCURVE",
"817 1432 OFFCURVE",
"817 1371 CURVE SMOOTH",
"817 1305 OFFCURVE",
"874 1255 OFFCURVE",
"970 1255 CURVE SMOOTH",
"1079 1255 OFFCURVE",
"1140 1324 OFFCURVE",
"1140 1409 CURVE SMOOTH",
"1140 1538 OFFCURVE",
"998 1620 OFFCURVE",
"796 1620 CURVE"
);
}
);
width = 1042;
},
{
hints = (
{
origin = "{1, 0}";
type = Corner;
name = _corner.Serif;
},
{
origin = "{1, 1}";
scale = "{-1.2, 1}";
type = Corner;
name = _corner.Serif;
options = 1;
}
);
layerId = "219068EA-2B9B-40DC-949E-B60449C01B8A";
paths = (
{
closed = 1;
nodes = (
"64 908 LINE",
"1037 908 LINE",
"1037 1161 LINE",
"64 1161 LINE"
);
},
{
closed = 1;
nodes = (
"287 0 LINE",
"691 0 LINE",
"691 1295 LINE",
"287 1236 LINE"
);
},
{
closed = 1;
nodes = (
"546 1643 OFFCURVE",
"287 1516 OFFCURVE",
"287 1236 CURVE",
"691 1295 LINE",
"691 1397 OFFCURVE",
"757 1438 OFFCURVE",
"870 1438 CURVE",
"837 1643 LINE"
);
},
{
closed = 1;
nodes = (
"870 1438 LINE",
"859 1438 OFFCURVE",
"865 1453 OFFCURVE",
"884 1493 CURVE",
"856 1493 OFFCURVE",
"804 1466 OFFCURVE",
"804 1394 CURVE SMOOTH",
"804 1310 OFFCURVE",
"878 1244 OFFCURVE",
"1008 1244 CURVE SMOOTH",
"1152 1244 OFFCURVE",
"1230 1330 OFFCURVE",
"1230 1430 CURVE SMOOTH",
"1230 1556 OFFCURVE",
"1071 1643 OFFCURVE",
"837 1643 CURVE"
);
}
);
width = 1118;
},
{
hints = (
{
origin = "{1, 0}";
scale = "{1, 0.908}";
type = Corner;
name = _corner.Serif;
},
{
origin = "{1, 1}";
scale = "{-1.4, 0.908}";
type = Corner;
name = _corner.Serif;
options = 1;
}
);
layerId = "0C29AA02-E021-4BD1-A2C4-87F681D64C35";
paths = (
{
closed = 1;
nodes = (
"26 936 LINE",
"969 936 LINE",
"969 1141 LINE",
"26 1141 LINE"
);
},
{
closed = 1;
nodes = (
"249 0 LINE",
"653 0 LINE",
"653 1254 LINE",
"249 1149 LINE"
);
},
{
closed = 1;
nodes = (
"446 1593 OFFCURVE",
"249 1435 OFFCURVE",
"249 1149 CURVE",
"653 1254 LINE",
"653 1384 OFFCURVE",
"734 1415 OFFCURVE",
"788 1415 CURVE",
"755 1593 LINE"
);
},
{
closed = 1;
nodes = (
"788 1415 LINE",
"790 1415 OFFCURVE",
"807 1430 OFFCURVE",
"831 1468 CURVE",
"755 1468 OFFCURVE",
"704 1426 OFFCURVE",
"704 1348 CURVE SMOOTH",
"704 1270 OFFCURVE",
"773 1204 OFFCURVE",
"903 1204 CURVE SMOOTH",
"1050 1204 OFFCURVE",
"1130 1284 OFFCURVE",
"1130 1396 CURVE SMOOTH",
"1130 1512 OFFCURVE",
"972 1593 OFFCURVE",
"755 1593 CURVE"
);
}
);
width = 1015;
}
);
leftKerningGroup = f;
rightKerningGroup = f;
unicode = 0066;
},
